{
copyright = "Copyright (c) 2015, Cadson Demak (info@cadsondemak.com)";
customParameters = (
{
name = vendorID;
value = CDK;
},
{
name = description;
value = "Copyright (c) 2015, Cadson Demak (info@cadsondemak.com)";
},
{
name = license;

glyphs = (
{
glyphname = A;
lastChange = "2015-10-27 10:06:32 +0000";
layers = (
{
layerId = "097E1CCD-D4DB-46B5-97AF-AA821C3DB512";
name = "Bold Italic";
paths = (
{
closed = 1;
nodes = (
"190 0 LINE",
"192 14 LINE",
"171 24 OFFCURVE",
"148 32 OFFCURVE",
"118 36 CURVE",
"415 576 LINE",
"487 37 LINE",
"466 34 OFFCURVE",
"440 29 OFFCURVE",
"406 17 CURVE",
"403 0 LINE",
"684 0 LINE",
"686 16 LINE",
"663 25 OFFCURVE",
"638 32 OFFCURVE",
"615 37 CURVE",
"515 704 LINE",
"422 704 LINE",
"51 39 LINE",
"38 37 OFFCURVE",
"-3 27 OFFCURVE",
"-30 18 CURVE",
"-33 0 LINE"
);
},
{
closed = 1;
nodes = (
"504 179 LINE",
"513 224 LINE",
"184 224 LINE",
"176 179 LINE"
);
}
);
width = 729;
}
);
leftKerningGroup = A;
note = A;
rightKerningGroup = A;
unicode = 0041;
},
{
glyphname = Aacute;
lastChange = "2015-10-27 10:06:30 +0000";
layers = (
{
layerId = "097E1CCD-D4DB-46B5-97AF-AA821C3DB512";
name = "Bold Italic";
paths = (
{
closed = 1;
nodes = (
"190 0 LINE",
"192 14 LINE",
"171 24 OFFCURVE",
"148 32 OFFCURVE",
"118 36 CURVE",
"415 576 LINE",
"487 37 LINE",
"466 34 OFFCURVE",
"440 29 OFFCURVE",
"406 17 CURVE",
"403 0 LINE",
"684 0 LINE",
"686 16 LINE",
"663 25 OFFCURVE",
"638 32 OFFCURVE",
"615 37 CURVE",
"515 704 LINE",
"422 704 LINE",
"51 39 LINE",
"38 37 OFFCURVE",
"-3 27 OFFCURVE",
"-30 18 CURVE",
"-33 0 LINE"
);
},
{
closed = 1;
nodes = (
"504 179 LINE",
"513 224 LINE",
"184 224 LINE",
"176 179 LINE"
);
},
{
closed = 1;
nodes = (
"589 875 LINE SMOOTH",
"620 892 OFFCURVE",
"638 909 OFFCURVE",
"642 930 CURVE",
"646 947 OFFCURVE",
"639 967 OFFCURVE",
"611 967 CURVE SMOOTH",
"582 967 OFFCURVE",
"555 943 OFFCURVE",
"548 936 CURVE",
"408 817 LINE",
"423 786 LINE"
);
}
);
width = 729;
}
);
leftKerningGroup = A;
note = Aacute;
rightKerningGroup = A;
unicode = 00C1;
},
{
glyphname = Abreve;
lastChange = "2015-10-27 10:06:32 +0000";
layers = (
{
layerId = "097E1CCD-D4DB-46B5-97AF-AA821C3DB512";
name = "Bold Italic";
paths = (
{
closed = 1;
nodes = (
"190 0 LINE",
"192 14 LINE",
"171 24 OFFCURVE",
"148 32 OFFCURVE",
"118 36 CURVE",
"415 576 LINE",
"487 37 LINE",
"466 34 OFFCURVE",
"440 29 OFFCURVE",
"406 17 CURVE",
"403 0 LINE",
"684 0 LINE",
"686 16 LINE",
"663 25 OFFCURVE",
"638 32 OFFCURVE",
"615 37 CURVE",
"515 704 LINE",
"422 704 LINE",
"51 39 LINE",
"38 37 OFFCURVE",
"-3 27 OFFCURVE",
"-30 18 CURVE",
"-33 0 LINE"
);
},
{
closed = 1;
nodes = (
"504 179 LINE",
"513 224 LINE",
"184 224 LINE",
"176 179 LINE"
);
},
{
closed = 1;
nodes = (
"572 779 OFFCURVE",
"644 821 OFFCURVE",
"675 910 CURVE",
"602 910 LINE",
"579 836 OFFCURVE",
"532 826 OFFCURVE",
"492 826 CURVE SMOOTH",
"453 826 OFFCURVE",
"409 836 OFFCURVE",
"417 910 CURVE",
"345 910 LINE",
"340 821 OFFCURVE",
"393 779 OFFCURVE",
"483 779 CURVE SMOOTH"
);
}
);
width = 729;
}
);
leftKerningGroup = A;
note = Abreve;
rightKerningGroup = A;
unicode = 0102;
},
{
glyphname = Abreveacute;
lastChange = "2015-10-27 10:06:32 +0000";
layers = (
{
layerId = "097E1CCD-D4DB-46B5-97AF-AA821C3DB512";
name = "Bold Italic";
paths = (
{
closed = 1;
nodes = (
"190 0 LINE",
"192 14 LINE",
"171 24 OFFCURVE",
"148 32 OFFCURVE",
"118 36 CURVE",
"415 576 LINE",
"487 37 LINE",
"466 34 OFFCURVE",
"440 29 OFFCURVE",
"406 17 CURVE",
"403 0 LINE",
"684 0 LINE",
"686 16 LINE",
"663 25 OFFCURVE",
"638 32 OFFCURVE",
"615 37 CURVE",
"515 704 LINE",
"422 704 LINE",
"51 39 LINE",
"38 37 OFFCURVE",
"-3 27 OFFCURVE",
"-30 18 CURVE",
"-33 0 LINE"
);
},
{
closed = 1;
nodes = (
"504 179 LINE",
"513 224 LINE",
"184 224 LINE",
"176 179 LINE"
);
},
{
closed = 1;
nodes = (
"582 785 OFFCURVE",
"652 827 OFFCURVE",
"684 916 CURVE",
"612 916 LINE",
"588 842 OFFCURVE",
"540 832 OFFCURVE",
"501 832 CURVE SMOOTH",
"462 832 OFFCURVE",
"418 842 OFFCURVE",
"426 916 CURVE",
"353 916 LINE",
"348 827 OFFCURVE",
"402 785 OFFCURVE",
"492 785 CURVE SMOOTH"
);
},
{
closed = 1;
nodes = (
"608 972 LINE SMOOTH",
"649 992 OFFCURVE",
"672 1017 OFFCURVE",
"676 1038 CURVE",
"680 1055 OFFCURVE",
"670 1071 OFFCURVE",
"647 1071 CURVE SMOOTH",
"627 1071 OFFCURVE",
"600 1056 OFFCURVE",
"571 1029 CURVE SMOOTH",
"484 947 LINE",
"498 920 LINE"
);
}
);
width = 729;
}
);
leftKerningGroup = A;
note = Abreveacute;
rightKerningGroup = A;
unicode = 1EAE;
},
{
glyphname = Abrevedotbelow;
lastChange = "2015-10-27 10:06:31 +0000";
layers = (
{
layerId = "097E1CCD-D4DB-46B5-97AF-AA821C3DB512";
name = "Bold Italic";
paths = (
{
closed = 1;
nodes = (
"190 0 LINE",
"192 14 LINE",
"171 24 OFFCURVE",
"148 32 OFFCURVE",
"118 36 CURVE",
"415 576 LINE",
"487 37 LINE",
"466 34 OFFCURVE",
"440 29 OFFCURVE",
"406 17 CURVE",
"403 0 LINE",
"684 0 LINE",
"686 16 LINE",
"663 25 OFFCURVE",
"638 32 OFFCURVE",
"615 37 CURVE",
"515 704 LINE",
"422 704 LINE",
"51 39 LINE",
"38 37 OFFCURVE",
"-3 27 OFFCURVE",
"-30 18 CURVE",
"-33 0 LINE"
);
},
{
closed = 1;
nodes = (
"320 -169 OFFCURVE",
"346 -145 OFFCURVE",
"351 -113 CURVE SMOOTH",
"358 -80 OFFCURVE",
"343 -56 OFFCURVE",
"310 -56 CURVE SMOOTH",
"277 -56 OFFCURVE",
"251 -80 OFFCURVE",
"244 -113 CURVE SMOOTH",
"238 -145 OFFCURVE",
"254 -169 OFFCURVE",
"287 -169 CURVE SMOOTH"
);
},
{
closed = 1;
nodes = (
"504 179 LINE",
"513 224 LINE",
"184 224 LINE",
"176 179 LINE"
);
},
{
closed = 1;
nodes = (
"567 778 OFFCURVE",
"639 820 OFFCURVE",
"670 909 CURVE",
"597 909 LINE",
"574 835 OFFCURVE",
"527 825 OFFCURVE",
"488 825 CURVE SMOOTH",
"448 825 OFFCURVE",
"404 835 OFFCURVE",
"412 909 CURVE",
"340 909 LINE",
"335 820 OFFCURVE",
"388 778 OFFCURVE",
"478 778 CURVE SMOOTH"
);
}
);
width = 729;
}
);
leftKerningGroup = A;
note = Abrevedotbelow;
rightKerningGroup = A;
unicode = 1EB6;
},
{
glyphname = Abrevegrave;
lastChange = "2015-10-27 10:06:32 +0000";
layers = (
{
layerId = "097E1CCD-D4DB-46B5-97AF-AA821C3DB512";
name = "Bold Italic";
paths = (
{
closed = 1;
nodes = (
"190 0 LINE",
"192 14 LINE",
"171 24 OFFCURVE",
"148 32 OFFCURVE",
"118 36 CURVE",
"415 576 LINE",
"487 37 LINE",
"466 34 OFFCURVE",
"440 29 OFFCURVE",
"406 17 CURVE",
"403 0 LINE",
"684 0 LINE",
"686 16 LINE",
"663 25 OFFCURVE",
"638 32 OFFCURVE",
"615 37 CURVE",
"515 704 LINE",
"422 704 LINE",
"51 39 LINE",
"38 37 OFFCURVE",
"-3 27 OFFCURVE",
"-30 18 CURVE",
"-33 0 LINE"
);
},
{
closed = 1;
nodes = (
"504 179 LINE",
"513 224 LINE",
"184 224 LINE",
"176 179 LINE"
);
},
{
closed = 1;
nodes = (
"583 785 OFFCURVE",
"653 827 OFFCURVE",
"684 916 CURVE",
"612 916 LINE",
"589 842 OFFCURVE",
"541 832 OFFCURVE",
"502 832 CURVE SMOOTH",
"463 832 OFFCURVE",
"419 842 OFFCURVE",
"427 916 CURVE",
"354 916 LINE",
"348 827 OFFCURVE",
"403 785 OFFCURVE",
"492 785 CURVE SMOOTH"
);
},
{
closed = 1;
nodes = (
"574 947 LINE",
"519 1029 LINE SMOOTH",
"502 1056 OFFCURVE",
"481 1071 OFFCURVE",
"460 1071 CURVE SMOOTH",
"437 1071 OFFCURVE",
"421 1055 OFFCURVE",
"418 1038 CURVE",
"414 1017 OFFCURVE",
"425 992 OFFCURVE",
"460 972 CURVE SMOOTH",
"548 920 LINE"
);
}
);
width = 729;
}
);
leftKerningGroup = A;
note = Abrevegrave;
rightKerningGroup = A;
unicode = 1EB0;
},
{
glyphname = Abrevehookabove;
lastChange = "2015-10-27 10:06:33 +0000";
layers = (
{
layerId = "097E1CCD-D4DB-46B5-97AF-AA821C3DB512";
name = "Bold Italic";
paths = (
{
closed = 1;
nodes = (
"190 0 LINE",
"192 14 LINE",
"171 24 OFFCURVE",
"148 32 OFFCURVE",
"118 36 CURVE",
"415 576 LINE",
"487 37 LINE",
"466 34 OFFCURVE",
"440 29 OFFCURVE",
"406 17 CURVE",
"403 0 LINE",
"684 0 LINE",
"686 16 LINE",
"663 25 OFFCURVE",
"638 32 OFFCURVE",
"615 37 CURVE",
"515 704 LINE",
"422 704 LINE",
"51 39 LINE",
"38 37 OFFCURVE",
"-3 27 OFFCURVE",
"-30 18 CURVE",
"-33 0 LINE"
);
},
{
closed = 1;
nodes = (
"504 179 LINE",
"513 224 LINE",
"184 224 LINE",
"176 179 LINE"
);
},
{
closed = 1;
nodes = (
"582 785 OFFCURVE",
"652 827 OFFCURVE",
"684 916 CURVE",
"612 916 LINE",
"588 842 OFFCURVE",
"540 832 OFFCURVE",
"501 832 CURVE SMOOTH",
"462 832 OFFCURVE",
"418 842 OFFCURVE",
"426 916 CURVE",
"353 916 LINE",
"348 827 OFFCURVE",
"402 785 OFFCURVE",
"492 785 CURVE SMOOTH"
);
},
{
closed = 1;
nodes = (
"540 923 LINE",
"560 974 LINE",
"605 978 OFFCURVE",
"639 997 OFFCURVE",
"650 1045 CURVE SMOOTH",
"660 1098 OFFCURVE",
"618 1119 OFFCURVE",
"570 1119 CURVE SMOOTH",
"543 1119 OFFCURVE",
"516 1112 OFFCURVE",
"497 1105 CURVE",
"496 1072 LINE",
"516 1080 OFFCURVE",
"536 1084 OFFCURVE",
"550 1084 CURVE SMOOTH",
"585 1084 OFFCURVE",
"597 1067 OFFCURVE",
"593 1046 CURVE SMOOTH",
"587 1015 OFFCURVE",
"562 1002 OFFCURVE",
"534 1002 CURVE SMOOTH",
"506 1002 LINE",
"494 923 LINE"
);
}
);
width = 729;
}
);
leftKerningGroup = A;
note = Abrevehookabove;
rightKerningGroup = A;
unicode = 1EB2;
},
{
glyphname = Abrevetilde;
lastChange = "2015-10-27 10:06:32 +0000";
layers = (
{
layerId = "097E1CCD-D4DB-46B5-97AF-AA821C3DB512";
name = "Bold Italic";
paths = (
{
closed = 1;
nodes = (
"190 0 LINE",
"192 14 LINE",
"171 24 OFFCURVE",
"148 32 OFFCURVE",
"118 36 CURVE",
"415 576 LINE",
"487 37 LINE",
"466 34 OFFCURVE",
"440 29 OFFCURVE",
"406 17 CURVE",
"403 0 LINE",
"684 0 LINE",
"686 16 LINE",
"663 25 OFFCURVE",
"638 32 OFFCURVE",
"615 37 CURVE",
"515 704 LINE",
"422 704 LINE",
"51 39 LINE",
"38 37 OFFCURVE",
"-3 27 OFFCURVE",
"-30 18 CURVE",
"-33 0 LINE"
);
},
{
closed = 1;
nodes = (
"504 179 LINE",
"513 224 LINE",
"184 224 LINE",
"176 179 LINE"
);
},
{
closed = 1;
nodes = (
"582 785 OFFCURVE",
"652 827 OFFCURVE",
"684 916 CURVE",
"612 916 LINE",
"588 842 OFFCURVE",
"540 832 OFFCURVE",
"501 832 CURVE SMOOTH",
"462 832 OFFCURVE",
"418 842 OFFCURVE",
"426 916 CURVE",
"353 916 LINE",
"348 827 OFFCURVE",
"402 785 OFFCURVE",
"492 785 CURVE SMOOTH"
);
},
{
closed = 1;
nodes = (
"400 980 LINE",
"414 1013 OFFCURVE",
"442 1034 OFFCURVE",
"471 1034 CURVE SMOOTH",
"512 1034 OFFCURVE",
"542 981 OFFCURVE",
"596 981 CURVE SMOOTH",
"662 981 OFFCURVE",
"707 1026 OFFCURVE",
"728 1094 CURVE",
"685 1094 LINE",
"665 1049 OFFCURVE",
"633 1038 OFFCURVE",
"608 1038 CURVE SMOOTH",
"568 1038 OFFCURVE",
"550 1090 OFFCURVE",
"487 1090 CURVE SMOOTH",
"426 1090 OFFCURVE",
"381 1054 OFFCURVE",
"356 980 CURVE"
);
}
);
width = 729;
}
);
leftKerningGroup = A;
note = Abrevetilde;
rightKerningGroup = A;
unicode = 1EB4;
},
{
glyphname = Acaron;
lastChange = "2015-10-27 10:06:31 +0000";
layers = (
{
layerId = "097E1CCD-D4DB-46B5-97AF-AA821C3DB512";
name = "Bold Italic";
paths = (
{
closed = 1;
nodes = (
"190 0 LINE",
"192 14 LINE",
"171 24 OFFCURVE",
"148 32 OFFCURVE",
"118 36 CURVE",
"415 576 LINE",
"487 37 LINE",
"466 34 OFFCURVE",
"440 29 OFFCURVE",
"406 17 CURVE",
"403 0 LINE",
"684 0 LINE",
"686 16 LINE",
"663 25 OFFCURVE",
"638 32 OFFCURVE",
"615 37 CURVE",
"515 704 LINE",
"422 704 LINE",
"51 39 LINE",
"38 37 OFFCURVE",
"-3 27 OFFCURVE",
"-30 18 CURVE",
"-33 0 LINE"
);
},
{
closed = 1;
nodes = (
"504 179 LINE",
"513 224 LINE",
"184 224 LINE",
"176 179 LINE"
);
},
{
closed = 1;
nodes = (
"515 786 LINE",
"547 824 OFFCURVE",
"636 894 OFFCURVE",
"684 922 CURVE",
"639 963 LINE",
"595 932 OFFCURVE",
"529 877 OFFCURVE",
"497 841 CURVE",
"493 841 LINE",
"478 877 OFFCURVE",
"434 932 OFFCURVE",
"401 963 CURVE",
"343 922 LINE",
"377 894 OFFCURVE",
"438 824 OFFCURVE",
"455 786 CURVE"
);
}
);
width = 729;
}
);
leftKerningGroup = A;
note = Acaron;
rightKerningGroup = A;
unicode = 01CD;
},
{
glyphname = Acircumflex;
lastChange = "2015-10-27 10:06:30 +0000";
layers = (
{
layerId = "097E1CCD-D4DB-46B5-97AF-AA821C3DB512";
name = "Bold Italic";
paths = (
{
closed = 1;
nodes = (
"190 0 LINE",
"192 14 LINE",
"171 24 OFFCURVE",
"148 32 OFFCURVE",
"118 36 CURVE",
"415 576 LINE",
"487 37 LINE",
"466 34 OFFCURVE",
"440 29 OFFCURVE",
"406 17 CURVE",
"403 0 LINE",
"684 0 LINE",
"686 16 LINE",
"663 25 OFFCURVE",
"638 32 OFFCURVE",
"615 37 CURVE",
"515 704 LINE",
"422 704 LINE",
"51 39 LINE",
"38 37 OFFCURVE",
"-3 27 OFFCURVE",
"-30 18 CURVE",
"-33 0 LINE"
);
},
{
closed = 1;
nodes = (
"504 179 LINE",
"513 224 LINE",
"184 224 LINE",
"176 179 LINE"
);
},
{
closed = 1;
nodes = (
"409 813 OFFCURVE",
"476 868 OFFCURVE",
"507 904 CURVE",
"511 904 LINE",
"527 868 OFFCURVE",
"570 813 OFFCURVE",
"603 782 CURVE",
"662 823 LINE",
"627 851 OFFCURVE",
"567 922 OFFCURVE",
"549 959 CURVE",
"490 959 LINE",
"458 922 OFFCURVE",
"368 851 OFFCURVE",
"322 823 CURVE",
"366 782 LINE"
);
}
);
width = 729;
}
);
leftKerningGroup = A;
note = Acircumflex;
rightKerningGroup = A;
unicode = 00C2;
},
{
glyphname = Acircumflexacute;
lastChange = "2015-10-27 10:06:30 +0000";
layers = (
{
layerId = "097E1CCD-D4DB-46B5-97AF-AA821C3DB512";
name = "Bold Italic";
paths = (
{
closed = 1;
nodes = (
"190 0 LINE",
"192 14 LINE",
"171 24 OFFCURVE",
"148 32 OFFCURVE",
"118 36 CURVE",
"415 576 LINE",
"487 37 LINE",
"466 34 OFFCURVE",
"440 29 OFFCURVE",
"406 17 CURVE",
"403 0 LINE",
"684 0 LINE",
"686 16 LINE",
"663 25 OFFCURVE",
"638 32 OFFCURVE",
"615 37 CURVE",
"515 704 LINE",
"422 704 LINE",
"51 39 LINE",
"38 37 OFFCURVE",
"-3 27 OFFCURVE",
"-30 18 CURVE",
"-33 0 LINE"
);
},
{
closed = 1;
nodes = (
"504 179 LINE",
"513 224 LINE",
"184 224 LINE",
"176 179 LINE"
);
},
{
closed = 1;
nodes = (
"411 813 OFFCURVE",
"476 868 OFFCURVE",
"508 904 CURVE",
"512 904 LINE",
"528 868 OFFCURVE",
"571 813 OFFCURVE",
"604 782 CURVE",
"662 823 LINE",
"629 851 OFFCURVE",
"568 922 OFFCURVE",
"550 959 CURVE",
"491 959 LINE",
"459 922 OFFCURVE",
"369 851 OFFCURVE",
"322 823 CURVE",
"367 782 LINE"
);
},
{
closed = 1;
nodes = (
"750 967 LINE SMOOTH",
"792 987 OFFCURVE",
"815 1012 OFFCURVE",
"819 1033 CURVE",
"823 1050 OFFCURVE",
"813 1066 OFFCURVE",
"790 1066 CURVE SMOOTH",
"769 1066 OFFCURVE",
"742 1051 OFFCURVE",
"713 1024 CURVE SMOOTH",
"627 942 LINE",
"640 915 LINE"
);
}
);
width = 729;
}
);
leftKerningGroup = A;
note = Acircumflexacute;
rightKerningGroup = A;
unicode = 1EA4;
},
{
glyphname = Acircumflexdotbelow;
lastChange = "2015-10-27 10:06:30 +0000";
layers = (
{
layerId = "097E1CCD-D4DB-46B5-97AF-AA821C3DB512";
name = "Bold Italic";
paths = (
{
closed = 1;
nodes = (
"190 0 LINE",
"192 14 LINE",
"171 24 OFFCURVE",
"148 32 OFFCURVE",
"118 36 CURVE",
"415 576 LINE",
"487 37 LINE",
"466 34 OFFCURVE",
"440 29 OFFCURVE",
"406 17 CURVE",
"403 0 LINE",
"684 0 LINE",
"686 16 LINE",
"663 25 OFFCURVE",
"638 32 OFFCURVE",
"615 37 CURVE",
"515 704 LINE",
"422 704 LINE",
"51 39 LINE",
"38 37 OFFCURVE",
"-3 27 OFFCURVE",
"-30 18 CURVE",
"-33 0 LINE"
);
},
{
closed = 1;
nodes = (
"325 -169 OFFCURVE",
"351 -145 OFFCURVE",
"357 -113 CURVE SMOOTH",
"364 -80 OFFCURVE",
"348 -56 OFFCURVE",
"316 -56 CURVE SMOOTH",
"283 -56 OFFCURVE",
"256 -80 OFFCURVE",
"250 -113 CURVE SMOOTH",
"244 -145 OFFCURVE",
"260 -169 OFFCURVE",
"293 -169 CURVE SMOOTH"
);
},
{
closed = 1;
nodes = (
"504 179 LINE",
"513 224 LINE",
"184 224 LINE",
"176 179 LINE"
);
},
{
closed = 1;
nodes = (
"410 812 OFFCURVE",
"477 867 OFFCURVE",
"508 903 CURVE",
"512 903 LINE",
"528 867 OFFCURVE",
"571 812 OFFCURVE",
"604 781 CURVE",
"663 822 LINE",
"628 850 OFFCURVE",
"568 921 OFFCURVE",
"550 958 CURVE",
"491 958 LINE",
"459 921 OFFCURVE",
"369 850 OFFCURVE",
"323 822 CURVE",
"367 781 LINE"
);
}
);
width = 729;
}
);
leftKerningGroup = A;
note = Acircumflexdotbelow;
rightKerningGroup = A;
unicode = 1EAC;
},
{
glyphname = Acircumflexgrave;
lastChange = "2015-10-27 10:06:32 +0000";
layers = (
{
layerId = "097E1CCD-D4DB-46B5-97AF-AA821C3DB512";
name = "Bold Italic";
paths = (
{
closed = 1;
nodes = (
"190 0 LINE",
"192 14 LINE",
"171 24 OFFCURVE",
"148 32 OFFCURVE",
"118 36 CURVE",
"415 576 LINE",
"487 37 LINE",
"466 34 OFFCURVE",
"440 29 OFFCURVE",
"406 17 CURVE",
"403 0 LINE",
"684 0 LINE",
"686 16 LINE",
"663 25 OFFCURVE",
"638 32 OFFCURVE",
"615 37 CURVE",
"515 704 LINE",
"422 704 LINE",
"51 39 LINE",
"38 37 OFFCURVE",
"-3 27 OFFCURVE",
"-30 18 CURVE",
"-33 0 LINE"
);
},
{
closed = 1;
nodes = (
"504 179 LINE",
"513 224 LINE",
"184 224 LINE",
"176 179 LINE"
);
},
{
closed = 1;
nodes = (
"411 942 LINE",
"357 1024 LINE SMOOTH",
"339 1051 OFFCURVE",
"318 1066 OFFCURVE",
"297 1066 CURVE SMOOTH",
"274 1066 OFFCURVE",
"258 1050 OFFCURVE",
"254 1033 CURVE",
"251 1012 OFFCURVE",
"264 988 OFFCURVE",
"298 967 CURVE SMOOTH",
"385 915 LINE"
);
},
{
closed = 1;
nodes = (
"411 813 OFFCURVE",
"476 868 OFFCURVE",
"508 904 CURVE",
"512 904 LINE",
"528 868 OFFCURVE",
"571 813 OFFCURVE",
"604 782 CURVE",
"662 823 LINE",
"629 851 OFFCURVE",
"568 922 OFFCURVE",
"550 959 CURVE",
"491 959 LINE",
"459 922 OFFCURVE",
"369 851 OFFCURVE",
"322 823 CURVE",
"367 782 LINE"
);
}
);
width = 729;
}
);
leftKerningGroup = A;
note = Acircumflexgrave;
rightKerningGroup = A;
unicode = 1EA6;
},
{
glyphname = Acircumflexhookabove;
lastChange = "2015-10-27 10:06:32 +0000";
layers = (
{
layerId = "097E1CCD-D4DB-46B5-97AF-AA821C3DB512";
name = "Bold Italic";
paths = (
{
closed = 1;
nodes = (
"190 0 LINE",
"192 14 LINE",
"171 24 OFFCURVE",
"148 32 OFFCURVE",
"118 36 CURVE",
"415 576 LINE",
"487 37 LINE",
"466 34 OFFCURVE",
"440 29 OFFCURVE",
"406 17 CURVE",
"403 0 LINE",
"684 0 LINE",
"686 16 LINE",
"663 25 OFFCURVE",
"638 32 OFFCURVE",
"615 37 CURVE",
"515 704 LINE",
"422 704 LINE",
"51 39 LINE",
"38 37 OFFCURVE",
"-3 27 OFFCURVE",
"-30 18 CURVE",
"-33 0 LINE"
);
},
{
closed = 1;
nodes = (
"504 179 LINE",
"513 224 LINE",
"184 224 LINE",
"176 179 LINE"
);
},
{
closed = 1;
nodes = (
"411 813 OFFCURVE",
"476 868 OFFCURVE",
"508 904 CURVE",
"512 904 LINE",
"528 868 OFFCURVE",
"571 813 OFFCURVE",
"604 782 CURVE",
"662 823 LINE",
"629 851 OFFCURVE",
"568 922 OFFCURVE",
"550 959 CURVE",
"491 959 LINE",
"459 922 OFFCURVE",
"369 851 OFFCURVE",
"322 823 CURVE",
"367 782 LINE"
);
},
{
closed = 1;
nodes = (
"667 918 LINE",
"686 969 LINE",
"731 973 OFFCURVE",
"767 992 OFFCURVE",
"778 1040 CURVE SMOOTH",
"788 1093 OFFCURVE",
"744 1114 OFFCURVE",
"696 1114 CURVE SMOOTH",
"669 1114 OFFCURVE",
"642 1107 OFFCURVE",
"625 1100 CURVE",
"624 1067 LINE",
"641 1075 OFFCURVE",
"661 1079 OFFCURVE",
"677 1079 CURVE SMOOTH",
"710 1079 OFFCURVE",
"724 1062 OFFCURVE",
"720 1041 CURVE SMOOTH",
"713 1010 OFFCURVE",
"687 997 OFFCURVE",
"660 997 CURVE SMOOTH",
"633 997 LINE",
"622 918 LINE"
);
}
);
width = 729;
}
);
leftKerningGroup = A;
note = Acircumflexhookabove;
rightKerningGroup = A;
unicode = 1EA8;
},
{
glyphname = Acircumflextilde;
lastChange = "2015-10-27 10:06:31 +0000";
layers = (
{
layerId = "097E1CCD-D4DB-46B5-97AF-AA821C3DB512";
name = "Bold Italic";
paths = (
{
closed = 1;
nodes = (
"190 0 LINE",
"192 14 LINE",
"171 24 OFFCURVE",
"148 32 OFFCURVE",
"118 36 CURVE",
"415 576 LINE",
"487 37 LINE",
"466 34 OFFCURVE",
"440 29 OFFCURVE",
"406 17 CURVE",
"403 0 LINE",
"684 0 LINE",
"686 16 LINE",
"663 25 OFFCURVE",
"638 32 OFFCURVE",
"615 37 CURVE",
"515 704 LINE",
"422 704 LINE",
"51 39 LINE",
"38 37 OFFCURVE",
"-3 27 OFFCURVE",
"-30 18 CURVE",
"-33 0 LINE"
);
},
{
closed = 1;
nodes = (
"504 179 LINE",
"513 224 LINE",
"184 224 LINE",
"176 179 LINE"
);
},
{
closed = 1;
nodes = (
"411 813 OFFCURVE",
"476 868 OFFCURVE",
"508 904 CURVE",
"512 904 LINE",
"528 868 OFFCURVE",
"571 813 OFFCURVE",
"604 782 CURVE",
"662 823 LINE",
"629 851 OFFCURVE",
"568 922 OFFCURVE",
"550 959 CURVE",
"491 959 LINE",
"459 922 OFFCURVE",
"369 851 OFFCURVE",
"322 823 CURVE",
"367 782 LINE"
);
},
{
closed = 1;
nodes = (
"399 988 LINE",
"413 1021 OFFCURVE",
"441 1042 OFFCURVE",
"470 1042 CURVE SMOOTH",
"511 1042 OFFCURVE",
"548 989 OFFCURVE",
"602 989 CURVE SMOOTH",
"668 989 OFFCURVE",
"710 1033 OFFCURVE",
"732 1101 CURVE",
"689 1101 LINE",
"670 1057 OFFCURVE",
"637 1045 OFFCURVE",
"613 1045 CURVE SMOOTH",
"574 1045 OFFCURVE",
"549 1098 OFFCURVE",
"486 1098 CURVE SMOOTH",
"425 1098 OFFCURVE",
"379 1062 OFFCURVE",
"355 988 CURVE"
);
}
);
width = 729;
}
);
leftKerningGroup = A;
note = Acircumflextilde;
rightKerningGroup = A;
unicode = 1EAA;
},
{
glyphname = Adieresis;
lastChange = "2015-10-27 10:06:31 +0000";
layers = (
{
layerId = "097E1CCD-D4DB-46B5-97AF-AA821C3DB512";
name = "Bold Italic";
paths = (
{
closed = 1;
nodes = (
"190 0 LINE",
"192 14 LINE",
"171 24 OFFCURVE",
"148 32 OFFCURVE",
"118 36 CURVE",
"415 576 LINE",
"487 37 LINE",
"466 34 OFFCURVE",
"440 29 OFFCURVE",
"406 17 CURVE",
"403 0 LINE",
"684 0 LINE",
"686 16 LINE",
"663 25 OFFCURVE",
"638 32 OFFCURVE",
"615 37 CURVE",
"515 704 LINE",
"422 704 LINE",
"51 39 LINE",
"38 37 OFFCURVE",
"-3 27 OFFCURVE",
"-30 18 CURVE",
"-33 0 LINE"
);
},
{
closed = 1;
nodes = (
"504 179 LINE",
"513 224 LINE",
"184 224 LINE",
"176 179 LINE"
);
},
{
closed = 1;
nodes = (
"392 785 OFFCURVE",
"419 809 OFFCURVE",
"424 841 CURVE SMOOTH",
"431 874 OFFCURVE",
"415 898 OFFCURVE",
"381 898 CURVE SMOOTH",
"350 898 OFFCURVE",
"324 874 OFFCURVE",
"318 841 CURVE SMOOTH",
"312 809 OFFCURVE",
"327 785 OFFCURVE",
"358 785 CURVE SMOOTH"
);
},
{
closed = 1;
nodes = (
"615 785 OFFCURVE",
"642 809 OFFCURVE",
"648 841 CURVE SMOOTH",
"655 874 OFFCURVE",
"638 898 OFFCURVE",
"606 898 CURVE SMOOTH",
"572 898 OFFCURVE",
"547 874 OFFCURVE",
"540 841 CURVE SMOOTH",
"535 809 OFFCURVE",
"549 785 OFFCURVE",
"583 785 CURVE SMOOTH"
);
}
);
width = 729;
}
);
leftKerningGroup = A;
note = Adieresis;
rightKerningGroup = A;
unicode = 00C4;
},
{
glyphname = Adotbelow;
lastChange = "2015-10-27 10:06:30 +0000";
layers = (
{
layerId = "097E1CCD-D4DB-46B5-97AF-AA821C3DB512";
name = "Bold Italic";
paths = (
{
closed = 1;
nodes = (
"190 0 LINE",
"192 14 LINE",
"171 24 OFFCURVE",
"148 32 OFFCURVE",
"118 36 CURVE",
"415 576 LINE",
"487 37 LINE",
"466 34 OFFCURVE",
"440 29 OFFCURVE",
"406 17 CURVE",
"403 0 LINE",
"684 0 LINE",
"686 16 LINE",
"663 25 OFFCURVE",
"638 32 OFFCURVE",
"615 37 CURVE",
"515 704 LINE",
"422 704 LINE",
"51 39 LINE",
"38 37 OFFCURVE",
"-3 27 OFFCURVE",
"-30 18 CURVE",
"-33 0 LINE"
);
},
{
closed = 1;
nodes = (
"324 -169 OFFCURVE",
"349 -145 OFFCURVE",
"355 -113 CURVE SMOOTH",
"362 -80 OFFCURVE",
"347 -56 OFFCURVE",
"314 -56 CURVE SMOOTH",
"281 -56 OFFCURVE",
"254 -80 OFFCURVE",
"248 -113 CURVE SMOOTH",
"242 -145 OFFCURVE",
"258 -169 OFFCURVE",
"291 -169 CURVE SMOOTH"
);
},
{
closed = 1;
nodes = (
"504 179 LINE",
"513 224 LINE",
"184 224 LINE",
"176 179 LINE"
);
}
);
width = 729;
}
);
leftKerningGroup = A;
note = Adotbelow;
rightKerningGroup = A;
unicode = 1EA0;
},
{
glyphname = Agrave;
lastChange = "2015-10-27 10:06:31 +0000";
layers = (
{
layerId = "097E1CCD-D4DB-46B5-97AF-AA821C3DB512";
name = "Bold Italic";
paths = (
{
closed = 1;
nodes = (
"190 0 LINE",
"192 14 LINE",
"171 24 OFFCURVE",
"148 32 OFFCURVE",
"118 36 CURVE",
"415 576 LINE",
"487 37 LINE",
"466 34 OFFCURVE",
"440 29 OFFCURVE",
"406 17 CURVE",
"403 0 LINE",
"684 0 LINE",
"686 16 LINE",
"663 25 OFFCURVE",
"638 32 OFFCURVE",
"615 37 CURVE",
"515 704 LINE",
"422 704 LINE",
"51 39 LINE",
"38 37 OFFCURVE",
"-3 27 OFFCURVE",
"-30 18 CURVE",
"-33 0 LINE"
);
},
{
closed = 1;
nodes = (
"504 179 LINE",
"513 224 LINE",
"184 224 LINE",
"176 179 LINE"
);
},
{
closed = 1;
nodes = (
"578 817 LINE",
"487 937 LINE SMOOTH",
"481 945 OFFCURVE",
"461 967 OFFCURVE",
"434 967 CURVE SMOOTH",
"409 967 OFFCURVE",
"393 946 OFFCURVE",
"389 929 CURVE",
"385 908 OFFCURVE",
"396 892 OFFCURVE",
"421 875 CURVE SMOOTH",
"551 786 LINE"
);
}
);
width = 729;
}
);
leftKerningGroup = A;
note = Agrave;
rightKerningGroup = A;
unicode = 00C0;
},
{
glyphname = Ahookabove;
lastChange = "2015-10-27 10:06:32 +0000";
layers = (
{
layerId = "097E1CCD-D4DB-46B5-97AF-AA821C3DB512";
name = "Bold Italic";
paths = (
{
closed = 1;
nodes = (
"190 0 LINE",
"192 14 LINE",
"171 24 OFFCURVE",
"148 32 OFFCURVE",
"118 36 CURVE",
"415 576 LINE",
"487 37 LINE",
"466 34 OFFCURVE",
"440 29 OFFCURVE",
"406 17 CURVE",
"403 0 LINE",
"684 0 LINE",
"686 16 LINE",
"663 25 OFFCURVE",
"638 32 OFFCURVE",
"615 37 CURVE",
"515 704 LINE",
"422 704 LINE",
"51 39 LINE",
"38 37 OFFCURVE",
"-3 27 OFFCURVE",
"-30 18 CURVE",
"-33 0 LINE"
);
},
{
closed = 1;
nodes = (
"504 179 LINE",
"513 224 LINE",
"184 224 LINE",
"176 179 LINE"
);
},
{
closed = 1;
nodes = (
"514 781 LINE",
"538 849 LINE",
"590 854 OFFCURVE",
"630 876 OFFCURVE",
"641 931 CURVE SMOOTH",
"654 994 OFFCURVE",
"606 1018 OFFCURVE",
"551 1018 CURVE SMOOTH",
"520 1018 OFFCURVE",
"489 1010 OFFCURVE",
"468 1001 CURVE",
"467 965 LINE",
"490 976 OFFCURVE",
"512 981 OFFCURVE",
"529 981 CURVE SMOOTH",
"567 981 OFFCURVE",
"583 958 OFFCURVE",
"578 933 CURVE SMOOTH",
"570 897 OFFCURVE",
"540 881 OFFCURVE",
"509 881 CURVE SMOOTH",
"477 881 LINE",
"462 781 LINE"
);
}
);
width = 729;
}
);
leftKerningGroup = A;
note = Ahookabove;
rightKerningGroup = A;
unicode = 1EA2;
},
{
glyphname = Amacron;
lastChange = "2015-10-27 10:06:31 +0000";
layers = (
{
layerId = "097E1CCD-D4DB-46B5-97AF-AA821C3DB512";
name = "Bold Italic";
paths = (
{
closed = 1;
nodes = (
"190 0 LINE",
"192 14 LINE",
"171 24 OFFCURVE",
"148 32 OFFCURVE",
"118 36 CURVE",
"415 576 LINE",
"487 37 LINE",
"466 34 OFFCURVE",
"440 29 OFFCURVE",
"406 17 CURVE",
"403 0 LINE",
"684 0 LINE",
"686 16 LINE",
"663 25 OFFCURVE",
"638 32 OFFCURVE",
"615 37 CURVE",
"515 704 LINE",
"422 704 LINE",
"51 39 LINE",
"38 37 OFFCURVE",
"-3 27 OFFCURVE",
"-30 18 CURVE",
"-33 0 LINE"
);
},
{
closed = 1;
nodes = (
"504 179 LINE",
"513 224 LINE",
"184 224 LINE",
"176 179 LINE"
);
},
{
closed = 1;
nodes = (
"664 785 LINE",
"673 829 LINE",
"318 829 LINE",
"309 785 LINE"
);
}
);
width = 729;
}
);
leftKerningGroup = A;
note = Amacron;
rightKerningGroup = A;
unicode = 0100;
},
{
glyphname = Aogonek;
lastChange = "2015-10-27 10:06:31 +0000";
layers = (
{
layerId = "097E1CCD-D4DB-46B5-97AF-AA821C3DB512";
name = "Bold Italic";
paths = (
{
closed = 1;
nodes = (
"190 0 LINE",
"192 14 LINE",
"171 24 OFFCURVE",
"148 32 OFFCURVE",
"118 36 CURVE",
"415 576 LINE",
"487 37 LINE",
"466 34 OFFCURVE",
"440 29 OFFCURVE",
"406 17 CURVE",
"403 0 LINE",
"684 0 LINE",
"686 16 LINE",
"663 25 OFFCURVE",
"638 32 OFFCURVE",
"615 37 CURVE",
"515 704 LINE",
"422 704 LINE",
"51 39 LINE",
"38 37 OFFCURVE",
"-3 27 OFFCURVE",
"-30 18 CURVE",
"-33 0 LINE"
);
},
{
closed = 1;
nodes = (
"641 -200 OFFCURVE",
"680 -191 OFFCURVE",
"707 -177 CURVE",
"718 -121 LINE",
"693 -134 OFFCURVE",
"671 -140 OFFCURVE",
"654 -140 CURVE SMOOTH",
"620 -140 OFFCURVE",
"599 -120 OFFCURVE",
"606 -88 CURVE SMOOTH",
"612 -55 OFFCURVE",
"645 -19 OFFCURVE",
"677 0 CURVE",
"614 0 LINE",
"555 -19 OFFCURVE",
"514 -68 OFFCURVE",
"504 -113 CURVE SMOOTH",
"494 -163 OFFCURVE",
"529 -200 OFFCURVE",
"604 -200 CURVE SMOOTH"
);
},
{
closed = 1;
nodes = (
"504 179 LINE",
"513 224 LINE",
"184 224 LINE",
"176 179 LINE"
);
}
);
width = 729;
}
);
leftKerningGroup = A;
note = Aogonek;
rightKerningGroup = A;
unicode = 0104;
},
{
glyphname = Aring;
lastChange = "2015-10-27 10:06:30 +0000";
layers = (
{
layerId = "097E1CCD-D4DB-46B5-97AF-AA821C3DB512";
name = "Bold Italic";
paths = (
{
closed = 1;
nodes = (
"190 0 LINE",
"192 14 LINE",
"171 24 OFFCURVE",
"148 32 OFFCURVE",
"118 36 CURVE",
"415 576 LINE",
"487 37 LINE",
"466 34 OFFCURVE",
"440 29 OFFCURVE",
"406 17 CURVE",
"403 0 LINE",
"684 0 LINE",
"686 16 LINE",
"663 25 OFFCURVE",
"638 32 OFFCURVE",
"615 37 CURVE",
"515 704 LINE",
"422 704 LINE",
"51 39 LINE",
"38 37 OFFCURVE",
"-3 27 OFFCURVE",
"-30 18 CURVE",
"-33 0 LINE"
);
},
{
closed = 1;
nodes = (
"504 179 LINE",
"513 224 LINE",
"184 224 LINE",
"176 179 LINE"
);
},
{
closed = 1;
nodes = (
"534 743 OFFCURVE",
"582 782 OFFCURVE",
"593 840 CURVE SMOOTH",
"606 898 OFFCURVE",
"573 938 OFFCURVE",
"515 938 CURVE SMOOTH",
"455 938 OFFCURVE",
"407 898 OFFCURVE",
"395 840 CURVE SMOOTH",
"383 782 OFFCURVE",
"416 743 OFFCURVE",
"475 743 CURVE SMOOTH"
);
},
{
closed = 1;
nodes = (
"451 784 OFFCURVE",
"431 806 OFFCURVE",
"438 840 CURVE SMOOTH",
"445 874 OFFCURVE",
"474 896 OFFCURVE",
"506 896 CURVE SMOOTH",
"538 896 OFFCURVE",
"557 874 OFFCURVE",
"549 840 CURVE SMOOTH",
"542 806 OFFCURVE",
"515 784 OFFCURVE",
"483 784 CURVE SMOOTH"
);
}
);
width = 729;
}
);
leftKerningGroup = A;
note = Aring;
rightKerningGroup = A;
unicode = 00C5;
},
{
glyphname = Aringacute;
lastChange = "2015-10-27 10:06:33 +0000";
layers = (
{
layerId = "097E1CCD-D4DB-46B5-97AF-AA821C3DB512";
name = "Bold Italic";
paths = (
{
closed = 1;
nodes = (
"190 0 LINE",
"192 14 LINE",
"171 24 OFFCURVE",
"148 32 OFFCURVE",
"118 36 CURVE",
"415 576 LINE",
"487 37 LINE",
"466 34 OFFCURVE",
"440 29 OFFCURVE",
"406 17 CURVE",
"403 0 LINE",
"684 0 LINE",
"686 16 LINE",
"663 25 OFFCURVE",
"638 32 OFFCURVE",
"615 37 CURVE",
"515 704 LINE",
"422 704 LINE",
"51 39 LINE",
"38 37 OFFCURVE",
"-3 27 OFFCURVE",
"-30 18 CURVE",
"-33 0 LINE"
);
},
{
closed = 1;
nodes = (
"504 179 LINE",
"513 224 LINE",
"184 224 LINE",
"176 179 LINE"
);
},
{
closed = 1;
nodes = (
"534 741 OFFCURVE",
"582 780 OFFCURVE",
"593 838 CURVE SMOOTH",
"606 896 OFFCURVE",
"573 936 OFFCURVE",
"515 936 CURVE SMOOTH",
"455 936 OFFCURVE",
"407 896 OFFCURVE",
"395 838 CURVE SMOOTH",
"383 780 OFFCURVE",
"416 741 OFFCURVE",
"475 741 CURVE SMOOTH"
);
},
{
closed = 1;
nodes = (
"451 782 OFFCURVE",
"431 804 OFFCURVE",
"438 838 CURVE SMOOTH",
"445 872 OFFCURVE",
"474 894 OFFCURVE",
"506 894 CURVE SMOOTH",
"538 894 OFFCURVE",
"557 872 OFFCURVE",
"549 838 CURVE SMOOTH",
"542 804 OFFCURVE",
"515 782 OFFCURVE",
"483 782 CURVE SMOOTH"
);
},
{
closed = 1;
nodes = (
"623 1049 LINE SMOOTH",
"654 1066 OFFCURVE",
"672 1083 OFFCURVE",
"676 1104 CURVE",
"680 1121 OFFCURVE",
"673 1141 OFFCURVE",
"644 1141 CURVE SMOOTH",
"615 1141 OFFCURVE",
"588 1117 OFFCURVE",
"582 1110 CURVE",
"442 991 LINE",
"457 960 LINE"
);
}
);
width = 729;
}
);
leftKerningGroup = A;
note = Aringacute;
rightKerningGroup = A;
unicode = 01FA;
},
{
glyphname = Atilde;
lastChange = "2015-10-27 10:06:30 +0000";
layers = (
{
layerId = "097E1CCD-D4DB-46B5-97AF-AA821C3DB512";
name = "Bold Italic";
paths = (
{
closed = 1;
nodes = (
"190 0 LINE",
"192 14 LINE",
"171 24 OFFCURVE",
"148 32 OFFCURVE",
"118 36 CURVE",
"415 576 LINE",
"487 37 LINE",
"466 34 OFFCURVE",
"440 29 OFFCURVE",
"406 17 CURVE",
"403 0 LINE",
"684 0 LINE",
"686 16 LINE",
"663 25 OFFCURVE",
"638 32 OFFCURVE",
"615 37 CURVE",
"515 704 LINE",
"422 704 LINE",
"51 39 LINE",
"38 37 OFFCURVE",
"-3 27 OFFCURVE",
"-30 18 CURVE",
"-33 0 LINE"
);
},
{
closed = 1;
nodes = (
"504 179 LINE",
"513 224 LINE",
"184 224 LINE",
"176 179 LINE"
);
},
{
closed = 1;
nodes = (
"350 786 LINE",
"364 819 OFFCURVE",
"390 840 OFFCURVE",
"419 840 CURVE SMOOTH",
"455 840 OFFCURVE",
"503 786 OFFCURVE",
"557 786 CURVE SMOOTH",
"625 786 OFFCURVE",
"666 832 OFFCURVE",
"688 900 CURVE",
"639 900 LINE",
"620 855 OFFCURVE",
"592 844 OFFCURVE",
"566 844 CURVE SMOOTH",
"527 844 OFFCURVE",
"495 897 OFFCURVE",
"431 897 CURVE SMOOTH",
"371 897 OFFCURVE",
"324 860 OFFCURVE",
"300 786 CURVE"
);
}
);
width = 729;
}
);
leftKerningGroup = A;
note = Atilde;
rightKerningGroup = A;
unicode = 00C3;
},
{
glyphname = AE;
lastChange = "2015-10-27 10:06:32 +0000";
layers = (
{
layerId = "097E1CCD-D4DB-46B5-97AF-AA821C3DB512";
name = "Bold Italic";
paths = (
{
closed = 1;
nodes = (
"197 0 LINE",
"199 14 LINE",
"178 24 OFFCURVE",
"150 32 OFFCURVE",
"120 36 CURVE",
"230 179 LINE",
"474 179 LINE",
"444 36 LINE",
"414 32 OFFCURVE",
"385 24 OFFCURVE",
"359 16 CURVE",
"356 0 LINE",
"885 0 LINE",
"935 165 LINE",
"906 165 LINE",
"887 144 OFFCURVE",
"847 78 OFFCURVE",
"837 44 CURVE",
"575 44 LINE",
"635 336 LINE",
"813 336 LINE",
"811 319 OFFCURVE",
"811 280 OFFCURVE",
"815 251 CURVE",
"836 251 LINE",
"880 467 LINE",
"859 467 LINE",
"843 440 OFFCURVE",
"828 400 OFFCURVE",
"823 382 CURVE",
"644 382 LINE",
"700 654 LINE",
"957 654 LINE",
"952 625 OFFCURVE",
"957 555 OFFCURVE",
"966 533 CURVE",
"995 533 LINE",
"1028 700 LINE",
"495 700 LINE",
"492 684 LINE",
"507 677 OFFCURVE",
"523 673 OFFCURVE",
"539 669 CURVE",
"48 38 LINE",
"22 32 OFFCURVE",
"-2 26 OFFCURVE",
"-30 16 CURVE",
"-33 0 LINE"
);
},
{
closed = 1;
nodes = (
"563 613 LINE",
"483 224 LINE",
"264 224 LINE"
);
}
);
width = 981;
}
);
leftKerningGroup = A;
note = AE;
unicode = 00C6;
},
{
glyphname = AEacute;
lastChange = "2015-10-27 10:06:31 +0000";
layers = (
{
layerId = "097E1CCD-D4DB-46B5-97AF-AA821C3DB512";
name = "Bold Italic";
paths = (
{
closed = 1;
nodes = (
"197 0 LINE",
"199 14 LINE",
"178 24 OFFCURVE",
"150 32 OFFCURVE",
"120 36 CURVE",
"230 179 LINE",
"474 179 LINE",
"444 36 LINE",
"414 32 OFFCURVE",
"385 24 OFFCURVE",
"359 16 CURVE",
"356 0 LINE",
"885 0 LINE",
"935 165 LINE",
"906 165 LINE",
"887 144 OFFCURVE",
"847 78 OFFCURVE",
"837 44 CURVE",
"575 44 LINE",
"635 336 LINE",
"813 336 LINE",
"811 319 OFFCURVE",
"811 280 OFFCURVE",
"815 251 CURVE",
"836 251 LINE",
"880 467 LINE",
"859 467 LINE",
"843 440 OFFCURVE",
"828 400 OFFCURVE",
"823 382 CURVE",
"644 382 LINE",
"700 654 LINE",
"957 654 LINE",
"952 625 OFFCURVE",
"957 555 OFFCURVE",
"966 533 CURVE",
"995 533 LINE",
"1028 700 LINE",
"495 700 LINE",
"492 684 LINE",
"507 677 OFFCURVE",
"523 673 OFFCURVE",
"539 669 CURVE",
"48 38 LINE",
"22 32 OFFCURVE",
"-2 26 OFFCURVE",
"-30 16 CURVE",
"-33 0 LINE"
);
},
{
closed = 1;
nodes = (
"563 613 LINE",
"483 224 LINE",
"264 224 LINE"
);
},
{
closed = 1;
nodes = (
"887 875 LINE SMOOTH",
"918 892 OFFCURVE",
"936 909 OFFCURVE",
"940 930 CURVE",
"944 947 OFFCURVE",
"937 967 OFFCURVE",
"908 967 CURVE SMOOTH",
"879 967 OFFCURVE",
"852 943 OFFCURVE",
"846 936 CURVE",
"706 817 LINE",
"721 786 LINE"
);
}
);
width = 981;
}
);
leftKerningGroup = A;
note = AEacute;
unicode = 01FC;
},
{
glyphname = B;
lastChange = "2015-10-27 10:06:33 +0000";
layers = (
{
layerId = "097E1CCD-D4DB-46B5-97AF-AA821C3DB512";
name = "Bold Italic";
paths = (
{
closed = 1;
nodes = (
"318 0 LINE SMOOTH",
"483 0 OFFCURVE",
"557 68 OFFCURVE",
"583 193 CURVE SMOOTH",
"596 261 OFFCURVE",
"577 344 OFFCURVE",
"468 367 CURVE",
"468 373 LINE",
"559 396 OFFCURVE",
"611 466 OFFCURVE",
"624 536 CURVE SMOOTH",
"646 644 OFFCURVE",
"597 700 OFFCURVE",
"430 700 CURVE SMOOTH",
"130 700 LINE",
"127 683 LINE",
"153 673 OFFCURVE",
"177 667 OFFCURVE",
"200 663 CURVE",
"73 38 LINE",
"50 35 OFFCURVE",
"32 30 OFFCURVE",
"-10 15 CURVE",
"-12 0 LINE"
);
},
{
closed = 1;
nodes = (
"265 345 LINE",
"359 345 LINE SMOOTH",
"439 345 OFFCURVE",
"474 294 OFFCURVE",
"455 198 CURVE SMOOTH",
"435 99 OFFCURVE",
"389 44 OFFCURVE",
"310 44 CURVE SMOOTH",
"204 44 LINE"
);
},
{
closed = 1;
nodes = (
"328 654 LINE",
"405 654 LINE SMOOTH",
"486 654 OFFCURVE",
"510 615 OFFCURVE",
"492 529 CURVE SMOOTH",
"475 445 OFFCURVE",
"425 390 OFFCURVE",
"347 390 CURVE SMOOTH",
"274 390 LINE"
);
}
);
width = 605;
}
);
note = B;
unicode = 0042;
},
{
glyphname = C;
lastChange = "2015-10-27 10:06:33 +0000";
layers = (
{
layerId = "097E1CCD-D4DB-46B5-97AF-AA821C3DB512";
name = "Bold Italic";
paths = (
{
closed = 1;
nodes = (
"412 -10 OFFCURVE",
"494 15 OFFCURVE",
"552 59 CURVE",
"541 96 LINE",
"474 54 OFFCURVE",
"401 37 OFFCURVE",
"353 37 CURVE SMOOTH",
"207 37 OFFCURVE",
"167 161 OFFCURVE",
"205 350 CURVE SMOOTH",
"244 538 OFFCURVE",
"347 663 OFFCURVE",
"492 663 CURVE SMOOTH",
"540 663 OFFCURVE",
"578 649 OFFCURVE",
"606 622 CURVE",
"601 581 OFFCURVE",
"598 528 OFFCURVE",
"602 496 CURVE",
"634 496 LINE",
"673 634 LINE",
"635 681 OFFCURVE",
"574 710 OFFCURVE",
"468 710 CURVE SMOOTH",
"258 710 OFFCURVE",
"118 572 OFFCURVE",
"73 350 CURVE SMOOTH",
"27 127 OFFCURVE",
"108 -10 OFFCURVE",
"324 -10 CURVE SMOOTH"
);
}
);
width = 623;
}
);
leftKerningGroup = C;
note = C;
unicode = 0043;
},
{
glyphname = Cacute;
lastChange = "2015-10-27 10:06:33 +0000";
layers = (
{
layerId = "097E1CCD-D4DB-46B5-97AF-AA821C3DB512";
name = "Bold Italic";
paths = (
{
closed = 1;
nodes = (
"412 -10 OFFCURVE",
"494 15 OFFCURVE",
"552 59 CURVE",
"541 96 LINE",
"474 54 OFFCURVE",
"401 37 OFFCURVE",
"353 37 CURVE SMOOTH",
"207 37 OFFCURVE",
"167 161 OFFCURVE",
"205 350 CURVE SMOOTH",
"244 538 OFFCURVE",
"347 663 OFFCURVE",
"492 663 CURVE SMOOTH",
"540 663 OFFCURVE",
"578 649 OFFCURVE",
"606 622 CURVE",
"601 581 OFFCURVE",
"598 528 OFFCURVE",
"602 496 CURVE",
"634 496 LINE",
"673 634 LINE",
"635 681 OFFCURVE",
"574 710 OFFCURVE",
"468 710 CURVE SMOOTH",
"258 710 OFFCURVE",
"118 572 OFFCURVE",
"73 350 CURVE SMOOTH",
"27 127 OFFCURVE",
"108 -10 OFFCURVE",
"324 -10 CURVE SMOOTH"
);
},
{
closed = 1;
nodes = (
"605 875 LINE SMOOTH",
"636 892 OFFCURVE",
"654 909 OFFCURVE",
"658 930 CURVE",
"661 947 OFFCURVE",
"655 967 OFFCURVE",
"626 967 CURVE SMOOTH",
"597 967 OFFCURVE",
"570 943 OFFCURVE",
"564 936 CURVE",
"423 817 LINE",
"439 786 LINE"
);
}
);
width = 623;
}
);
leftKerningGroup = C;
note = Cacute;
unicode = 0106;
},
{
glyphname = Ccaron;
lastChange = "2015-10-27 10:06:31 +0000";
layers = (
{
layerId = "097E1CCD-D4DB-46B5-97AF-AA821C3DB512";
name = "Bold Italic";
paths = (
{
closed = 1;
nodes = (
"412 -10 OFFCURVE",
"494 15 OFFCURVE",
"552 59 CURVE",
"541 96 LINE",
"474 54 OFFCURVE",
"401 37 OFFCURVE",
"353 37 CURVE SMOOTH",
"207 37 OFFCURVE",
"167 161 OFFCURVE",
"205 350 CURVE SMOOTH",
"244 538 OFFCURVE",
"347 663 OFFCURVE",
"492 663 CURVE SMOOTH",
"540 663 OFFCURVE",
"578 649 OFFCURVE",
"606 622 CURVE",
"601 581 OFFCURVE",
"598 528 OFFCURVE",
"602 496 CURVE",
"634 496 LINE",
"673 634 LINE",
"635 681 OFFCURVE",
"574 710 OFFCURVE",
"468 710 CURVE SMOOTH",
"258 710 OFFCURVE",
"118 572 OFFCURVE",
"73 350 CURVE SMOOTH",
"27 127 OFFCURVE",
"108 -10 OFFCURVE",
"324 -10 CURVE SMOOTH"
);
},
{
closed = 1;
nodes = (
"535 786 LINE",
"567 824 OFFCURVE",
"657 894 OFFCURVE",
"704 922 CURVE",
"660 963 LINE",
"615 932 OFFCURVE",
"549 877 OFFCURVE",
"517 841 CURVE",
"514 841 LINE",
"498 877 OFFCURVE",
"454 932 OFFCURVE",
"421 963 CURVE",
"363 922 LINE",
"397 894 OFFCURVE",
"458 824 OFFCURVE",
"475 786 CURVE"
);
}
);
width = 623;
}
);
leftKerningGroup = C;
note = Ccaron;
unicode = 010C;
},
{
glyphname = Ccedilla;
lastChange = "2015-10-27 10:06:32 +0000";
layers = (
{
layerId = "097E1CCD-D4DB-46B5-97AF-AA821C3DB512";
name = "Bold Italic";
paths = (
{
closed = 1;
nodes = (
"412 -10 OFFCURVE",
"494 15 OFFCURVE",
"552 59 CURVE",
"541 96 LINE",
"474 54 OFFCURVE",
"401 37 OFFCURVE",
"353 37 CURVE SMOOTH",
"207 37 OFFCURVE",
"167 161 OFFCURVE",
"205 350 CURVE SMOOTH",
"244 538 OFFCURVE",
"347 663 OFFCURVE",
"492 663 CURVE SMOOTH",
"540 663 OFFCURVE",
"578 649 OFFCURVE",
"606 622 CURVE",
"601 581 OFFCURVE",
"598 528 OFFCURVE",
"602 496 CURVE",
"634 496 LINE",
"673 634 LINE",
"635 681 OFFCURVE",
"574 710 OFFCURVE",
"468 710 CURVE SMOOTH",
"258 710 OFFCURVE",
"118 572 OFFCURVE",
"73 350 CURVE SMOOTH",
"27 127 OFFCURVE",
"108 -10 OFFCURVE",
"324 -10 CURVE SMOOTH"
);
},
{
closed = 1;
nodes = (
"322 -246 OFFCURVE",
"387 -213 OFFCURVE",
"401 -146 CURVE SMOOTH",
"410 -102 OFFCURVE",
"381 -67 OFFCURVE",
"306 -67 CURVE",
"361 15 LINE",
"304 15 LINE",
"244 -75 LINE",
"260 -107 LINE",
"267 -106 OFFCURVE",
"276 -105 OFFCURVE",
"283 -105 CURVE SMOOTH",
"311 -105 OFFCURVE",
"343 -114 OFFCURVE",
"337 -146 CURVE",
"328 -186 OFFCURVE",
"292 -200 OFFCURVE",
"250 -200 CURVE SMOOTH",
"226 -200 OFFCURVE",
"200 -194 OFFCURVE",
"182 -184 CURVE",
"156 -219 LINE",
"179 -237 OFFCURVE",
"216 -246 OFFCURVE",
"250 -246 CURVE SMOOTH"
);
}
);
width = 623;
}
);
leftKerningGroup = C;
note = Ccedilla;
unicode = 00C7;
},
{
glyphname = Ccircumflex;
lastChange = "2015-10-27 10:06:32 +0000";
layers = (
{
layerId = "097E1CCD-D4DB-46B5-97AF-AA821C3DB512";
name = "Bold Italic";
paths = (
{
closed = 1;
nodes = (
"412 -10 OFFCURVE",
"494 15 OFFCURVE",
"552 59 CURVE",
"541 96 LINE",
"474 54 OFFCURVE",
"401 37 OFFCURVE",
"353 37 CURVE SMOOTH",
"207 37 OFFCURVE",
"167 161 OFFCURVE",
"205 350 CURVE SMOOTH",
"244 538 OFFCURVE",
"347 663 OFFCURVE",
"492 663 CURVE SMOOTH",
"540 663 OFFCURVE",
"578 649 OFFCURVE",
"606 622 CURVE",
"601 581 OFFCURVE",
"598 528 OFFCURVE",
"602 496 CURVE",
"634 496 LINE",
"673 634 LINE",
"635 681 OFFCURVE",
"574 710 OFFCURVE",
"468 710 CURVE SMOOTH",
"258 710 OFFCURVE",
"118 572 OFFCURVE",
"73 350 CURVE SMOOTH",
"27 127 OFFCURVE",
"108 -10 OFFCURVE",
"324 -10 CURVE SMOOTH"
);
},
{
closed = 1;
nodes = (
"420 813 OFFCURVE",
"487 868 OFFCURVE",
"517 904 CURVE",
"521 904 LINE",
"538 868 OFFCURVE",
"581 813 OFFCURVE",
"613 782 CURVE",
"673 823 LINE",
"637 851 OFFCURVE",
"578 922 OFFCURVE",
"560 959 CURVE",
"500 959 LINE",
"468 922 OFFCURVE",
"378 851 OFFCURVE",
"332 823 CURVE",
"376 782 LINE"
);
}
);
width = 623;
}
);
leftKerningGroup = C;
note = Ccircumflex;
unicode = 0108;
},
{
glyphname = Cdotaccent;
lastChange = "2015-10-27 10:06:30 +0000";
layers = (
{
layerId = "097E1CCD-D4DB-46B5-97AF-AA821C3DB512";
name = "Bold Italic";
paths = (
{
closed = 1;
nodes = (
"412 -10 OFFCURVE",
"494 15 OFFCURVE",
"552 59 CURVE",
"541 96 LINE",
"474 54 OFFCURVE",
"401 37 OFFCURVE",
"353 37 CURVE SMOOTH",
"207 37 OFFCURVE",
"167 161 OFFCURVE",
"205 350 CURVE SMOOTH",
"244 538 OFFCURVE",
"347 663 OFFCURVE",
"492 663 CURVE SMOOTH",
"540 663 OFFCURVE",
"578 649 OFFCURVE",
"606 622 CURVE",
"601 581 OFFCURVE",
"598 528 OFFCURVE",
"602 496 CURVE",
"634 496 LINE",
"673 634 LINE",
"635 681 OFFCURVE",
"574 710 OFFCURVE",
"468 710 CURVE SMOOTH",
"258 710 OFFCURVE",
"118 572 OFFCURVE",
"73 350 CURVE SMOOTH",
"27 127 OFFCURVE",
"108 -10 OFFCURVE",
"324 -10 CURVE SMOOTH"
);
},
{
closed = 1;
nodes = (
"537 785 OFFCURVE",
"564 809 OFFCURVE",
"569 841 CURVE SMOOTH",
"576 874 OFFCURVE",
"560 898 OFFCURVE",
"528 898 CURVE SMOOTH",
"494 898 OFFCURVE",
"469 874 OFFCURVE",
"463 841 CURVE SMOOTH",
"457 809 OFFCURVE",
"471 785 OFFCURVE",
"505 785 CURVE SMOOTH"
);
}
);
width = 623;
}
);
leftKerningGroup = C;
note = Cdotaccent;
unicode = 010A;
},
{
glyphname = D;
lastChange = "2015-10-27 10:06:30 +0000";
layers = (
{
layerId = "097E1CCD-D4DB-46B5-97AF-AA821C3DB512";
name = "Bold Italic";
paths = (
{
closed = 1;
nodes = (
"300 0 LINE SMOOTH",
"513 0 OFFCURVE",
"624 127 OFFCURVE",
"670 350 CURVE SMOOTH",
"715 573 OFFCURVE",
"656 700 OFFCURVE",
"444 700 CURVE SMOOTH",
"135 700 LINE",
"132 684 LINE",
"156 675 OFFCURVE",
"180 668 OFFCURVE",
"204 663 CURVE",
"76 37 LINE",
"54 34 OFFCURVE",
"23 25 OFFCURVE",
"-4 17 CURVE",
"-7 0 LINE"
);
},
{
closed = 1;
nodes = (
"331 654 LINE",
"434 654 LINE SMOOTH",
"560 654 OFFCURVE",
"575 532 OFFCURVE",
"538 350 CURVE SMOOTH",
"500 167 OFFCURVE",
"435 44 OFFCURVE",
"307 44 CURVE SMOOTH",
"206 44 LINE"
);
}
);
width = 672;
}
);
note = D;
rightKerningGroup = D;
unicode = 0044;
},
{
glyphname = Eth;
lastChange = "2015-10-27 10:06:30 +0000";
layers = (
{
layerId = "097E1CCD-D4DB-46B5-97AF-AA821C3DB512";
name = "Bold Italic";
paths = (
{
closed = 1;
nodes = (
"300 0 LINE SMOOTH",
"513 0 OFFCURVE",
"624 127 OFFCURVE",
"670 350 CURVE SMOOTH",
"715 573 OFFCURVE",
"656 700 OFFCURVE",
"444 700 CURVE SMOOTH",
"135 700 LINE",
"132 684 LINE",
"156 675 OFFCURVE",
"180 668 OFFCURVE",
"204 663 CURVE",
"76 37 LINE",
"54 34 OFFCURVE",
"23 25 OFFCURVE",
"-4 17 CURVE",
"-7 0 LINE"
);
},
{
closed = 1;
nodes = (
"407 311 LINE",
"416 355 LINE",
"77 355 LINE",
"68 311 LINE"
);
},
{
closed = 1;
nodes = (
"331 654 LINE",
"434 654 LINE SMOOTH",
"560 654 OFFCURVE",
"575 532 OFFCURVE",
"538 350 CURVE SMOOTH",
"500 167 OFFCURVE",
"435 44 OFFCURVE",
"307 44 CURVE SMOOTH",
"206 44 LINE"
);
}
);
width = 673;
}
);
note = Eth;
rightKerningGroup = D;
unicode = 00D0;
},
{
glyphname = Dcaron;
lastChange = "2015-10-27 10:06:30 +0000";
layers = (
{
layerId = "097E1CCD-D4DB-46B5-97AF-AA821C3DB512";
name = "Bold Italic";
paths = (
{
closed = 1;
nodes = (
"300 0 LINE SMOOTH",
"513 0 OFFCURVE",
"624 127 OFFCURVE",
"670 350 CURVE SMOOTH",
"715 573 OFFCURVE",
"656 700 OFFCURVE",
"444 700 CURVE SMOOTH",
"135 700 LINE",
"132 684 LINE",
"156 675 OFFCURVE",
"180 668 OFFCURVE",
"204 663 CURVE",
"76 37 LINE",
"54 34 OFFCURVE",
"23 25 OFFCURVE",
"-4 17 CURVE",
"-7 0 LINE"
);
},
{
closed = 1;
nodes = (
"331 654 LINE",
"434 654 LINE SMOOTH",
"560 654 OFFCURVE",
"575 532 OFFCURVE",
"538 350 CURVE SMOOTH",
"500 167 OFFCURVE",
"435 44 OFFCURVE",
"307 44 CURVE SMOOTH",
"206 44 LINE"
);
},
{
closed = 1;
nodes = (
"479 786 LINE",
"512 824 OFFCURVE",
"601 894 OFFCURVE",
"648 922 CURVE",
"604 963 LINE",
"560 932 OFFCURVE",
"493 877 OFFCURVE",
"462 841 CURVE",
"458 841 LINE",
"443 877 OFFCURVE",
"398 932 OFFCURVE",
"366 963 CURVE",
"307 922 LINE",
"342 894 OFFCURVE",
"402 824 OFFCURVE",
"420 786 CURVE"
);
}
);
width = 672;
}
);
note = Dcaron;
rightKerningGroup = D;
unicode = 010E;
},
{
glyphname = Dcroat;
lastChange = "2015-10-27 10:06:31 +0000";
layers = (
{
layerId = "097E1CCD-D4DB-46B5-97AF-AA821C3DB512";
name = "Bold Italic";
paths = (
{
closed = 1;
nodes = (
"300 0 LINE SMOOTH",
"513 0 OFFCURVE",
"624 127 OFFCURVE",
"670 350 CURVE SMOOTH",
"715 573 OFFCURVE",
"656 700 OFFCURVE",
"444 700 CURVE SMOOTH",
"135 700 LINE",
"132 684 LINE",
"156 675 OFFCURVE",
"180 668 OFFCURVE",
"204 663 CURVE",
"76 37 LINE",
"54 34 OFFCURVE",
"23 25 OFFCURVE",
"-4 17 CURVE",
"-7 0 LINE"
);
},
{
closed = 1;
nodes = (
"407 311 LINE",
"416 355 LINE",
"77 355 LINE",
"68 311 LINE"
);
},
{
closed = 1;
nodes = (
"331 654 LINE",
"434 654 LINE SMOOTH",
"560 654 OFFCURVE",
"575 532 OFFCURVE",
"538 350 CURVE SMOOTH",
"500 167 OFFCURVE",
"435 44 OFFCURVE",
"307 44 CURVE SMOOTH",
"206 44 LINE"
);
}
);
width = 672;
}
);
note = Dcroat;
rightKerningGroup = D;
unicode = 0110;
},
{
glyphname = Ddotbelow;
lastChange = "2015-10-27 10:06:32 +0000";
layers = (
{
layerId = "097E1CCD-D4DB-46B5-97AF-AA821C3DB512";
name = "Bold Italic";
paths = (
{
closed = 1;
nodes = (
"300 0 LINE SMOOTH",
"513 0 OFFCURVE",
"624 127 OFFCURVE",
"670 350 CURVE SMOOTH",
"715 573 OFFCURVE",
"656 700 OFFCURVE",
"444 700 CURVE SMOOTH",
"135 700 LINE",
"132 684 LINE",
"156 675 OFFCURVE",
"180 668 OFFCURVE",
"204 663 CURVE",
"76 37 LINE",
"54 34 OFFCURVE",
"23 25 OFFCURVE",
"-4 17 CURVE",
"-7 0 LINE"
);
},
{
closed = 1;
nodes = (
"290 -169 OFFCURVE",
"316 -145 OFFCURVE",
"322 -113 CURVE SMOOTH",
"328 -80 OFFCURVE",
"313 -56 OFFCURVE",
"280 -56 CURVE SMOOTH",
"248 -56 OFFCURVE",
"221 -80 OFFCURVE",
"214 -113 CURVE SMOOTH",
"208 -145 OFFCURVE",
"225 -169 OFFCURVE",
"257 -169 CURVE SMOOTH"
);
},
{
closed = 1;
nodes = (
"331 654 LINE",
"434 654 LINE SMOOTH",
"560 654 OFFCURVE",
"575 532 OFFCURVE",
"538 350 CURVE SMOOTH",
"500 167 OFFCURVE",
"435 44 OFFCURVE",
"307 44 CURVE SMOOTH",
"206 44 LINE"
);
}
);
width = 672;
}
);
note = Ddotbelow;
rightKerningGroup = D;
unicode = 1E0C;
},
{
glyphname = Dlinebelow;
lastChange = "2015-10-27 10:06:33 +0000";
layers = (
{
layerId = "097E1CCD-D4DB-46B5-97AF-AA821C3DB512";
name = "Bold Italic";
paths = (
{
closed = 1;
nodes = (
"300 0 LINE SMOOTH",
"513 0 OFFCURVE",
"624 127 OFFCURVE",
"670 350 CURVE SMOOTH",
"715 573 OFFCURVE",
"656 700 OFFCURVE",
"444 700 CURVE SMOOTH",
"135 700 LINE",
"132 684 LINE",
"156 675 OFFCURVE",
"180 668 OFFCURVE",
"204 663 CURVE",
"76 37 LINE",
"54 34 OFFCURVE",
"23 25 OFFCURVE",
"-4 17 CURVE",
"-7 0 LINE"
);
},
{
closed = 1;
nodes = (
"438 -107 LINE",
"446 -64 LINE",
"91 -64 LINE",
"83 -107 LINE"
);
},
{
closed = 1;
nodes = (
"331 654 LINE",
"434 654 LINE SMOOTH",
"560 654 OFFCURVE",
"575 532 OFFCURVE",
"538 350 CURVE SMOOTH",
"500 167 OFFCURVE",
"435 44 OFFCURVE",
"307 44 CURVE SMOOTH",
"206 44 LINE"
);
}
);
width = 672;
}
);
note = Dlinebelow;
rightKerningGroup = D;
unicode = 1E0E;
},
{
glyphname = E;
lastChange = "2015-10-27 10:06:31 +0000";
layers = (
{
layerId = "097E1CCD-D4DB-46B5-97AF-AA821C3DB512";
name = "Bold Italic";
paths = (
{
closed = 1;
nodes = (
"523 0 LINE",
"573 165 LINE",
"544 165 LINE",
"525 144 OFFCURVE",
"485 78 OFFCURVE",
"475 44 CURVE",
"214 44 LINE",
"339 654 LINE",
"595 654 LINE",
"590 625 OFFCURVE",
"595 555 OFFCURVE",
"604 533 CURVE",
"633 533 LINE",
"666 700 LINE",
"135 700 LINE",
"132 684 LINE",
"157 675 OFFCURVE",
"185 667 OFFCURVE",
"209 663 CURVE",
"82 37 LINE",
"57 34 OFFCURVE",
"23 25 OFFCURVE",
"-4 16 CURVE",
"-7 0 LINE"
);
},
{
closed = 1;
nodes = (
"471 237 LINE",
"516 453 LINE",
"494 453 LINE",
"478 426 OFFCURVE",
"464 386 OFFCURVE",
"458 368 CURVE",
"198 368 LINE",
"188 322 LINE",
"448 322 LINE",
"446 305 OFFCURVE",
"445 265 OFFCURVE",
"450 237 CURVE"
);
}
);
width = 618;
}
);
note = E;
unicode = 0045;
},
{
glyphname = Eacute;
lastChange = "2015-10-27 10:06:31 +0000";
layers = (
{
layerId = "097E1CCD-D4DB-46B5-97AF-AA821C3DB512";
name = "Bold Italic";
paths = (
{
closed = 1;
nodes = (
"523 0 LINE",
"573 165 LINE",
"544 165 LINE",
"525 144 OFFCURVE",
"485 78 OFFCURVE",
"475 44 CURVE",
"214 44 LINE",
"339 654 LINE",
"595 654 LINE",
"590 625 OFFCURVE",
"595 555 OFFCURVE",
"604 533 CURVE",
"633 533 LINE",
"666 700 LINE",
"135 700 LINE",
"132 684 LINE",
"157 675 OFFCURVE",
"185 667 OFFCURVE",
"209 663 CURVE",
"82 37 LINE",
"57 34 OFFCURVE",
"23 25 OFFCURVE",
"-4 16 CURVE",
"-7 0 LINE"
);
},
{
closed = 1;
nodes = (
"471 237 LINE",
"516 453 LINE",
"494 453 LINE",
"478 426 OFFCURVE",
"464 386 OFFCURVE",
"458 368 CURVE",
"198 368 LINE",
"188 322 LINE",
"448 322 LINE",
"446 305 OFFCURVE",
"445 265 OFFCURVE",
"450 237 CURVE"
);
},
{
closed = 1;
nodes = (
"546 875 LINE SMOOTH",
"577 892 OFFCURVE",
"595 909 OFFCURVE",
"599 930 CURVE",
"603 947 OFFCURVE",
"596 967 OFFCURVE",
"567 967 CURVE SMOOTH",
"539 967 OFFCURVE",
"512 943 OFFCURVE",
"505 936 CURVE",
"365 817 LINE",
"380 786 LINE"
);
}
);
width = 618;
}
);
note = Eacute;
unicode = 00C9;
},
{
glyphname = Ebreve;
lastChange = "2015-10-27 10:06:30 +0000";
layers = (
{
layerId = "097E1CCD-D4DB-46B5-97AF-AA821C3DB512";
name = "Bold Italic";
paths = (
{
closed = 1;
nodes = (
"523 0 LINE",
"573 165 LINE",
"544 165 LINE",
"525 144 OFFCURVE",
"485 78 OFFCURVE",
"475 44 CURVE",
"214 44 LINE",
"339 654 LINE",
"595 654 LINE",
"590 625 OFFCURVE",
"595 555 OFFCURVE",
"604 533 CURVE",
"633 533 LINE",
"666 700 LINE",
"135 700 LINE",
"132 684 LINE",
"157 675 OFFCURVE",
"185 667 OFFCURVE",
"209 663 CURVE",
"82 37 LINE",
"57 34 OFFCURVE",
"23 25 OFFCURVE",
"-4 16 CURVE",
"-7 0 LINE"
);
},
{
closed = 1;
nodes = (
"471 237 LINE",
"516 453 LINE",
"494 453 LINE",
"478 426 OFFCURVE",
"464 386 OFFCURVE",
"458 368 CURVE",
"198 368 LINE",
"188 322 LINE",
"448 322 LINE",
"446 305 OFFCURVE",
"445 265 OFFCURVE",
"450 237 CURVE"
);
},
{
closed = 1;
nodes = (
"559 780 OFFCURVE",
"631 822 OFFCURVE",
"661 911 CURVE",
"588 911 LINE",
"565 837 OFFCURVE",
"518 827 OFFCURVE",
"479 827 CURVE SMOOTH",
"440 827 OFFCURVE",
"396 837 OFFCURVE",
"403 911 CURVE",
"331 911 LINE",
"326 822 OFFCURVE",
"379 780 OFFCURVE",
"469 780 CURVE SMOOTH"
);
}
);
width = 618;
}
);
note = Ebreve;
unicode = 0114;
},
{
glyphname = Ecaron;
lastChange = "2015-10-27 10:06:31 +0000";
layers = (
{
layerId = "097E1CCD-D4DB-46B5-97AF-AA821C3DB512";
name = "Bold Italic";
paths = (
{
closed = 1;
nodes = (
"523 0 LINE",
"573 165 LINE",
"544 165 LINE",
"525 144 OFFCURVE",
"485 78 OFFCURVE",
"475 44 CURVE",
"214 44 LINE",
"339 654 LINE",
"595 654 LINE",
"590 625 OFFCURVE",
"595 555 OFFCURVE",
"604 533 CURVE",
"633 533 LINE",
"666 700 LINE",
"135 700 LINE",
"132 684 LINE",
"157 675 OFFCURVE",
"185 667 OFFCURVE",
"209 663 CURVE",
"82 37 LINE",
"57 34 OFFCURVE",
"23 25 OFFCURVE",
"-4 16 CURVE",
"-7 0 LINE"
);
},
{
closed = 1;
nodes = (
"471 237 LINE",
"516 453 LINE",
"494 453 LINE",
"478 426 OFFCURVE",
"464 386 OFFCURVE",
"458 368 CURVE",
"198 368 LINE",
"188 322 LINE",
"448 322 LINE",
"446 305 OFFCURVE",
"445 265 OFFCURVE",
"450 237 CURVE"
);
},
{
closed = 1;
nodes = (
"497 786 LINE",
"530 824 OFFCURVE",
"619 894 OFFCURVE",
"666 922 CURVE",
"622 963 LINE",
"578 932 OFFCURVE",
"512 877 OFFCURVE",
"480 841 CURVE",
"476 841 LINE",
"461 877 OFFCURVE",
"417 932 OFFCURVE",
"384 963 CURVE",
"325 922 LINE",
"360 894 OFFCURVE",
"420 824 OFFCURVE",
"438 786 CURVE"
);
}
);
width = 618;
}
);
note = Ecaron;
unicode = 011A;
},
{
glyphname = Ecircumflex;
lastChange = "2015-10-27 10:06:32 +0000";
layers = (
{
layerId = "097E1CCD-D4DB-46B5-97AF-AA821C3DB512";
name = "Bold Italic";
paths = (
{
closed = 1;
nodes = (
"523 0 LINE",
"573 165 LINE",
"544 165 LINE",
"525 144 OFFCURVE",
"485 78 OFFCURVE",
"475 44 CURVE",
"214 44 LINE",
"339 654 LINE",
"595 654 LINE",
"590 625 OFFCURVE",
"595 555 OFFCURVE",
"604 533 CURVE",
"633 533 LINE",
"666 700 LINE",
"135 700 LINE",
"132 684 LINE",
"157 675 OFFCURVE",
"185 667 OFFCURVE",
"209 663 CURVE",
"82 37 LINE",
"57 34 OFFCURVE",
"23 25 OFFCURVE",
"-4 16 CURVE",
"-7 0 LINE"
);
},
{
closed = 1;
nodes = (
"471 237 LINE",
"516 453 LINE",
"494 453 LINE",
"478 426 OFFCURVE",
"464 386 OFFCURVE",
"458 368 CURVE",
"198 368 LINE",
"188 322 LINE",
"448 322 LINE",
"446 305 OFFCURVE",
"445 265 OFFCURVE",
"450 237 CURVE"
);
},
{
closed = 1;
nodes = (
"390 813 OFFCURVE",
"457 868 OFFCURVE",
"488 904 CURVE",
"492 904 LINE",
"508 868 OFFCURVE",
"551 813 OFFCURVE",
"584 782 CURVE",
"643 823 LINE",
"608 851 OFFCURVE",
"548 922 OFFCURVE",
"530 959 CURVE",
"470 959 LINE",
"439 922 OFFCURVE",
"348 851 OFFCURVE",
"302 823 CURVE",
"347 782 LINE"
);
}
);
width = 618;
}
);
note = Ecircumflex;
unicode = 00CA;
},
{
glyphname = Ecircumflexacute;
lastChange = "2015-10-27 10:06:32 +0000";
layers = (
{
layerId = "097E1CCD-D4DB-46B5-97AF-AA821C3DB512";
name = "Bold Italic";
paths = (
{
closed = 1;
nodes = (
"523 0 LINE",
"573 165 LINE",
"544 165 LINE",
"525 144 OFFCURVE",
"485 78 OFFCURVE",
"475 44 CURVE",
"214 44 LINE",
"339 654 LINE",
"595 654 LINE",
"590 625 OFFCURVE",
"595 555 OFFCURVE",
"604 533 CURVE",
"633 533 LINE",
"666 700 LINE",
"135 700 LINE",
"132 684 LINE",
"157 675 OFFCURVE",
"185 667 OFFCURVE",
"209 663 CURVE",
"82 37 LINE",
"57 34 OFFCURVE",
"23 25 OFFCURVE",
"-4 16 CURVE",
"-7 0 LINE"
);
},
{
closed = 1;
nodes = (
"471 237 LINE",
"516 453 LINE",
"494 453 LINE",
"478 426 OFFCURVE",
"464 386 OFFCURVE",
"458 368 CURVE",
"198 368 LINE",
"188 322 LINE",
"448 322 LINE",
"446 305 OFFCURVE",
"445 265 OFFCURVE",
"450 237 CURVE"
);
},
{
closed = 1;
nodes = (
"376 813 OFFCURVE",
"442 868 OFFCURVE",
"473 904 CURVE",
"477 904 LINE",
"493 868 OFFCURVE",
"537 813 OFFCURVE",
"569 782 CURVE",
"628 823 LINE",
"594 851 OFFCURVE",
"534 922 OFFCURVE",
"516 959 CURVE",
"456 959 LINE",
"424 922 OFFCURVE",
"334 851 OFFCURVE",
"287 823 CURVE",
"332 782 LINE"
);
},
{
closed = 1;
nodes = (
"715 967 LINE SMOOTH",
"757 987 OFFCURVE",
"780 1012 OFFCURVE",
"784 1033 CURVE",
"788 1050 OFFCURVE",
"779 1066 OFFCURVE",
"756 1066 CURVE SMOOTH",
"734 1066 OFFCURVE",
"708 1051 OFFCURVE",
"679 1024 CURVE SMOOTH",
"592 942 LINE",
"606 915 LINE"
);
}
);
width = 618;
}
);
note = Ecircumflexacute;
unicode = 1EBE;
},
{
glyphname = Ecircumflexdotbelow;
lastChange = "2015-10-27 10:06:33 +0000";
layers = (
{
layerId = "097E1CCD-D4DB-46B5-97AF-AA821C3DB512";
name = "Bold Italic";
paths = (
{
closed = 1;
nodes = (
"523 0 LINE",
"573 165 LINE",
"544 165 LINE",
"525 144 OFFCURVE",
"485 78 OFFCURVE",
"475 44 CURVE",
"214 44 LINE",
"339 654 LINE",
"595 654 LINE",
"590 625 OFFCURVE",
"595 555 OFFCURVE",
"604 533 CURVE",
"633 533 LINE",
"666 700 LINE",
"135 700 LINE",
"132 684 LINE",
"157 675 OFFCURVE",
"185 667 OFFCURVE",
"209 663 CURVE",
"82 37 LINE",
"57 34 OFFCURVE",
"23 25 OFFCURVE",
"-4 16 CURVE",
"-7 0 LINE"
);
},
{
closed = 1;
nodes = (
"292 -169 OFFCURVE",
"318 -145 OFFCURVE",
"324 -113 CURVE SMOOTH",
"330 -80 OFFCURVE",
"315 -56 OFFCURVE",
"282 -56 CURVE SMOOTH",
"250 -56 OFFCURVE",
"223 -80 OFFCURVE",
"216 -113 CURVE SMOOTH",
"210 -145 OFFCURVE",
"227 -169 OFFCURVE",
"259 -169 CURVE SMOOTH"
);
},
{
closed = 1;
nodes = (
"471 237 LINE",
"516 453 LINE",
"494 453 LINE",
"478 426 OFFCURVE",
"464 386 OFFCURVE",
"458 368 CURVE",
"198 368 LINE",
"188 322 LINE",
"448 322 LINE",
"446 305 OFFCURVE",
"445 265 OFFCURVE",
"450 237 CURVE"
);
},
{
closed = 1;
nodes = (
"374 813 OFFCURVE",
"442 868 OFFCURVE",
"472 904 CURVE",
"476 904 LINE",
"492 868 OFFCURVE",
"536 813 OFFCURVE",
"568 782 CURVE",
"628 823 LINE",
"592 851 OFFCURVE",
"533 922 OFFCURVE",
"515 959 CURVE",
"455 959 LINE",
"423 922 OFFCURVE",
"333 851 OFFCURVE",
"287 823 CURVE",
"331 782 LINE"
);
}
);
width = 618;
}
);
note = Ecircumflexdotbelow;
unicode = 1EC6;
},
{
glyphname = Ecircumflexgrave;
lastChange = "2015-10-27 10:06:30 +0000";
layers = (
{
layerId = "097E1CCD-D4DB-46B5-97AF-AA821C3DB512";
name = "Bold Italic";
paths = (
{
closed = 1;
nodes = (
"523 0 LINE",
"573 165 LINE",
"544 165 LINE",
"525 144 OFFCURVE",
"485 78 OFFCURVE",
"475 44 CURVE",
"214 44 LINE",
"339 654 LINE",
"595 654 LINE",
"590 625 OFFCURVE",
"595 555 OFFCURVE",
"604 533 CURVE",
"633 533 LINE",
"666 700 LINE",
"135 700 LINE",
"132 684 LINE",
"157 675 OFFCURVE",
"185 667 OFFCURVE",
"209 663 CURVE",
"82 37 LINE",
"57 34 OFFCURVE",
"23 25 OFFCURVE",
"-4 16 CURVE",
"-7 0 LINE"
);
},
{
closed = 1;
nodes = (
"471 237 LINE",
"516 453 LINE",
"494 453 LINE",
"478 426 OFFCURVE",
"464 386 OFFCURVE",
"458 368 CURVE",
"198 368 LINE",
"188 322 LINE",
"448 322 LINE",
"446 305 OFFCURVE",
"445 265 OFFCURVE",
"450 237 CURVE"
);
},
{
closed = 1;
nodes = (
"376 942 LINE",
"323 1024 LINE SMOOTH",
"304 1051 OFFCURVE",
"283 1066 OFFCURVE",
"262 1066 CURVE SMOOTH",
"239 1066 OFFCURVE",
"224 1050 OFFCURVE",
"220 1033 CURVE",
"216 1012 OFFCURVE",
"229 988 OFFCURVE",
"263 967 CURVE SMOOTH",
"350 915 LINE"
);
},
{
closed = 1;
nodes = (
"376 813 OFFCURVE",
"442 868 OFFCURVE",
"473 904 CURVE",
"477 904 LINE",
"493 868 OFFCURVE",
"537 813 OFFCURVE",
"569 782 CURVE",
"628 823 LINE",
"594 851 OFFCURVE",
"534 922 OFFCURVE",
"516 959 CURVE",
"456 959 LINE",
"424 922 OFFCURVE",
"334 851 OFFCURVE",
"287 823 CURVE",
"332 782 LINE"
);
}
);
width = 618;
}
);
note = Ecircumflexgrave;
unicode = 1EC0;
},
{
glyphname = Ecircumflexhookabove;
lastChange = "2015-10-27 10:06:33 +0000";
layers = (
{
layerId = "097E1CCD-D4DB-46B5-97AF-AA821C3DB512";
name = "Bold Italic";
paths = (
{
closed = 1;
nodes = (
"523 0 LINE",
"573 165 LINE",
"544 165 LINE",
"525 144 OFFCURVE",
"485 78 OFFCURVE",
"475 44 CURVE",
"214 44 LINE",
"339 654 LINE",
"595 654 LINE",
"590 625 OFFCURVE",
"595 555 OFFCURVE",
"604 533 CURVE",
"633 533 LINE",
"666 700 LINE",
"135 700 LINE",
"132 684 LINE",
"157 675 OFFCURVE",
"185 667 OFFCURVE",
"209 663 CURVE",
"82 37 LINE",
"57 34 OFFCURVE",
"23 25 OFFCURVE",
"-4 16 CURVE",
"-7 0 LINE"
);
},
{
closed = 1;
nodes = (
"471 237 LINE",
"516 453 LINE",
"494 453 LINE",
"478 426 OFFCURVE",
"464 386 OFFCURVE",
"458 368 CURVE",
"198 368 LINE",
"188 322 LINE",
"448 322 LINE",
"446 305 OFFCURVE",
"445 265 OFFCURVE",
"450 237 CURVE"
);
},
{
closed = 1;
nodes = (
"376 813 OFFCURVE",
"442 868 OFFCURVE",
"473 904 CURVE",
"477 904 LINE",
"493 868 OFFCURVE",
"537 813 OFFCURVE",
"569 782 CURVE",
"628 823 LINE",
"594 851 OFFCURVE",
"534 922 OFFCURVE",
"516 959 CURVE",
"456 959 LINE",
"424 922 OFFCURVE",
"334 851 OFFCURVE",
"287 823 CURVE",
"332 782 LINE"
);
},
{
closed = 1;
nodes = (
"633 918 LINE",
"652 969 LINE",
"696 973 OFFCURVE",
"732 992 OFFCURVE",
"743 1040 CURVE SMOOTH",
"754 1093 OFFCURVE",
"709 1114 OFFCURVE",
"661 1114 CURVE SMOOTH",
"635 1114 OFFCURVE",
"608 1107 OFFCURVE",
"590 1100 CURVE",
"589 1067 LINE",
"607 1075 OFFCURVE",
"627 1079 OFFCURVE",
"642 1079 CURVE SMOOTH",
"676 1079 OFFCURVE",
"689 1062 OFFCURVE",
"685 1041 CURVE SMOOTH",
"679 1010 OFFCURVE",
"653 997 OFFCURVE",
"626 997 CURVE SMOOTH",
"598 997 LINE",
"588 918 LINE"
);
}
);
width = 618;
}
);
note = Ecircumflexhookabove;
unicode = 1EC2;
},
{
glyphname = Ecircumflextilde;
lastChange = "2015-10-27 10:06:31 +0000";
layers = (
{
layerId = "097E1CCD-D4DB-46B5-97AF-AA821C3DB512";
name = "Bold Italic";
paths = (
{
closed = 1;
nodes = (
"523 0 LINE",
"573 165 LINE",
"544 165 LINE",
"525 144 OFFCURVE",
"485 78 OFFCURVE",
"475 44 CURVE",
"214 44 LINE",
"339 654 LINE",
"595 654 LINE",
"590 625 OFFCURVE",
"595 555 OFFCURVE",
"604 533 CURVE",
"633 533 LINE",
"666 700 LINE",
"135 700 LINE",
"132 684 LINE",
"157 675 OFFCURVE",
"185 667 OFFCURVE",
"209 663 CURVE",
"82 37 LINE",
"57 34 OFFCURVE",
"23 25 OFFCURVE",
"-4 16 CURVE",
"-7 0 LINE"
);
},
{
closed = 1;
nodes = (
"471 237 LINE",
"516 453 LINE",
"494 453 LINE",
"478 426 OFFCURVE",
"464 386 OFFCURVE",
"458 368 CURVE",
"198 368 LINE",
"188 322 LINE",
"448 322 LINE",
"446 305 OFFCURVE",
"445 265 OFFCURVE",
"450 237 CURVE"
);
},
{
closed = 1;
nodes = (
"376 813 OFFCURVE",
"442 868 OFFCURVE",
"473 904 CURVE",
"477 904 LINE",
"493 868 OFFCURVE",
"537 813 OFFCURVE",
"569 782 CURVE",
"628 823 LINE",
"594 851 OFFCURVE",
"534 922 OFFCURVE",
"516 959 CURVE",
"456 959 LINE",
"424 922 OFFCURVE",
"334 851 OFFCURVE",
"287 823 CURVE",
"332 782 LINE"
);
},
{
closed = 1;
nodes = (
"365 988 LINE",
"378 1021 OFFCURVE",
"406 1042 OFFCURVE",
"436 1042 CURVE SMOOTH",
"476 1042 OFFCURVE",
"514 989 OFFCURVE",
"567 989 CURVE SMOOTH",
"634 989 OFFCURVE",
"676 1033 OFFCURVE",
"698 1101 CURVE",
"655 1101 LINE",
"636 1057 OFFCURVE",
"603 1045 OFFCURVE",
"579 1045 CURVE SMOOTH",
"540 1045 OFFCURVE",
"515 1098 OFFCURVE",
"451 1098 CURVE SMOOTH",
"391 1098 OFFCURVE",
"345 1062 OFFCURVE",
"321 988 CURVE"
);
}
);
width = 618;
}
);
note = Ecircumflextilde;
unicode = 1EC4;
},
{
glyphname = Edieresis;
lastChange = "2015-10-27 10:06:33 +0000";
layers = (
{
layerId = "097E1CCD-D4DB-46B5-97AF-AA821C3DB512";
name = "Bold Italic";
paths = (
{
closed = 1;
nodes = (
"523 0 LINE",
"573 165 LINE",
"544 165 LINE",
"525 144 OFFCURVE",
"485 78 OFFCURVE",
"475 44 CURVE",
"214 44 LINE",
"339 654 LINE",
"595 654 LINE",
"590 625 OFFCURVE",
"595 555 OFFCURVE",
"604 533 CURVE",
"633 533 LINE",
"666 700 LINE",
"135 700 LINE",
"132 684 LINE",
"157 675 OFFCURVE",
"185 667 OFFCURVE",
"209 663 CURVE",
"82 37 LINE",
"57 34 OFFCURVE",
"23 25 OFFCURVE",
"-4 16 CURVE",
"-7 0 LINE"
);
},
{
closed = 1;
nodes = (
"471 237 LINE",
"516 453 LINE",
"494 453 LINE",
"478 426 OFFCURVE",
"464 386 OFFCURVE",
"458 368 CURVE",
"198 368 LINE",
"188 322 LINE",
"448 322 LINE",
"446 305 OFFCURVE",
"445 265 OFFCURVE",
"450 237 CURVE"
);
},
{
closed = 1;
nodes = (
"393 785 OFFCURVE",
"420 809 OFFCURVE",
"425 841 CURVE SMOOTH",
"432 874 OFFCURVE",
"416 898 OFFCURVE",
"382 898 CURVE SMOOTH",
"351 898 OFFCURVE",
"325 874 OFFCURVE",
"319 841 CURVE SMOOTH",
"313 809 OFFCURVE",
"328 785 OFFCURVE",
"359 785 CURVE SMOOTH"
);
},
{
closed = 1;
nodes = (
"616 785 OFFCURVE",
"643 809 OFFCURVE",
"649 841 CURVE SMOOTH",
"656 874 OFFCURVE",
"639 898 OFFCURVE",
"607 898 CURVE SMOOTH",
"573 898 OFFCURVE",
"548 874 OFFCURVE",
"541 841 CURVE SMOOTH",
"536 809 OFFCURVE",
"550 785 OFFCURVE",
"584 785 CURVE SMOOTH"
);
}
);
width = 618;
}
);
note = Edieresis;
unicode = 00CB;
},
{
glyphname = Edotaccent;
lastChange = "2015-10-27 10:06:31 +0000";
layers = (
{
layerId = "097E1CCD-D4DB-46B5-97AF-AA821C3DB512";
name = "Bold Italic";
paths = (
{
closed = 1;
nodes = (
"523 0 LINE",
"573 165 LINE",
"544 165 LINE",
"525 144 OFFCURVE",
"485 78 OFFCURVE",
"475 44 CURVE",
"214 44 LINE",
"339 654 LINE",
"595 654 LINE",
"590 625 OFFCURVE",
"595 555 OFFCURVE",
"604 533 CURVE",
"633 533 LINE",
"666 700 LINE",
"135 700 LINE",
"132 684 LINE",
"157 675 OFFCURVE",
"185 667 OFFCURVE",
"209 663 CURVE",
"82 37 LINE",
"57 34 OFFCURVE",
"23 25 OFFCURVE",
"-4 16 CURVE",
"-7 0 LINE"
);
},
{
closed = 1;
nodes = (
"471 237 LINE",
"516 453 LINE",
"494 453 LINE",
"478 426 OFFCURVE",
"464 386 OFFCURVE",
"458 368 CURVE",
"198 368 LINE",
"188 322 LINE",
"448 322 LINE",
"446 305 OFFCURVE",
"445 265 OFFCURVE",
"450 237 CURVE"
);
},
{
closed = 1;
nodes = (
"506 785 OFFCURVE",
"533 809 OFFCURVE",
"539 841 CURVE SMOOTH",
"545 874 OFFCURVE",
"529 898 OFFCURVE",
"497 898 CURVE SMOOTH",
"464 898 OFFCURVE",
"439 874 OFFCURVE",
"432 841 CURVE SMOOTH",
"426 809 OFFCURVE",
"441 785 OFFCURVE",
"474 785 CURVE SMOOTH"
);
}
);
width = 618;
}
);
note = Edotaccent;
unicode = 0116;
},
{
glyphname = Edotbelow;
lastChange = "2015-10-27 10:06:32 +0000";
layers = (
{
layerId = "097E1CCD-D4DB-46B5-97AF-AA821C3DB512";
name = "Bold Italic";
paths = (
{
closed = 1;
nodes = (
"523 0 LINE",
"573 165 LINE",
"544 165 LINE",
"525 144 OFFCURVE",
"485 78 OFFCURVE",
"475 44 CURVE",
"214 44 LINE",
"339 654 LINE",
"595 654 LINE",
"590 625 OFFCURVE",
"595 555 OFFCURVE",
"604 533 CURVE",
"633 533 LINE",
"666 700 LINE",
"135 700 LINE",
"132 684 LINE",
"157 675 OFFCURVE",
"185 667 OFFCURVE",
"209 663 CURVE",
"82 37 LINE",
"57 34 OFFCURVE",
"23 25 OFFCURVE",
"-4 16 CURVE",
"-7 0 LINE"
);
},
{
closed = 1;
nodes = (
"274 -169 OFFCURVE",
"300 -145 OFFCURVE",
"305 -113 CURVE SMOOTH",
"312 -80 OFFCURVE",
"297 -56 OFFCURVE",
"264 -56 CURVE SMOOTH",
"231 -56 OFFCURVE",
"204 -80 OFFCURVE",
"198 -113 CURVE SMOOTH",
"192 -145 OFFCURVE",
"208 -169 OFFCURVE",
"241 -169 CURVE SMOOTH"
);
},
{
closed = 1;
nodes = (
"471 237 LINE",
"516 453 LINE",
"494 453 LINE",
"478 426 OFFCURVE",
"464 386 OFFCURVE",
"458 368 CURVE",
"198 368 LINE",
"188 322 LINE",
"448 322 LINE",
"446 305 OFFCURVE",
"445 265 OFFCURVE",
"450 237 CURVE"
);
}
);
width = 618;
}
);
note = Edotbelow;
unicode = 1EB8;
},
{
glyphname = Egrave;
lastChange = "2015-10-27 10:06:30 +0000";
layers = (
{
layerId = "097E1CCD-D4DB-46B5-97AF-AA821C3DB512";
name = "Bold Italic";
paths = (
{
closed = 1;
nodes = (
"523 0 LINE",
"573 165 LINE",
"544 165 LINE",
"525 144 OFFCURVE",
"485 78 OFFCURVE",
"475 44 CURVE",
"214 44 LINE",
"339 654 LINE",
"595 654 LINE",
"590 625 OFFCURVE",
"595 555 OFFCURVE",
"604 533 CURVE",
"633 533 LINE",
"666 700 LINE",
"135 700 LINE",
"132 684 LINE",
"157 675 OFFCURVE",
"185 667 OFFCURVE",
"209 663 CURVE",
"82 37 LINE",
"57 34 OFFCURVE",
"23 25 OFFCURVE",
"-4 16 CURVE",
"-7 0 LINE"
);
},
{
closed = 1;
nodes = (
"471 237 LINE",
"516 453 LINE",
"494 453 LINE",
"478 426 OFFCURVE",
"464 386 OFFCURVE",
"458 368 CURVE",
"198 368 LINE",
"188 322 LINE",
"448 322 LINE",
"446 305 OFFCURVE",
"445 265 OFFCURVE",
"450 237 CURVE"
);
},
{
closed = 1;
nodes = (
"577 817 LINE",
"486 937 LINE SMOOTH",
"480 945 OFFCURVE",
"460 967 OFFCURVE",
"433 967 CURVE SMOOTH",
"408 967 OFFCURVE",
"392 946 OFFCURVE",
"388 929 CURVE",
"384 908 OFFCURVE",
"396 892 OFFCURVE",
"420 875 CURVE SMOOTH",
"550 786 LINE"
);
}
);
width = 618;
}
);
note = Egrave;
unicode = 00C8;
},
{
glyphname = Ehookabove;
lastChange = "2015-10-27 10:06:33 +0000";
layers = (
{
layerId = "097E1CCD-D4DB-46B5-97AF-AA821C3DB512";
name = "Bold Italic";
paths = (
{
closed = 1;
nodes = (
"523 0 LINE",
"573 165 LINE",
"544 165 LINE",
"525 144 OFFCURVE",
"485 78 OFFCURVE",
"475 44 CURVE",
"214 44 LINE",
"339 654 LINE",
"595 654 LINE",
"590 625 OFFCURVE",
"595 555 OFFCURVE",
"604 533 CURVE",
"633 533 LINE",
"666 700 LINE",
"135 700 LINE",
"132 684 LINE",
"157 675 OFFCURVE",
"185 667 OFFCURVE",
"209 663 CURVE",
"82 37 LINE",
"57 34 OFFCURVE",
"23 25 OFFCURVE",
"-4 16 CURVE",
"-7 0 LINE"
);
},
{
closed = 1;
nodes = (
"471 237 LINE",
"516 453 LINE",
"494 453 LINE",
"478 426 OFFCURVE",
"464 386 OFFCURVE",
"458 368 CURVE",
"198 368 LINE",
"188 322 LINE",
"448 322 LINE",
"446 305 OFFCURVE",
"445 265 OFFCURVE",
"450 237 CURVE"
);
},
{
closed = 1;
nodes = (
"486 781 LINE",
"510 849 LINE",
"563 854 OFFCURVE",
"602 876 OFFCURVE",
"613 931 CURVE SMOOTH",
"626 994 OFFCURVE",
"578 1018 OFFCURVE",
"523 1018 CURVE SMOOTH",
"492 1018 OFFCURVE",
"461 1010 OFFCURVE",
"440 1001 CURVE",
"439 965 LINE",
"462 976 OFFCURVE",
"484 981 OFFCURVE",
"501 981 CURVE SMOOTH",
"540 981 OFFCURVE",
"555 958 OFFCURVE",
"550 933 CURVE SMOOTH",
"542 897 OFFCURVE",
"512 881 OFFCURVE",
"481 881 CURVE SMOOTH",
"449 881 LINE",
"434 781 LINE"
);
}
);
width = 618;
}
);
note = Ehookabove;
unicode = 1EBA;
},
{
glyphname = Emacron;
lastChange = "2015-10-27 10:06:33 +0000";
layers = (
{
layerId = "097E1CCD-D4DB-46B5-97AF-AA821C3DB512";
name = "Bold Italic";
paths = (
{
closed = 1;
nodes = (
"523 0 LINE",
"573 165 LINE",
"544 165 LINE",
"525 144 OFFCURVE",
"485 78 OFFCURVE",
"475 44 CURVE",
"214 44 LINE",
"339 654 LINE",
"595 654 LINE",
"590 625 OFFCURVE",
"595 555 OFFCURVE",
"604 533 CURVE",
"633 533 LINE",
"666 700 LINE",
"135 700 LINE",
"132 684 LINE",
"157 675 OFFCURVE",
"185 667 OFFCURVE",
"209 663 CURVE",
"82 37 LINE",
"57 34 OFFCURVE",
"23 25 OFFCURVE",
"-4 16 CURVE",
"-7 0 LINE"
);
},
{
closed = 1;
nodes = (
"471 237 LINE",
"516 453 LINE",
"494 453 LINE",
"478 426 OFFCURVE",
"464 386 OFFCURVE",
"458 368 CURVE",
"198 368 LINE",
"188 322 LINE",
"448 322 LINE",
"446 305 OFFCURVE",
"445 265 OFFCURVE",
"450 237 CURVE"
);
},
{
closed = 1;
nodes = (
"641 785 LINE",
"650 829 LINE",
"295 829 LINE",
"286 785 LINE"
);
}
);
width = 618;
}
);
note = Emacron;
unicode = 0112;
},
{
glyphname = Eogonek;
lastChange = "2015-10-27 10:06:33 +0000";
layers = (
{
layerId = "097E1CCD-D4DB-46B5-97AF-AA821C3DB512";
name = "Bold Italic";
paths = (
{
closed = 1;
nodes = (
"523 0 LINE",
"573 165 LINE",
"544 165 LINE",
"525 144 OFFCURVE",
"485 78 OFFCURVE",
"475 44 CURVE",
"214 44 LINE",
"339 654 LINE",
"595 654 LINE",
"590 625 OFFCURVE",
"595 555 OFFCURVE",
"604 533 CURVE",
"633 533 LINE",
"666 700 LINE",
"135 700 LINE",
"132 684 LINE",
"157 675 OFFCURVE",
"185 667 OFFCURVE",
"209 663 CURVE",
"82 37 LINE",
"57 34 OFFCURVE",
"23 25 OFFCURVE",
"-4 16 CURVE",
"-7 0 LINE"
);
},
{
closed = 1;
nodes = (
"458 -200 OFFCURVE",
"496 -191 OFFCURVE",
"523 -177 CURVE",
"535 -121 LINE",
"510 -134 OFFCURVE",
"488 -140 OFFCURVE",
"470 -140 CURVE SMOOTH",
"437 -140 OFFCURVE",
"416 -120 OFFCURVE",
"422 -88 CURVE SMOOTH",
"429 -55 OFFCURVE",
"462 -19 OFFCURVE",
"493 0 CURVE",
"431 0 LINE",
"372 -19 OFFCURVE",
"330 -68 OFFCURVE",
"321 -113 CURVE SMOOTH",
"311 -163 OFFCURVE",
"346 -200 OFFCURVE",
"420 -200 CURVE SMOOTH"
);
},
{
closed = 1;
nodes = (
"471 237 LINE",
"516 453 LINE",
"494 453 LINE",
"478 426 OFFCURVE",
"464 386 OFFCURVE",
"458 368 CURVE",
"198 368 LINE",
"188 322 LINE",
"448 322 LINE",
"446 305 OFFCURVE",
"445 265 OFFCURVE",
"450 237 CURVE"
);
}
);
width = 618;
}
);
note = Eogonek;
unicode = 0118;
},
{
glyphname = Etilde;
lastChange = "2015-10-27 10:06:31 +0000";
layers = (
{
layerId = "097E1CCD-D4DB-46B5-97AF-AA821C3DB512";
name = "Bold Italic";
paths = (
{
closed = 1;
nodes = (
"523 0 LINE",
"573 165 LINE",
"544 165 LINE",
"525 144 OFFCURVE",
"485 78 OFFCURVE",
"475 44 CURVE",
"214 44 LINE",
"339 654 LINE",
"595 654 LINE",
"590 625 OFFCURVE",
"595 555 OFFCURVE",
"604 533 CURVE",
"633 533 LINE",
"666 700 LINE",
"135 700 LINE",
"132 684 LINE",
"157 675 OFFCURVE",
"185 667 OFFCURVE",
"209 663 CURVE",
"82 37 LINE",
"57 34 OFFCURVE",
"23 25 OFFCURVE",
"-4 16 CURVE",
"-7 0 LINE"
);
},
{
closed = 1;
nodes = (
"471 237 LINE",
"516 453 LINE",
"494 453 LINE",
"478 426 OFFCURVE",
"464 386 OFFCURVE",
"458 368 CURVE",
"198 368 LINE",
"188 322 LINE",
"448 322 LINE",
"446 305 OFFCURVE",
"445 265 OFFCURVE",
"450 237 CURVE"
);
},
{
closed = 1;
nodes = (
"321 785 LINE",
"334 818 OFFCURVE",
"360 839 OFFCURVE",
"389 839 CURVE SMOOTH",
"425 839 OFFCURVE",
"473 785 OFFCURVE",
"527 785 CURVE SMOOTH",
"595 785 OFFCURVE",
"636 831 OFFCURVE",
"659 899 CURVE",
"610 899 LINE",
"590 854 OFFCURVE",
"563 843 OFFCURVE",
"537 843 CURVE SMOOTH",
"497 843 OFFCURVE",
"466 896 OFFCURVE",
"401 896 CURVE SMOOTH",
"341 896 OFFCURVE",
"294 859 OFFCURVE",
"270 785 CURVE"
);
}
);
width = 618;
}
);
note = Etilde;
unicode = 1EBC;
},
{
glyphname = F;
lastChange = "2015-10-27 10:06:30 +0000";
layers = (
{
layerId = "097E1CCD-D4DB-46B5-97AF-AA821C3DB512";
name = "Bold Italic";
paths = (
{
closed = 1;
nodes = (
"288 0 LINE",
"291 15 LINE",
"266 25 OFFCURVE",
"235 32 OFFCURVE",
"212 36 CURVE",
"339 654 LINE",
"583 654 LINE",
"578 625 OFFCURVE",
"583 555 OFFCURVE",
"591 533 CURVE",
"620 533 LINE",
"654 700 LINE",
"135 700 LINE",
"132 684 LINE",
"157 674 OFFCURVE",
"187 667 OFFCURVE",
"209 663 CURVE",
"82 36 LINE",
"52 32 OFFCURVE",
"23 24 OFFCURVE",
"-4 16 CURVE",
"-7 0 LINE"
);
},
{
closed = 1;
nodes = (
"469 226 LINE",
"514 443 LINE",
"492 443 LINE",
"476 416 OFFCURVE",
"461 376 OFFCURVE",
"456 358 CURVE",
"171 358 LINE",
"161 311 LINE",
"446 311 LINE",
"444 294 OFFCURVE",
"444 255 OFFCURVE",
"448 226 CURVE"
);
}
);
width = 575;
}
);
note = F;
unicode = 0046;
},
{
glyphname = G;
lastChange = "2015-10-27 10:06:31 +0000";
layers = (
{
layerId = "097E1CCD-D4DB-46B5-97AF-AA821C3DB512";
name = "Bold Italic";
paths = (
{
closed = 1;
nodes = (
"410 -10 OFFCURVE",
"515 10 OFFCURVE",
"571 48 CURVE",
"623 302 LINE",
"646 306 OFFCURVE",
"678 318 OFFCURVE",
"695 328 CURVE",
"698 340 LINE",
"429 340 LINE",
"425 324 LINE",
"448 316 OFFCURVE",
"473 310 OFFCURVE",
"497 304 CURVE",
"446 55 LINE",
"417 42 OFFCURVE",
"373 37 OFFCURVE",
"351 37 CURVE SMOOTH",
"205 37 OFFCURVE",
"161 161 OFFCURVE",
"200 350 CURVE SMOOTH",
"238 538 OFFCURVE",
"348 663 OFFCURVE",
"496 663 CURVE SMOOTH",
"544 663 OFFCURVE",
"607 649 OFFCURVE",
"635 622 CURVE",
"630 581 OFFCURVE",
"627 531 OFFCURVE",
"631 496 CURVE",
"662 496 LINE",
"702 634 LINE",
"663 681 OFFCURVE",
"578 710 OFFCURVE",
"473 710 CURVE SMOOTH",
"263 710 OFFCURVE",
"112 572 OFFCURVE",
"67 350 CURVE SMOOTH",
"21 127 OFFCURVE",
"106 -10 OFFCURVE",
"323 -10 CURVE SMOOTH"
);
}
);
width = 677;
}
);
leftKerningGroup = G;
note = G;
unicode = 0047;
},
{
glyphname = Gbreve;
lastChange = "2015-10-27 10:06:31 +0000";
layers = (
{
layerId = "097E1CCD-D4DB-46B5-97AF-AA821C3DB512";
name = "Bold Italic";
paths = (
{
closed = 1;
nodes = (
"410 -10 OFFCURVE",
"515 10 OFFCURVE",
"571 48 CURVE",
"623 302 LINE",
"646 306 OFFCURVE",
"678 318 OFFCURVE",
"695 328 CURVE",
"698 340 LINE",
"429 340 LINE",
"425 324 LINE",
"448 316 OFFCURVE",
"473 310 OFFCURVE",
"497 304 CURVE",
"446 55 LINE",
"417 42 OFFCURVE",
"373 37 OFFCURVE",
"351 37 CURVE SMOOTH",
"205 37 OFFCURVE",
"161 161 OFFCURVE",
"200 350 CURVE SMOOTH",
"238 538 OFFCURVE",
"348 663 OFFCURVE",
"496 663 CURVE SMOOTH",
"544 663 OFFCURVE",
"607 649 OFFCURVE",
"635 622 CURVE",
"630 581 OFFCURVE",
"627 531 OFFCURVE",
"631 496 CURVE",
"662 496 LINE",
"702 634 LINE",
"663 681 OFFCURVE",
"578 710 OFFCURVE",
"473 710 CURVE SMOOTH",
"263 710 OFFCURVE",
"112 572 OFFCURVE",
"67 350 CURVE SMOOTH",
"21 127 OFFCURVE",
"106 -10 OFFCURVE",
"323 -10 CURVE SMOOTH"
);
},
{
closed = 1;
nodes = (
"579 780 OFFCURVE",
"651 822 OFFCURVE",
"682 911 CURVE",
"609 911 LINE",
"586 837 OFFCURVE",
"539 827 OFFCURVE",
"499 827 CURVE SMOOTH",
"460 827 OFFCURVE",
"416 837 OFFCURVE",
"423 911 CURVE",
"351 911 LINE",
"347 822 OFFCURVE",
"399 780 OFFCURVE",
"490 780 CURVE SMOOTH"
);
}
);
width = 677;
}
);
leftKerningGroup = G;
note = Gbreve;
unicode = 011E;
},
{
glyphname = Gcaron;
lastChange = "2015-10-27 10:06:32 +0000";
layers = (
{
layerId = "097E1CCD-D4DB-46B5-97AF-AA821C3DB512";
name = "Bold Italic";
paths = (
{
closed = 1;
nodes = (
"410 -10 OFFCURVE",
"515 10 OFFCURVE",
"571 48 CURVE",
"623 302 LINE",
"646 306 OFFCURVE",
"678 318 OFFCURVE",
"695 328 CURVE",
"698 340 LINE",
"429 340 LINE",
"425 324 LINE",
"448 316 OFFCURVE",
"473 310 OFFCURVE",
"497 304 CURVE",
"446 55 LINE",
"417 42 OFFCURVE",
"373 37 OFFCURVE",
"351 37 CURVE SMOOTH",
"205 37 OFFCURVE",
"161 161 OFFCURVE",
"200 350 CURVE SMOOTH",
"238 538 OFFCURVE",
"348 663 OFFCURVE",
"496 663 CURVE SMOOTH",
"544 663 OFFCURVE",
"607 649 OFFCURVE",
"635 622 CURVE",
"630 581 OFFCURVE",
"627 531 OFFCURVE",
"631 496 CURVE",
"662 496 LINE",
"702 634 LINE",
"663 681 OFFCURVE",
"578 710 OFFCURVE",
"473 710 CURVE SMOOTH",
"263 710 OFFCURVE",
"112 572 OFFCURVE",
"67 350 CURVE SMOOTH",
"21 127 OFFCURVE",
"106 -10 OFFCURVE",
"323 -10 CURVE SMOOTH"
);
},
{
closed = 1;
nodes = (
"517 792 LINE",
"550 830 OFFCURVE",
"639 900 OFFCURVE",
"686 928 CURVE",
"642 969 LINE",
"598 938 OFFCURVE",
"532 883 OFFCURVE",
"500 847 CURVE",
"496 847 LINE",
"481 883 OFFCURVE",
"437 938 OFFCURVE",
"404 969 CURVE",
"346 928 LINE",
"380 900 OFFCURVE",
"441 830 OFFCURVE",
"458 792 CURVE"
);
}
);
width = 677;
}
);
leftKerningGroup = G;
note = Gcaron;
unicode = 01E6;
},
{
glyphname = Gcircumflex;
lastChange = "2015-10-27 10:06:32 +0000";
layers = (
{
layerId = "097E1CCD-D4DB-46B5-97AF-AA821C3DB512";
name = "Bold Italic";
paths = (
{
closed = 1;
nodes = (
"410 -10 OFFCURVE",
"515 10 OFFCURVE",
"571 48 CURVE",
"623 302 LINE",
"646 306 OFFCURVE",
"678 318 OFFCURVE",
"695 328 CURVE",
"698 340 LINE",
"429 340 LINE",
"425 324 LINE",
"448 316 OFFCURVE",
"473 310 OFFCURVE",
"497 304 CURVE",
"446 55 LINE",
"417 42 OFFCURVE",
"373 37 OFFCURVE",
"351 37 CURVE SMOOTH",
"205 37 OFFCURVE",
"161 161 OFFCURVE",
"200 350 CURVE SMOOTH",
"238 538 OFFCURVE",
"348 663 OFFCURVE",
"496 663 CURVE SMOOTH",
"544 663 OFFCURVE",
"607 649 OFFCURVE",
"635 622 CURVE",
"630 581 OFFCURVE",
"627 531 OFFCURVE",
"631 496 CURVE",
"662 496 LINE",
"702 634 LINE",
"663 681 OFFCURVE",
"578 710 OFFCURVE",
"473 710 CURVE SMOOTH",
"263 710 OFFCURVE",
"112 572 OFFCURVE",
"67 350 CURVE SMOOTH",
"21 127 OFFCURVE",
"106 -10 OFFCURVE",
"323 -10 CURVE SMOOTH"
);
},
{
closed = 1;
nodes = (
"428 813 OFFCURVE",
"495 868 OFFCURVE",
"526 904 CURVE",
"530 904 LINE",
"546 868 OFFCURVE",
"589 813 OFFCURVE",
"622 782 CURVE",
"682 823 LINE",
"646 851 OFFCURVE",
"587 922 OFFCURVE",
"568 959 CURVE",
"509 959 LINE",
"477 922 OFFCURVE",
"387 851 OFFCURVE",
"341 823 CURVE",
"385 782 LINE"
);
}
);
width = 677;
}
);
leftKerningGroup = G;
note = Gcircumflex;
unicode = 011C;
},
{
glyphname = Gcommaaccent;
lastChange = "2015-10-27 10:06:30 +0000";
layers = (
{
layerId = "097E1CCD-D4DB-46B5-97AF-AA821C3DB512";
name = "Bold Italic";
paths = (
{
closed = 1;
nodes = (
"410 -10 OFFCURVE",
"515 10 OFFCURVE",
"571 48 CURVE",
"623 302 LINE",
"646 306 OFFCURVE",
"678 318 OFFCURVE",
"695 328 CURVE",
"698 340 LINE",
"429 340 LINE",
"425 324 LINE",
"448 316 OFFCURVE",
"473 310 OFFCURVE",
"497 304 CURVE",
"446 55 LINE",
"417 42 OFFCURVE",
"373 37 OFFCURVE",
"351 37 CURVE SMOOTH",
"205 37 OFFCURVE",
"161 161 OFFCURVE",
"200 350 CURVE SMOOTH",
"238 538 OFFCURVE",
"348 663 OFFCURVE",
"496 663 CURVE SMOOTH",
"544 663 OFFCURVE",
"607 649 OFFCURVE",
"635 622 CURVE",
"630 581 OFFCURVE",
"627 531 OFFCURVE",
"631 496 CURVE",
"662 496 LINE",
"702 634 LINE",
"663 681 OFFCURVE",
"578 710 OFFCURVE",
"473 710 CURVE SMOOTH",
"263 710 OFFCURVE",
"112 572 OFFCURVE",
"67 350 CURVE SMOOTH",
"21 127 OFFCURVE",
"106 -10 OFFCURVE",
"323 -10 CURVE SMOOTH"
);
},
{
closed = 1;
nodes = (
"306 -300 OFFCURVE",
"360 -220 OFFCURVE",
"373 -151 CURVE SMOOTH",
"382 -111 OFFCURVE",
"369 -77 OFFCURVE",
"320 -77 CURVE SMOOTH",
"286 -77 OFFCURVE",
"251 -99 OFFCURVE",
"243 -138 CURVE SMOOTH",
"235 -177 OFFCURVE",
"256 -199 OFFCURVE",
"295 -200 CURVE",
"280 -243 OFFCURVE",
"242 -287 OFFCURVE",
"213 -314 CURVE",
"248 -346 LINE"
);
}
);
width = 677;
}
);
leftKerningGroup = G;
note = Gcommaaccent;
unicode = 0122;
},
{
glyphname = Gdotaccent;
lastChange = "2015-10-27 10:06:33 +0000";
layers = (
{
layerId = "097E1CCD-D4DB-46B5-97AF-AA821C3DB512";
name = "Bold Italic";
paths = (
{
closed = 1;
nodes = (
"410 -10 OFFCURVE",
"515 10 OFFCURVE",
"571 48 CURVE",
"623 302 LINE",
"646 306 OFFCURVE",
"678 318 OFFCURVE",
"695 328 CURVE",
"698 340 LINE",
"429 340 LINE",
"425 324 LINE",
"448 316 OFFCURVE",
"473 310 OFFCURVE",
"497 304 CURVE",
"446 55 LINE",
"417 42 OFFCURVE",
"373 37 OFFCURVE",
"351 37 CURVE SMOOTH",
"205 37 OFFCURVE",
"161 161 OFFCURVE",
"200 350 CURVE SMOOTH",
"238 538 OFFCURVE",
"348 663 OFFCURVE",
"496 663 CURVE SMOOTH",
"544 663 OFFCURVE",
"607 649 OFFCURVE",
"635 622 CURVE",
"630 581 OFFCURVE",
"627 531 OFFCURVE",
"631 496 CURVE",
"662 496 LINE",
"702 634 LINE",
"663 681 OFFCURVE",
"578 710 OFFCURVE",
"473 710 CURVE SMOOTH",
"263 710 OFFCURVE",
"112 572 OFFCURVE",
"67 350 CURVE SMOOTH",
"21 127 OFFCURVE",
"106 -10 OFFCURVE",
"323 -10 CURVE SMOOTH"
);
},
{
closed = 1;
nodes = (
"536 785 OFFCURVE",
"563 809 OFFCURVE",
"568 841 CURVE SMOOTH",
"575 874 OFFCURVE",
"559 898 OFFCURVE",
"527 898 CURVE SMOOTH",
"493 898 OFFCURVE",
"468 874 OFFCURVE",
"462 841 CURVE SMOOTH",
"456 809 OFFCURVE",
"470 785 OFFCURVE",
"504 785 CURVE SMOOTH"
);
}
);
width = 677;
}
);
leftKerningGroup = G;
note = Gdotaccent;
unicode = 0120;
},
{
glyphname = Gmacron;
lastChange = "2015-10-27 10:06:33 +0000";
layers = (
{
layerId = "097E1CCD-D4DB-46B5-97AF-AA821C3DB512";
name = "Bold Italic";
paths = (
{
closed = 1;
nodes = (
"410 -10 OFFCURVE",
"515 10 OFFCURVE",
"571 48 CURVE",
"623 302 LINE",
"646 306 OFFCURVE",
"678 318 OFFCURVE",
"695 328 CURVE",
"698 340 LINE",
"429 340 LINE",
"425 324 LINE",
"448 316 OFFCURVE",
"473 310 OFFCURVE",
"497 304 CURVE",
"446 55 LINE",
"417 42 OFFCURVE",
"373 37 OFFCURVE",
"351 37 CURVE SMOOTH",
"205 37 OFFCURVE",
"161 161 OFFCURVE",
"200 350 CURVE SMOOTH",
"238 538 OFFCURVE",
"348 663 OFFCURVE",
"496 663 CURVE SMOOTH",
"544 663 OFFCURVE",
"607 649 OFFCURVE",
"635 622 CURVE",
"630 581 OFFCURVE",
"627 531 OFFCURVE",
"631 496 CURVE",
"662 496 LINE",
"702 634 LINE",
"663 681 OFFCURVE",
"578 710 OFFCURVE",
"473 710 CURVE SMOOTH",
"263 710 OFFCURVE",
"112 572 OFFCURVE",
"67 350 CURVE SMOOTH",
"21 127 OFFCURVE",
"106 -10 OFFCURVE",
"323 -10 CURVE SMOOTH"
);
},
{
closed = 1;
nodes = (
"651 785 LINE",
"660 829 LINE",
"304 829 LINE",
"296 785 LINE"
);
}
);
width = 677;
}
);
leftKerningGroup = G;
note = Gmacron;
unicode = 1E20;
},
{
glyphname = H;
lastChange = "2015-10-27 10:06:30 +0000";
layers = (
{
layerId = "097E1CCD-D4DB-46B5-97AF-AA821C3DB512";
name = "Bold Italic";
paths = (
{
closed = 1;
nodes = (
"712 0 LINE",
"715 15 LINE",
"690 25 OFFCURVE",
"666 31 OFFCURVE",
"642 36 CURVE",
"770 661 LINE",
"793 664 OFFCURVE",
"824 674 OFFCURVE",
"851 682 CURVE",
"854 700 LINE",
"574 700 LINE",
"571 684 LINE",
"595 675 OFFCURVE",
"617 668 OFFCURVE",
"641 664 CURVE",
"513 37 LINE",
"493 34 OFFCURVE",
"462 26 OFFCURVE",
"434 13 CURVE",
"432 0 LINE"
);
},
{
closed = 1;
nodes = (
"274 0 LINE",
"276 15 LINE",
"252 25 OFFCURVE",
"228 31 OFFCURVE",
"206 36 CURVE",
"334 662 LINE",
"353 665 OFFCURVE",
"384 671 OFFCURVE",
"413 685 CURVE",
"416 700 LINE",
"135 700 LINE",
"132 684 LINE",
"157 674 OFFCURVE",
"180 668 OFFCURVE",
"204 663 CURVE",
"76 37 LINE",
"54 34 OFFCURVE",
"23 25 OFFCURVE",
"-4 17 CURVE",
"-7 0 LINE"
);
},
{
closed = 1;
nodes = (
"636 332 LINE",
"645 378 LINE",
"214 378 LINE",
"204 332 LINE"
);
}
);
width = 782;
}
);
note = H;
unicode = 0048;
},
{
glyphname = Hbar;
lastChange = "2015-10-27 10:06:32 +0000";
layers = (
{
layerId = "097E1CCD-D4DB-46B5-97AF-AA821C3DB512";
name = "Bold Italic";
paths = (
{
closed = 1;
nodes = (
"712 0 LINE",
"715 15 LINE",
"690 25 OFFCURVE",
"666 31 OFFCURVE",
"642 36 CURVE",
"770 661 LINE",
"793 664 OFFCURVE",
"824 674 OFFCURVE",
"851 682 CURVE",
"854 700 LINE",
"574 700 LINE",
"571 684 LINE",
"595 675 OFFCURVE",
"617 668 OFFCURVE",
"641 664 CURVE",
"513 37 LINE",
"493 34 OFFCURVE",
"485 33 OFFCURVE",
"434 13 CURVE",
"432 0 LINE"
);
},
{
closed = 1;
nodes = (
"274 0 LINE",
"276 15 LINE",
"252 25 OFFCURVE",
"228 31 OFFCURVE",
"206 36 CURVE",
"334 662 LINE",
"353 665 OFFCURVE",
"384 671 OFFCURVE",
"413 685 CURVE",
"416 700 LINE",
"135 700 LINE",
"132 684 LINE",
"157 674 OFFCURVE",
"180 668 OFFCURVE",
"204 663 CURVE",
"76 37 LINE",
"54 34 OFFCURVE",
"23 25 OFFCURVE",
"-4 17 CURVE",
"-7 0 LINE"
);
},
{
closed = 1;
nodes = (
"636 332 LINE",
"645 378 LINE",
"214 378 LINE",
"204 332 LINE"
);
},
{
closed = 1;
nodes = (
"794 497 LINE",
"804 542 LINE",
"122 542 LINE",
"112 497 LINE"
);
}
);
width = 782;
}
);
note = Hbar;
unicode = 0126;
},
{
glyphname = Hbrevebelow;
lastChange = "2015-10-27 10:06:30 +0000";
layers = (
{
layerId = "097E1CCD-D4DB-46B5-97AF-AA821C3DB512";
name = "Bold Italic";
paths = (
{
closed = 1;
nodes = (
"712 0 LINE",
"715 15 LINE",
"690 25 OFFCURVE",
"666 31 OFFCURVE",
"642 36 CURVE",
"770 661 LINE",
"793 664 OFFCURVE",
"824 674 OFFCURVE",
"851 682 CURVE",
"854 700 LINE",
"574 700 LINE",
"571 684 LINE",
"595 675 OFFCURVE",
"617 668 OFFCURVE",
"641 664 CURVE",
"513 37 LINE",
"493 34 OFFCURVE",
"462 26 OFFCURVE",
"434 13 CURVE",
"432 0 LINE"
);
},
{
closed = 1;
nodes = (
"404 -181 OFFCURVE",
"476 -140 OFFCURVE",
"507 -50 CURVE",
"434 -50 LINE",
"411 -124 OFFCURVE",
"364 -135 OFFCURVE",
"325 -135 CURVE SMOOTH",
"286 -135 OFFCURVE",
"242 -124 OFFCURVE",
"250 -50 CURVE",
"177 -50 LINE",
"172 -140 OFFCURVE",
"226 -181 OFFCURVE",
"316 -181 CURVE SMOOTH"
);
},
{
closed = 1;
nodes = (
"274 0 LINE",
"276 15 LINE",
"252 25 OFFCURVE",
"228 31 OFFCURVE",
"206 36 CURVE",
"334 662 LINE",
"353 665 OFFCURVE",
"384 671 OFFCURVE",
"413 685 CURVE",
"416 700 LINE",
"135 700 LINE",
"132 684 LINE",
"157 674 OFFCURVE",
"180 668 OFFCURVE",
"204 663 CURVE",
"76 37 LINE",
"54 34 OFFCURVE",
"23 25 OFFCURVE",
"-4 17 CURVE",
"-7 0 LINE"
);
},
{
closed = 1;
nodes = (
"636 332 LINE",
"645 378 LINE",
"214 378 LINE",
"204 332 LINE"
);
}
);
width = 782;
}
);
note = Hbrevebelow;
unicode = 1E2A;
},
{
glyphname = Hcircumflex;
lastChange = "2015-10-27 10:06:33 +0000";
layers = (
{
layerId = "097E1CCD-D4DB-46B5-97AF-AA821C3DB512";
name = "Bold Italic";
paths = (
{
closed = 1;
nodes = (
"712 0 LINE",
"715 15 LINE",
"690 25 OFFCURVE",
"666 31 OFFCURVE",
"642 36 CURVE",
"770 661 LINE",
"793 664 OFFCURVE",
"824 674 OFFCURVE",
"851 682 CURVE",
"854 700 LINE",
"574 700 LINE",
"571 684 LINE",
"595 675 OFFCURVE",
"617 668 OFFCURVE",
"641 664 CURVE",
"513 37 LINE",
"493 34 OFFCURVE",
"462 26 OFFCURVE",
"434 13 CURVE",
"432 0 LINE"
);
},
{
closed = 1;
nodes = (
"274 0 LINE",
"276 15 LINE",
"252 25 OFFCURVE",
"228 31 OFFCURVE",
"206 36 CURVE",
"334 662 LINE",
"353 665 OFFCURVE",
"384 671 OFFCURVE",
"413 685 CURVE",
"416 700 LINE",
"135 700 LINE",
"132 684 LINE",
"157 674 OFFCURVE",
"180 668 OFFCURVE",
"204 663 CURVE",
"76 37 LINE",
"54 34 OFFCURVE",
"23 25 OFFCURVE",
"-4 17 CURVE",
"-7 0 LINE"
);
},
{
closed = 1;
nodes = (
"636 332 LINE",
"645 378 LINE",
"214 378 LINE",
"204 332 LINE"
);
},
{
closed = 1;
nodes = (
"436 813 OFFCURVE",
"503 868 OFFCURVE",
"534 904 CURVE",
"538 904 LINE",
"554 868 OFFCURVE",
"597 813 OFFCURVE",
"630 782 CURVE",
"689 823 LINE",
"654 851 OFFCURVE",
"594 922 OFFCURVE",
"576 959 CURVE",
"516 959 LINE",
"485 922 OFFCURVE",
"395 851 OFFCURVE",
"348 823 CURVE",
"393 782 LINE"
);
}
);
width = 782;
}
);
note = Hcircumflex;
unicode = 0124;
},
{
glyphname = Hdotbelow;
lastChange = "2015-10-27 10:06:30 +0000";
layers = (
{
layerId = "097E1CCD-D4DB-46B5-97AF-AA821C3DB512";
name = "Bold Italic";
paths = (
{
closed = 1;
nodes = (
"712 0 LINE",
"715 15 LINE",
"690 25 OFFCURVE",
"666 31 OFFCURVE",
"642 36 CURVE",
"770 661 LINE",
"793 664 OFFCURVE",
"824 674 OFFCURVE",
"851 682 CURVE",
"854 700 LINE",
"574 700 LINE",
"571 684 LINE",
"595 675 OFFCURVE",
"617 668 OFFCURVE",
"641 664 CURVE",
"513 37 LINE",
"493 34 OFFCURVE",
"462 26 OFFCURVE",
"434 13 CURVE",
"432 0 LINE"
);
},
{
closed = 1;
nodes = (
"348 -169 OFFCURVE",
"374 -145 OFFCURVE",
"380 -113 CURVE SMOOTH",
"387 -80 OFFCURVE",
"372 -56 OFFCURVE",
"339 -56 CURVE SMOOTH",
"306 -56 OFFCURVE",
"279 -80 OFFCURVE",
"273 -113 CURVE SMOOTH",
"267 -145 OFFCURVE",
"283 -169 OFFCURVE",
"316 -169 CURVE SMOOTH"
);
},
{
closed = 1;
nodes = (
"274 0 LINE",
"276 15 LINE",
"252 25 OFFCURVE",
"228 31 OFFCURVE",
"206 36 CURVE",
"334 662 LINE",
"353 665 OFFCURVE",
"384 671 OFFCURVE",
"413 685 CURVE",
"416 700 LINE",
"135 700 LINE",
"132 684 LINE",
"157 674 OFFCURVE",
"180 668 OFFCURVE",
"204 663 CURVE",
"76 37 LINE",
"54 34 OFFCURVE",
"23 25 OFFCURVE",
"-4 17 CURVE",
"-7 0 LINE"
);
},
{
closed = 1;
nodes = (
"636 332 LINE",
"645 378 LINE",
"214 378 LINE",
"204 332 LINE"
);
}
);
width = 782;
}
);
note = Hdotbelow;
unicode = 1E24;
},
{
glyphname = I;
lastChange = "2015-10-27 10:06:30 +0000";
layers = (
{
layerId = "097E1CCD-D4DB-46B5-97AF-AA821C3DB512";
name = "Bold Italic";
paths = (
{
closed = 1;
nodes = (
"280 0 LINE",
"283 16 LINE",
"259 24 OFFCURVE",
"231 32 OFFCURVE",
"209 36 CURVE",
"337 662 LINE",
"355 666 OFFCURVE",
"394 671 OFFCURVE",
"419 682 CURVE",
"422 700 LINE",
"137 700 LINE",
"134 683 LINE",
"157 675 OFFCURVE",
"184 667 OFFCURVE",
"206 663 CURVE",
"79 37 LINE",
"52 31 OFFCURVE",
"23 24 OFFCURVE",
"-2 17 CURVE",
"-5 0 LINE"
);
}
);
width = 352;
}
);
note = I;
unicode = 0049;
},
{
glyphname = IJ;
lastChange = "2015-10-27 10:06:32 +0000";
layers = (
{
layerId = "097E1CCD-D4DB-46B5-97AF-AA821C3DB512";
name = "Bold Italic";
paths = (
{
closed = 1;
nodes = (
"593 -10 OFFCURVE",
"692 40 OFFCURVE",
"716 156 CURVE SMOOTH",
"819 661 LINE",
"841 664 OFFCURVE",
"872 674 OFFCURVE",
"898 682 CURVE",
"901 700 LINE",
"620 700 LINE",
"616 682 LINE",
"638 673 OFFCURVE",
"657 667 OFFCURVE",
"688 662 CURVE",
"585 152 LINE SMOOTH",
"568 72 OFFCURVE",
"517 44 OFFCURVE",
"463 44 CURVE SMOOTH",
"420 44 OFFCURVE",
"383 60 OFFCURVE",
"360 78 CURVE",
"334 45 LINE",
"367 9 OFFCURVE",
"424 -10 OFFCURVE",
"489 -10 CURVE SMOOTH"
);
},
{
closed = 1;
nodes = (
"280 0 LINE",
"283 16 LINE",
"259 24 OFFCURVE",
"231 32 OFFCURVE",
"209 36 CURVE",
"337 662 LINE",
"355 666 OFFCURVE",
"394 671 OFFCURVE",
"419 682 CURVE",
"422 700 LINE",
"137 700 LINE",
"134 683 LINE",
"157 675 OFFCURVE",
"184 667 OFFCURVE",
"206 663 CURVE",
"79 37 LINE",
"52 31 OFFCURVE",
"23 24 OFFCURVE",
"-2 17 CURVE",
"-5 0 LINE"
);
}
);
width = 831;
}
);
note = IJ;
rightKerningGroup = J;
unicode = 0132;
},
{
glyphname = Iacute;
lastChange = "2015-10-27 10:06:32 +0000";
layers = (
{
layerId = "097E1CCD-D4DB-46B5-97AF-AA821C3DB512";
name = "Bold Italic";
paths = (
{
closed = 1;
nodes = (
"280 0 LINE",
"283 16 LINE",
"259 24 OFFCURVE",
"231 32 OFFCURVE",
"209 36 CURVE",
"337 662 LINE",
"355 666 OFFCURVE",
"394 671 OFFCURVE",
"419 682 CURVE",
"422 700 LINE",
"137 700 LINE",
"134 683 LINE",
"157 675 OFFCURVE",
"184 667 OFFCURVE",
"206 663 CURVE",
"79 37 LINE",
"52 31 OFFCURVE",
"23 24 OFFCURVE",
"-2 17 CURVE",
"-5 0 LINE"
);
},
{
closed = 1;
nodes = (
"377 875 LINE SMOOTH",
"408 892 OFFCURVE",
"426 909 OFFCURVE",
"430 930 CURVE",
"434 947 OFFCURVE",
"427 967 OFFCURVE",
"398 967 CURVE SMOOTH",
"370 967 OFFCURVE",
"343 943 OFFCURVE",
"336 936 CURVE",
"196 817 LINE",
"211 786 LINE"
);
}
);
width = 352;
}
);
note = Iacute;
unicode = 00CD;
},
{
glyphname = Ibreve;
lastChange = "2015-10-27 10:06:33 +0000";
layers = (
{
layerId = "097E1CCD-D4DB-46B5-97AF-AA821C3DB512";
name = "Bold Italic";
paths = (
{
closed = 1;
nodes = (
"280 0 LINE",
"283 16 LINE",
"259 24 OFFCURVE",
"231 32 OFFCURVE",
"209 36 CURVE",
"337 662 LINE",
"355 666 OFFCURVE",
"394 671 OFFCURVE",
"419 682 CURVE",
"422 700 LINE",
"137 700 LINE",
"134 683 LINE",
"157 675 OFFCURVE",
"184 667 OFFCURVE",
"206 663 CURVE",
"79 37 LINE",
"52 31 OFFCURVE",
"23 24 OFFCURVE",
"-2 17 CURVE",
"-5 0 LINE"
);
},
{
closed = 1;
nodes = (
"384 780 OFFCURVE",
"456 822 OFFCURVE",
"487 911 CURVE",
"414 911 LINE",
"391 837 OFFCURVE",
"344 827 OFFCURVE",
"304 827 CURVE SMOOTH",
"265 827 OFFCURVE",
"221 837 OFFCURVE",
"228 911 CURVE",
"156 911 LINE",
"152 822 OFFCURVE",
"204 780 OFFCURVE",
"295 780 CURVE SMOOTH"
);
}
);
width = 352;
}
);
note = Ibreve;
unicode = 012C;
},
{
glyphname = Icaron;
lastChange = "2015-10-27 10:06:31 +0000";
layers = (
{
layerId = "097E1CCD-D4DB-46B5-97AF-AA821C3DB512";
name = "Bold Italic";
paths = (
{
closed = 1;
nodes = (
"280 0 LINE",
"283 16 LINE",
"259 24 OFFCURVE",
"231 32 OFFCURVE",
"209 36 CURVE",
"337 662 LINE",
"355 666 OFFCURVE",
"394 671 OFFCURVE",
"419 682 CURVE",
"422 700 LINE",
"137 700 LINE",
"134 683 LINE",
"157 675 OFFCURVE",
"184 667 OFFCURVE",
"206 663 CURVE",
"79 37 LINE",
"52 31 OFFCURVE",
"23 24 OFFCURVE",
"-2 17 CURVE",
"-5 0 LINE"
);
},
{
closed = 1;
nodes = (
"325 786 LINE",
"358 824 OFFCURVE",
"447 894 OFFCURVE",
"494 922 CURVE",
"450 963 LINE",
"406 932 OFFCURVE",
"340 877 OFFCURVE",
"308 841 CURVE",
"304 841 LINE",
"289 877 OFFCURVE",
"245 932 OFFCURVE",
"212 963 CURVE",
"154 922 LINE",
"188 894 OFFCURVE",
"249 824 OFFCURVE",
"266 786 CURVE"
);
}
);
width = 352;
}
);
note = Icaron;
unicode = 01CF;
},
{
glyphname = Icircumflex;
lastChange = "2015-10-27 10:06:30 +0000";
layers = (
{
layerId = "097E1CCD-D4DB-46B5-97AF-AA821C3DB512";
name = "Bold Italic";
paths = (
{
closed = 1;
nodes = (
"280 0 LINE",
"283 16 LINE",
"259 24 OFFCURVE",
"231 32 OFFCURVE",
"209 36 CURVE",
"337 662 LINE",
"355 666 OFFCURVE",
"394 671 OFFCURVE",
"419 682 CURVE",
"422 700 LINE",
"137 700 LINE",
"134 683 LINE",
"157 675 OFFCURVE",
"184 667 OFFCURVE",
"206 663 CURVE",
"79 37 LINE",
"52 31 OFFCURVE",
"23 24 OFFCURVE",
"-2 17 CURVE",
"-5 0 LINE"
);
},
{
closed = 1;
nodes = (
"220 813 OFFCURVE",
"287 868 OFFCURVE",
"318 904 CURVE",
"322 904 LINE",
"338 868 OFFCURVE",
"381 813 OFFCURVE",
"414 782 CURVE",
"473 823 LINE",
"438 851 OFFCURVE",
"378 922 OFFCURVE",
"360 959 CURVE",
"300 959 LINE",
"269 922 OFFCURVE",
"179 851 OFFCURVE",
"132 823 CURVE",
"177 782 LINE"
);
}
);
width = 352;
}
);
note = Icircumflex;
unicode = 00CE;
},
{
glyphname = Idieresis;
lastChange = "2015-10-27 10:06:30 +0000";
layers = (
{
layerId = "097E1CCD-D4DB-46B5-97AF-AA821C3DB512";
name = "Bold Italic";
paths = (
{
closed = 1;
nodes = (
"280 0 LINE",
"283 16 LINE",
"259 24 OFFCURVE",
"231 32 OFFCURVE",
"209 36 CURVE",
"337 662 LINE",
"355 666 OFFCURVE",
"394 671 OFFCURVE",
"419 682 CURVE",
"422 700 LINE",
"137 700 LINE",
"134 683 LINE",
"157 675 OFFCURVE",
"184 667 OFFCURVE",
"206 663 CURVE",
"79 37 LINE",
"52 31 OFFCURVE",
"23 24 OFFCURVE",
"-2 17 CURVE",
"-5 0 LINE"
);
},
{
closed = 1;
nodes = (
"216 785 OFFCURVE",
"243 809 OFFCURVE",
"249 841 CURVE SMOOTH",
"255 874 OFFCURVE",
"239 898 OFFCURVE",
"205 898 CURVE SMOOTH",
"175 898 OFFCURVE",
"149 874 OFFCURVE",
"142 841 CURVE SMOOTH",
"136 809 OFFCURVE",
"152 785 OFFCURVE",
"182 785 CURVE SMOOTH"
);
},
{
closed = 1;
nodes = (
"440 785 OFFCURVE",
"467 809 OFFCURVE",
"472 841 CURVE SMOOTH",
"479 874 OFFCURVE",
"463 898 OFFCURVE",
"430 898 CURVE SMOOTH",
"396 898 OFFCURVE",
"372 874 OFFCURVE",
"365 841 CURVE SMOOTH",
"359 809 OFFCURVE",
"373 785 OFFCURVE",
"407 785 CURVE SMOOTH"
);
}
);
width = 352;
}
);
note = Idieresis;
unicode = 00CF;
},
{
glyphname = Idotaccent;
lastChange = "2015-10-27 10:06:30 +0000";
layers = (
{
layerId = "097E1CCD-D4DB-46B5-97AF-AA821C3DB512";
name = "Bold Italic";
paths = (
{
closed = 1;
nodes = (
"280 0 LINE",
"283 16 LINE",
"259 24 OFFCURVE",
"231 32 OFFCURVE",
"209 36 CURVE",
"337 662 LINE",
"355 666 OFFCURVE",
"394 671 OFFCURVE",
"419 682 CURVE",
"422 700 LINE",
"137 700 LINE",
"134 683 LINE",
"157 675 OFFCURVE",
"184 667 OFFCURVE",
"206 663 CURVE",
"79 37 LINE",
"52 31 OFFCURVE",
"23 24 OFFCURVE",
"-2 17 CURVE",
"-5 0 LINE"
);
},
{
closed = 1;
nodes = (
"326 785 OFFCURVE",
"353 809 OFFCURVE",
"359 841 CURVE SMOOTH",
"366 874 OFFCURVE",
"349 898 OFFCURVE",
"318 898 CURVE SMOOTH",
"284 898 OFFCURVE",
"259 874 OFFCURVE",
"252 841 CURVE SMOOTH",
"247 809 OFFCURVE",
"261 785 OFFCURVE",
"295 785 CURVE SMOOTH"
);
}
);
width = 352;
}
);
note = Idotaccent;
unicode = 0130;
},
{
glyphname = Idotbelow;
lastChange = "2015-10-27 10:06:33 +0000";
layers = (
{
layerId = "097E1CCD-D4DB-46B5-97AF-AA821C3DB512";
name = "Bold Italic";
paths = (
{
closed = 1;
nodes = (
"280 0 LINE",
"283 16 LINE",
"259 24 OFFCURVE",
"231 32 OFFCURVE",
"209 36 CURVE",
"337 662 LINE",
"355 666 OFFCURVE",
"394 671 OFFCURVE",
"419 682 CURVE",
"422 700 LINE",
"137 700 LINE",
"134 683 LINE",
"157 675 OFFCURVE",
"184 667 OFFCURVE",
"206 663 CURVE",
"79 37 LINE",
"52 31 OFFCURVE",
"23 24 OFFCURVE",
"-2 17 CURVE",
"-5 0 LINE"
);
},
{
closed = 1;
nodes = (
"135 -169 OFFCURVE",
"161 -145 OFFCURVE",
"167 -113 CURVE SMOOTH",
"174 -80 OFFCURVE",
"158 -56 OFFCURVE",
"126 -56 CURVE SMOOTH",
"93 -56 OFFCURVE",
"66 -80 OFFCURVE",
"60 -113 CURVE SMOOTH",
"54 -145 OFFCURVE",
"70 -169 OFFCURVE",
"103 -169 CURVE SMOOTH"
);
}
);
width = 352;
}
);
note = Idotbelow;
unicode = 1ECA;
},
{
glyphname = Igrave;
lastChange = "2015-10-27 10:06:31 +0000";
layers = (
{
layerId = "097E1CCD-D4DB-46B5-97AF-AA821C3DB512";
name = "Bold Italic";
paths = (
{
closed = 1;
nodes = (
"280 0 LINE",
"283 16 LINE",
"259 24 OFFCURVE",
"231 32 OFFCURVE",
"209 36 CURVE",
"337 662 LINE",
"355 666 OFFCURVE",
"394 671 OFFCURVE",
"419 682 CURVE",
"422 700 LINE",
"137 700 LINE",
"134 683 LINE",
"157 675 OFFCURVE",
"184 667 OFFCURVE",
"206 663 CURVE",
"79 37 LINE",
"52 31 OFFCURVE",
"23 24 OFFCURVE",
"-2 17 CURVE",
"-5 0 LINE"
);
},
{
closed = 1;
nodes = (
"408 817 LINE",
"317 937 LINE SMOOTH",
"311 945 OFFCURVE",
"291 967 OFFCURVE",
"264 967 CURVE SMOOTH",
"239 967 OFFCURVE",
"223 946 OFFCURVE",
"219 929 CURVE",
"215 908 OFFCURVE",
"227 892 OFFCURVE",
"252 875 CURVE SMOOTH",
"381 786 LINE"
);
}
);
width = 352;
}
);
note = Igrave;
unicode = 00CC;
},
{
glyphname = Ihookabove;
lastChange = "2015-10-27 10:06:32 +0000";
layers = (
{
layerId = "097E1CCD-D4DB-46B5-97AF-AA821C3DB512";
name = "Bold Italic";
paths = (
{
closed = 1;
nodes = (
"280 0 LINE",
"283 16 LINE",
"259 24 OFFCURVE",
"231 32 OFFCURVE",
"209 36 CURVE",
"337 662 LINE",
"355 666 OFFCURVE",
"394 671 OFFCURVE",
"419 682 CURVE",
"422 700 LINE",
"137 700 LINE",
"134 683 LINE",
"157 675 OFFCURVE",
"184 667 OFFCURVE",
"206 663 CURVE",
"79 37 LINE",
"52 31 OFFCURVE",
"23 24 OFFCURVE",
"-2 17 CURVE",
"-5 0 LINE"
);
},
{
closed = 1;
nodes = (
"327 781 LINE",
"351 849 LINE",
"404 854 OFFCURVE",
"444 876 OFFCURVE",
"455 931 CURVE SMOOTH",
"468 994 OFFCURVE",
"420 1018 OFFCURVE",
"365 1018 CURVE SMOOTH",
"334 1018 OFFCURVE",
"302 1010 OFFCURVE",
"281 1001 CURVE",
"280 965 LINE",
"303 976 OFFCURVE",
"325 981 OFFCURVE",
"343 981 CURVE SMOOTH",
"381 981 OFFCURVE",
"396 958 OFFCURVE",
"392 933 CURVE SMOOTH",
"384 897 OFFCURVE",
"353 881 OFFCURVE",
"323 881 CURVE SMOOTH",
"291 881 LINE",
"276 781 LINE"
);
}
);
width = 352;
}
);
note = Ihookabove;
unicode = 1EC8;
},
{
glyphname = Imacron;
lastChange = "2015-10-27 10:06:31 +0000";
layers = (
{
layerId = "097E1CCD-D4DB-46B5-97AF-AA821C3DB512";
name = "Bold Italic";
paths = (
{
closed = 1;
nodes = (
"280 0 LINE",
"283 16 LINE",
"259 24 OFFCURVE",
"231 32 OFFCURVE",
"209 36 CURVE",
"337 662 LINE",
"355 666 OFFCURVE",
"394 671 OFFCURVE",
"419 682 CURVE",
"422 700 LINE",
"137 700 LINE",
"134 683 LINE",
"157 675 OFFCURVE",
"184 667 OFFCURVE",
"206 663 CURVE",
"79 37 LINE",
"52 31 OFFCURVE",
"23 24 OFFCURVE",
"-2 17 CURVE",
"-5 0 LINE"
);
},
{
closed = 1;
nodes = (
"492 785 LINE",
"502 829 LINE",
"116 829 LINE",
"107 785 LINE"
);
}
);
width = 352;
}
);
note = Imacron;
unicode = 012A;
},
{
glyphname = Iogonek;
lastChange = "2015-10-27 10:06:30 +0000";
layers = (
{
layerId = "097E1CCD-D4DB-46B5-97AF-AA821C3DB512";
name = "Bold Italic";
paths = (
{
closed = 1;
nodes = (
"280 0 LINE",
"283 16 LINE",
"259 24 OFFCURVE",
"231 32 OFFCURVE",
"209 36 CURVE",
"337 662 LINE",
"355 666 OFFCURVE",
"394 671 OFFCURVE",
"419 682 CURVE",
"422 700 LINE",
"137 700 LINE",
"134 683 LINE",
"157 675 OFFCURVE",
"184 667 OFFCURVE",
"206 663 CURVE",
"79 37 LINE",
"52 31 OFFCURVE",
"23 24 OFFCURVE",
"-2 17 CURVE",
"-5 0 LINE"
);
},
{
closed = 1;
nodes = (
"227 -200 OFFCURVE",
"265 -191 OFFCURVE",
"292 -177 CURVE",
"303 -121 LINE",
"278 -134 OFFCURVE",
"256 -140 OFFCURVE",
"239 -140 CURVE SMOOTH",
"205 -140 OFFCURVE",
"184 -120 OFFCURVE",
"191 -88 CURVE SMOOTH",
"198 -55 OFFCURVE",
"230 -19 OFFCURVE",
"262 0 CURVE",
"200 0 LINE",
"140 -19 OFFCURVE",
"99 -68 OFFCURVE",
"89 -113 CURVE SMOOTH",
"80 -163 OFFCURVE",
"114 -200 OFFCURVE",
"189 -200 CURVE SMOOTH"
);
}
);
width = 352;
}
);
note = Iogonek;
unicode = 012E;
},
{
glyphname = Itilde;
lastChange = "2015-10-27 10:06:33 +0000";
layers = (
{
layerId = "097E1CCD-D4DB-46B5-97AF-AA821C3DB512";
name = "Bold Italic";
paths = (
{
closed = 1;
nodes = (
"280 0 LINE",
"283 16 LINE",
"259 24 OFFCURVE",
"231 32 OFFCURVE",
"209 36 CURVE",
"337 662 LINE",
"355 666 OFFCURVE",
"394 671 OFFCURVE",
"419 682 CURVE",
"422 700 LINE",
"137 700 LINE",
"134 683 LINE",
"157 675 OFFCURVE",
"184 667 OFFCURVE",
"206 663 CURVE",
"79 37 LINE",
"52 31 OFFCURVE",
"23 24 OFFCURVE",
"-2 17 CURVE",
"-5 0 LINE"
);
},
{
closed = 1;
nodes = (
"165 786 LINE",
"179 819 OFFCURVE",
"204 840 OFFCURVE",
"233 840 CURVE SMOOTH",
"270 840 OFFCURVE",
"318 786 OFFCURVE",
"372 786 CURVE SMOOTH",
"440 786 OFFCURVE",
"481 832 OFFCURVE",
"503 900 CURVE",
"454 900 LINE",
"435 855 OFFCURVE",
"407 844 OFFCURVE",
"381 844 CURVE SMOOTH",
"342 844 OFFCURVE",
"310 897 OFFCURVE",
"246 897 CURVE SMOOTH",
"185 897 OFFCURVE",
"138 860 OFFCURVE",
"114 786 CURVE"
);
}
);
width = 352;
}
);
note = Itilde;
unicode = 0128;
},
{
glyphname = J;
lastChange = "2015-10-27 10:06:30 +0000";
layers = (
{
layerId = "097E1CCD-D4DB-46B5-97AF-AA821C3DB512";
name = "Bold Italic";
paths = (
{
closed = 1;
nodes = (
"248 -10 OFFCURVE",
"347 40 OFFCURVE",
"371 156 CURVE SMOOTH",
"473 661 LINE",
"495 664 OFFCURVE",
"526 674 OFFCURVE",
"552 682 CURVE",
"556 700 LINE",
"275 700 LINE",
"271 682 LINE",
"293 673 OFFCURVE",
"311 667 OFFCURVE",
"343 662 CURVE",
"239 152 LINE SMOOTH",
"223 72 OFFCURVE",
"172 44 OFFCURVE",
"117 44 CURVE SMOOTH",
"75 44 OFFCURVE",
"37 60 OFFCURVE",
"14 78 CURVE",
"-12 45 LINE",
"21 9 OFFCURVE",
"79 -10 OFFCURVE",
"143 -10 CURVE SMOOTH"
);
}
);
width = 485;
}
);
leftKerningGroup = J;
note = J;
rightKerningGroup = J;
unicode = 004A;
},
{
glyphname = Jcircumflex;
lastChange = "2015-10-27 10:06:32 +0000";
layers = (
{
layerId = "097E1CCD-D4DB-46B5-97AF-AA821C3DB512";
name = "Bold Italic";
paths = (
{
closed = 1;
nodes = (
"248 -10 OFFCURVE",
"347 40 OFFCURVE",
"371 156 CURVE SMOOTH",
"473 661 LINE",
"495 664 OFFCURVE",
"526 674 OFFCURVE",
"552 682 CURVE",
"556 700 LINE",
"275 700 LINE",
"271 682 LINE",
"293 673 OFFCURVE",
"311 667 OFFCURVE",
"343 662 CURVE",
"239 152 LINE SMOOTH",
"223 72 OFFCURVE",
"172 44 OFFCURVE",
"117 44 CURVE SMOOTH",
"75 44 OFFCURVE",
"37 60 OFFCURVE",
"14 78 CURVE",
"-12 45 LINE",
"21 9 OFFCURVE",
"79 -10 OFFCURVE",
"143 -10 CURVE SMOOTH"
);
},
{
closed = 1;
nodes = (
"356 813 OFFCURVE",
"423 868 OFFCURVE",
"454 904 CURVE",
"458 904 LINE",
"474 868 OFFCURVE",
"517 813 OFFCURVE",
"550 782 CURVE",
"610 823 LINE",
"574 851 OFFCURVE",
"515 922 OFFCURVE",
"496 959 CURVE",
"437 959 LINE",
"405 922 OFFCURVE",
"315 851 OFFCURVE",
"269 823 CURVE",
"313 782 LINE"
);
}
);
width = 485;
}
);
leftKerningGroup = J;
note = Jcircumflex;
rightKerningGroup = J;
unicode = 0134;
},
{
glyphname = K;
lastChange = "2015-10-27 10:06:30 +0000";
layers = (
{
layerId = "097E1CCD-D4DB-46B5-97AF-AA821C3DB512";
name = "Bold Italic";
paths = (
{
closed = 1;
nodes = (
"278 0 LINE",
"281 16 LINE",
"257 24 OFFCURVE",
"229 32 OFFCURVE",
"207 36 CURVE",
"335 662 LINE",
"353 666 OFFCURVE",
"392 671 OFFCURVE",
"417 682 CURVE",
"420 700 LINE",
"135 700 LINE",
"132 683 LINE",
"156 675 OFFCURVE",
"182 667 OFFCURVE",
"204 663 CURVE",
"77 37 LINE",
"50 31 OFFCURVE",
"21 24 OFFCURVE",
"-4 17 CURVE",
"-7 0 LINE"
);
},
{
closed = 1;
nodes = (
"706 0 LINE",
"708 16 LINE",
"679 25 OFFCURVE",
"651 32 OFFCURVE",
"630 36 CURVE",
"422 431 LINE",
"329 349 LINE",
"512 0 LINE"
);
},
{
closed = 1;
nodes = (
"697 656 LINE",
"721 671 OFFCURVE",
"748 672 OFFCURVE",
"772 678 CURVE",
"776 700 LINE",
"563 700 LINE",
"559 678 LINE",
"581 672 OFFCURVE",
"615 669 OFFCURVE",
"630 659 CURVE",
"217 287 LINE",
"201 210 LINE"
);
}
);
width = 751;
}
);
note = K;
rightKerningGroup = K;
unicode = 004B;
},
{
glyphname = Kcommaaccent;
lastChange = "2015-10-27 10:06:31 +0000";
layers = (
{
layerId = "097E1CCD-D4DB-46B5-97AF-AA821C3DB512";
name = "Bold Italic";
paths = (
{
closed = 1;
nodes = (
"278 0 LINE",
"281 16 LINE",
"257 24 OFFCURVE",
"229 32 OFFCURVE",
"207 36 CURVE",
"335 662 LINE",
"353 666 OFFCURVE",
"392 671 OFFCURVE",
"417 682 CURVE",
"420 700 LINE",
"135 700 LINE",
"132 683 LINE",
"156 675 OFFCURVE",
"182 667 OFFCURVE",
"204 663 CURVE",
"77 37 LINE",
"50 31 OFFCURVE",
"21 24 OFFCURVE",
"-4 17 CURVE",
"-7 0 LINE"
);
},
{
closed = 1;
nodes = (
"323 -300 OFFCURVE",
"376 -220 OFFCURVE",
"390 -151 CURVE SMOOTH",
"398 -111 OFFCURVE",
"385 -77 OFFCURVE",
"336 -77 CURVE SMOOTH",
"302 -77 OFFCURVE",
"267 -99 OFFCURVE",
"259 -138 CURVE SMOOTH",
"252 -177 OFFCURVE",
"273 -199 OFFCURVE",
"311 -200 CURVE",
"297 -243 OFFCURVE",
"258 -287 OFFCURVE",
"229 -314 CURVE",
"264 -346 LINE"
);
},
{
closed = 1;
nodes = (
"706 0 LINE",
"708 16 LINE",
"679 25 OFFCURVE",
"651 32 OFFCURVE",
"630 36 CURVE",
"422 431 LINE",
"329 349 LINE",
"512 0 LINE"
);
},
{
closed = 1;
nodes = (
"697 656 LINE",
"721 671 OFFCURVE",
"748 672 OFFCURVE",
"772 678 CURVE",
"776 700 LINE",
"563 700 LINE",
"559 678 LINE",
"581 672 OFFCURVE",
"615 669 OFFCURVE",
"630 659 CURVE",
"217 287 LINE",
"201 210 LINE"
);
}
);
width = 751;
}
);
note = Kcommaaccent;
rightKerningGroup = K;
unicode = 0136;
},
{
glyphname = L;
lastChange = "2015-10-27 10:06:33 +0000";
layers = (
{
layerId = "097E1CCD-D4DB-46B5-97AF-AA821C3DB512";
name = "Bold Italic";
paths = (
{
closed = 1;
nodes = (
"518 0 LINE",
"568 165 LINE",
"540 165 LINE",
"520 144 OFFCURVE",
"480 78 OFFCURVE",
"470 44 CURVE",
"215 44 LINE",
"341 662 LINE",
"367 668 OFFCURVE",
"396 674 OFFCURVE",
"420 682 CURVE",
"424 700 LINE",
"141 700 LINE",
"138 684 LINE",
"162 674 OFFCURVE",
"187 668 OFFCURVE",
"210 663 CURVE",
"83 36 LINE",
"53 32 OFFCURVE",
"23 24 OFFCURVE",
"-4 16 CURVE",
"-7 0 LINE"
);
}
);
width = 611;
}
);
note = L;
rightKerningGroup = L;
unicode = 004C;
},
{
glyphname = Lacute;
lastChange = "2015-10-27 10:06:31 +0000";
layers = (
{
layerId = "097E1CCD-D4DB-46B5-97AF-AA821C3DB512";
name = "Bold Italic";
paths = (
{
closed = 1;
nodes = (
"518 0 LINE",
"568 165 LINE",
"540 165 LINE",
"520 144 OFFCURVE",
"480 78 OFFCURVE",
"470 44 CURVE",
"215 44 LINE",
"341 662 LINE",
"367 668 OFFCURVE",
"396 674 OFFCURVE",
"420 682 CURVE",
"424 700 LINE",
"141 700 LINE",
"138 684 LINE",
"162 674 OFFCURVE",
"187 668 OFFCURVE",
"210 663 CURVE",
"83 36 LINE",
"53 32 OFFCURVE",
"23 24 OFFCURVE",
"-4 16 CURVE",
"-7 0 LINE"
);
},
{
closed = 1;
nodes = (
"414 875 LINE SMOOTH",
"444 892 OFFCURVE",
"463 909 OFFCURVE",
"467 930 CURVE",
"470 947 OFFCURVE",
"464 967 OFFCURVE",
"435 967 CURVE SMOOTH",
"406 967 OFFCURVE",
"379 943 OFFCURVE",
"372 936 CURVE",
"232 817 LINE",
"248 786 LINE"
);
}
);
width = 611;
}
);
note = Lacute;
rightKerningGroup = L;
unicode = 0139;
},
{
glyphname = Lcaron;
lastChange = "2015-10-27 10:06:32 +0000";
layers = (
{
layerId = "097E1CCD-D4DB-46B5-97AF-AA821C3DB512";
name = "Bold Italic";
paths = (
{
closed = 1;
nodes = (
"518 0 LINE",
"568 165 LINE",
"540 165 LINE",
"520 144 OFFCURVE",
"480 78 OFFCURVE",
"470 44 CURVE",
"215 44 LINE",
"341 662 LINE",
"367 668 OFFCURVE",
"396 674 OFFCURVE",
"420 682 CURVE",
"424 700 LINE",
"141 700 LINE",
"138 684 LINE",
"162 674 OFFCURVE",
"187 668 OFFCURVE",
"210 663 CURVE",
"83 36 LINE",
"53 32 OFFCURVE",
"23 24 OFFCURVE",
"-4 16 CURVE",
"-7 0 LINE"
);
},
{
closed = 1;
nodes = (
"564 492 OFFCURVE",
"620 573 OFFCURVE",
"635 642 CURVE SMOOTH",
"642 682 OFFCURVE",
"633 724 OFFCURVE",
"578 724 CURVE SMOOTH",
"533 724 OFFCURVE",
"505 691 OFFCURVE",
"498 654 CURVE SMOOTH",
"489 608 OFFCURVE",
"520 592 OFFCURVE",
"552 592 CURVE",
"538 549 OFFCURVE",
"499 505 OFFCURVE",
"470 479 CURVE",
"504 446 LINE"
);
}
);
width = 611;
}
);
note = Lcaron;
rightKerningGroup = L;
unicode = 013D;
},
{
glyphname = Lcommaaccent;
lastChange = "2015-10-27 10:06:30 +0000";
layers = (
{
layerId = "097E1CCD-D4DB-46B5-97AF-AA821C3DB512";
name = "Bold Italic";
paths = (
{
closed = 1;
nodes = (
"518 0 LINE",
"568 165 LINE",
"540 165 LINE",
"520 144 OFFCURVE",
"480 78 OFFCURVE",
"470 44 CURVE",
"215 44 LINE",
"341 662 LINE",
"367 668 OFFCURVE",
"396 674 OFFCURVE",
"420 682 CURVE",
"424 700 LINE",
"141 700 LINE",
"138 684 LINE",
"162 674 OFFCURVE",
"187 668 OFFCURVE",
"210 663 CURVE",
"83 36 LINE",
"53 32 OFFCURVE",
"23 24 OFFCURVE",
"-4 16 CURVE",
"-7 0 LINE"
);
},
{
closed = 1;
nodes = (
"250 -300 OFFCURVE",
"303 -220 OFFCURVE",
"317 -151 CURVE SMOOTH",
"325 -111 OFFCURVE",
"312 -77 OFFCURVE",
"263 -77 CURVE SMOOTH",
"229 -77 OFFCURVE",
"194 -99 OFFCURVE",
"186 -138 CURVE SMOOTH",
"179 -177 OFFCURVE",
"200 -199 OFFCURVE",
"238 -200 CURVE",
"224 -243 OFFCURVE",
"185 -287 OFFCURVE",
"156 -314 CURVE",
"191 -346 LINE"
);
}
);
width = 611;
}
);
note = Lcommaaccent;
rightKerningGroup = L;
unicode = 013B;
},
{
glyphname = Ldot;
lastChange = "2015-10-27 10:06:31 +0000";
layers = (
{
layerId = "097E1CCD-D4DB-46B5-97AF-AA821C3DB512";
name = "Bold Italic";
paths = (
{
closed = 1;
nodes = (
"518 0 LINE",
"568 165 LINE",
"540 165 LINE",
"520 144 OFFCURVE",
"480 78 OFFCURVE",
"470 44 CURVE",
"215 44 LINE",
"341 662 LINE",
"367 668 OFFCURVE",
"396 674 OFFCURVE",
"420 682 CURVE",
"424 700 LINE",
"141 700 LINE",
"138 684 LINE",
"162 674 OFFCURVE",
"187 668 OFFCURVE",
"210 663 CURVE",
"83 36 LINE",
"53 32 OFFCURVE",
"23 24 OFFCURVE",
"-4 16 CURVE",
"-7 0 LINE"
);
},
{
closed = 1;
nodes = (
"484 328 OFFCURVE",
"510 352 OFFCURVE",
"516 385 CURVE SMOOTH",
"523 416 OFFCURVE",
"507 441 OFFCURVE",
"474 441 CURVE SMOOTH",
"442 441 OFFCURVE",
"416 416 OFFCURVE",
"409 385 CURVE SMOOTH",
"402 352 OFFCURVE",
"419 328 OFFCURVE",
"451 328 CURVE SMOOTH"
);
}
);
width = 611;
}
);
note = Ldot;
rightKerningGroup = L;
unicode = 013F;
},
{
glyphname = Ldotbelow;
lastChange = "2015-10-27 10:06:31 +0000";
layers = (
{
layerId = "097E1CCD-D4DB-46B5-97AF-AA821C3DB512";
name = "Bold Italic";
paths = (
{
closed = 1;
nodes = (
"518 0 LINE",
"568 165 LINE",
"540 165 LINE",
"520 144 OFFCURVE",
"480 78 OFFCURVE",
"470 44 CURVE",
"215 44 LINE",
"341 662 LINE",
"367 668 OFFCURVE",
"396 674 OFFCURVE",
"420 682 CURVE",
"424 700 LINE",
"141 700 LINE",
"138 684 LINE",
"162 674 OFFCURVE",
"187 668 OFFCURVE",
"210 663 CURVE",
"83 36 LINE",
"53 32 OFFCURVE",
"23 24 OFFCURVE",
"-4 16 CURVE",
"-7 0 LINE"
);
},
{
closed = 1;
nodes = (
"278 -165 OFFCURVE",
"305 -141 OFFCURVE",
"312 -108 CURVE SMOOTH",
"318 -77 OFFCURVE",
"301 -52 OFFCURVE",
"270 -52 CURVE SMOOTH",
"236 -52 OFFCURVE",
"211 -77 OFFCURVE",
"205 -108 CURVE SMOOTH",
"199 -141 OFFCURVE",
"213 -165 OFFCURVE",
"247 -165 CURVE SMOOTH"
);
}
);
width = 611;
}
);
note = Ldotbelow;
rightKerningGroup = L;
unicode = 1E36;
},
{
glyphname = Ldotbelowmacron;
lastChange = "2015-10-27 10:06:31 +0000";
layers = (
{
layerId = "097E1CCD-D4DB-46B5-97AF-AA821C3DB512";
name = "Bold Italic";
paths = (
{
closed = 1;
nodes = (
"518 0 LINE",
"568 165 LINE",
"540 165 LINE",
"520 144 OFFCURVE",
"480 78 OFFCURVE",
"470 44 CURVE",
"215 44 LINE",
"341 662 LINE",
"367 668 OFFCURVE",
"396 674 OFFCURVE",
"420 682 CURVE",
"424 700 LINE",
"141 700 LINE",
"138 684 LINE",
"162 674 OFFCURVE",
"187 668 OFFCURVE",
"210 663 CURVE",
"83 36 LINE",
"53 32 OFFCURVE",
"23 24 OFFCURVE",
"-4 16 CURVE",
"-7 0 LINE"
);
},
{
closed = 1;
nodes = (
"277 -165 OFFCURVE",
"304 -141 OFFCURVE",
"311 -108 CURVE SMOOTH",
"317 -77 OFFCURVE",
"300 -52 OFFCURVE",
"267 -52 CURVE SMOOTH",
"235 -52 OFFCURVE",
"209 -77 OFFCURVE",
"204 -108 CURVE SMOOTH",
"197 -141 OFFCURVE",
"212 -165 OFFCURVE",
"244 -165 CURVE SMOOTH"
);
},
{
closed = 1;
nodes = (
"477 785 LINE",
"486 828 LINE",
"130 828 LINE",
"121 785 LINE"
);
}
);
width = 611;
}
);
note = Ldotbelowmacron;
rightKerningGroup = L;
unicode = 1E38;
},
{
glyphname = Llinebelow;
lastChange = "2015-10-27 10:06:33 +0000";
layers = (
{
layerId = "097E1CCD-D4DB-46B5-97AF-AA821C3DB512";
name = "Bold Italic";
paths = (
{
closed = 1;
nodes = (
"518 0 LINE",
"568 165 LINE",
"540 165 LINE",
"520 144 OFFCURVE",
"480 78 OFFCURVE",
"470 44 CURVE",
"215 44 LINE",
"341 662 LINE",
"367 668 OFFCURVE",
"396 674 OFFCURVE",
"420 682 CURVE",
"424 700 LINE",
"141 700 LINE",
"138 684 LINE",
"162 674 OFFCURVE",
"187 668 OFFCURVE",
"210 663 CURVE",
"83 36 LINE",
"53 32 OFFCURVE",
"23 24 OFFCURVE",
"-4 16 CURVE",
"-7 0 LINE"
);
},
{
closed = 1;
nodes = (
"424 -107 LINE",
"433 -64 LINE",
"78 -64 LINE",
"69 -107 LINE"
);
}
);
width = 611;
}
);
note = Llinebelow;
rightKerningGroup = L;
unicode = 1E3A;
},
{
glyphname = Lslash;
lastChange = "2015-10-27 10:06:33 +0000";
layers = (
{
layerId = "097E1CCD-D4DB-46B5-97AF-AA821C3DB512";
name = "Bold Italic";
paths = (
{
closed = 1;
nodes = (
"518 0 LINE",
"568 165 LINE",
"540 165 LINE",
"520 144 OFFCURVE",
"480 78 OFFCURVE",
"470 44 CURVE",
"215 44 LINE",
"341 662 LINE",
"367 668 OFFCURVE",
"396 674 OFFCURVE",
"420 682 CURVE",
"424 700 LINE",
"141 700 LINE",
"138 684 LINE",
"162 674 OFFCURVE",
"187 668 OFFCURVE",
"210 663 CURVE",
"83 36 LINE",
"53 32 OFFCURVE",
"23 24 OFFCURVE",
"-4 16 CURVE",
"-7 0 LINE"
);
},
{
closed = 1;
nodes = (
"476 379 LINE",
"489 440 LINE",
"57 290 LINE",
"44 229 LINE"
);
}
);
width = 611;
}
);
note = Lslash;
rightKerningGroup = L;
unicode = 0141;
},
{
glyphname = M;
lastChange = "2015-10-27 10:06:32 +0000";
layers = (
{
layerId = "097E1CCD-D4DB-46B5-97AF-AA821C3DB512";
name = "Bold Italic";
paths = (
{
closed = 1;
nodes = (
"201 0 LINE",
"204 15 LINE",
"180 24 OFFCURVE",
"156 30 OFFCURVE",
"132 35 CURVE",
"249 607 LINE",
"354 76 LINE",
"430 76 LINE",
"754 597 LINE",
"639 35 LINE",
"613 30 OFFCURVE",
"588 24 OFFCURVE",
"560 15 CURVE",
"557 0 LINE",
"839 0 LINE",
"842 15 LINE",
"817 24 OFFCURVE",
"793 30 OFFCURVE",
"770 35 CURVE",
"898 661 LINE",
"924 668 OFFCURVE",
"953 676 OFFCURVE",
"978 684 CURVE",
"981 700 LINE",
"766 700 LINE",
"445 181 LINE",
"351 700 LINE",
"135 700 LINE",
"132 684 LINE",
"156 674 OFFCURVE",
"182 668 OFFCURVE",
"204 663 CURVE",
"77 35 LINE",
"52 30 OFFCURVE",
"25 24 OFFCURVE",
"-3 15 CURVE",
"-6 0 LINE"
);
}
);
width = 910;
}
);
note = M;
unicode = 004D;
},
{
glyphname = Mdotbelow;
lastChange = "2015-10-27 10:06:30 +0000";
layers = (
{
layerId = "097E1CCD-D4DB-46B5-97AF-AA821C3DB512";
name = "Bold Italic";
paths = (
{
closed = 1;
nodes = (
"201 0 LINE",
"204 15 LINE",
"180 24 OFFCURVE",
"156 30 OFFCURVE",
"132 35 CURVE",
"249 607 LINE",
"354 76 LINE",
"430 76 LINE",
"754 597 LINE",
"639 35 LINE",
"613 30 OFFCURVE",
"588 24 OFFCURVE",
"560 15 CURVE",
"557 0 LINE",
"839 0 LINE",
"842 15 LINE",
"817 24 OFFCURVE",
"793 30 OFFCURVE",
"770 35 CURVE",
"898 661 LINE",
"924 668 OFFCURVE",
"953 676 OFFCURVE",
"978 684 CURVE",
"981 700 LINE",
"766 700 LINE",
"445 181 LINE",
"351 700 LINE",
"135 700 LINE",
"132 684 LINE",
"156 674 OFFCURVE",
"182 668 OFFCURVE",
"204 663 CURVE",
"77 35 LINE",
"52 30 OFFCURVE",
"25 24 OFFCURVE",
"-3 15 CURVE",
"-6 0 LINE"
);
},
{
closed = 1;
nodes = (
"414 -169 OFFCURVE",
"440 -145 OFFCURVE",
"445 -113 CURVE SMOOTH",
"452 -80 OFFCURVE",
"437 -56 OFFCURVE",
"404 -56 CURVE SMOOTH",
"372 -56 OFFCURVE",
"345 -80 OFFCURVE",
"338 -113 CURVE SMOOTH",
"332 -145 OFFCURVE",
"348 -169 OFFCURVE",
"381 -169 CURVE SMOOTH"
);
}
);
width = 910;
}
);
note = Mdotbelow;
unicode = 1E42;
},
{
glyphname = N;
lastChange = "2015-10-27 10:06:33 +0000";
layers = (
{
layerId = "097E1CCD-D4DB-46B5-97AF-AA821C3DB512";
name = "Bold Italic";
paths = (
{
closed = 1;
nodes = (
"201 0 LINE",
"204 15 LINE",
"180 24 OFFCURVE",
"156 30 OFFCURVE",
"132 35 CURVE",
"252 630 LINE",
"537 0 LINE",
"605 0 LINE",
"740 664 LINE",
"766 669 OFFCURVE",
"792 675 OFFCURVE",
"821 684 CURVE",
"824 700 LINE",
"616 700 LINE",
"613 684 LINE",
"638 675 OFFCURVE",
"662 669 OFFCURVE",
"685 664 CURVE",
"584 165 LINE",
"346 700 LINE",
"135 700 LINE",
"132 684 LINE",
"156 674 OFFCURVE",
"181 668 OFFCURVE",
"204 663 CURVE",
"77 35 LINE",
"52 30 OFFCURVE",
"25 24 OFFCURVE",
"-3 15 CURVE",
"-6 0 LINE"
);
}
);
width = 752;
}
);
note = N;
unicode = 004E;
},
{
glyphname = Nacute;
lastChange = "2015-10-27 10:06:30 +0000";
layers = (
{
layerId = "097E1CCD-D4DB-46B5-97AF-AA821C3DB512";
name = "Bold Italic";
paths = (
{
closed = 1;
nodes = (
"201 0 LINE",
"204 15 LINE",
"180 24 OFFCURVE",
"156 30 OFFCURVE",
"132 35 CURVE",
"252 630 LINE",
"537 0 LINE",
"605 0 LINE",
"740 664 LINE",
"766 669 OFFCURVE",
"792 675 OFFCURVE",
"821 684 CURVE",
"824 700 LINE",
"616 700 LINE",
"613 684 LINE",
"638 675 OFFCURVE",
"662 669 OFFCURVE",
"685 664 CURVE",
"584 165 LINE",
"346 700 LINE",
"135 700 LINE",
"132 684 LINE",
"156 674 OFFCURVE",
"181 668 OFFCURVE",
"204 663 CURVE",
"77 35 LINE",
"52 30 OFFCURVE",
"25 24 OFFCURVE",
"-3 15 CURVE",
"-6 0 LINE"
);
},
{
closed = 1;
nodes = (
"616 875 LINE SMOOTH",
"647 892 OFFCURVE",
"665 909 OFFCURVE",
"669 930 CURVE",
"673 947 OFFCURVE",
"666 967 OFFCURVE",
"637 967 CURVE SMOOTH",
"609 967 OFFCURVE",
"582 943 OFFCURVE",
"575 936 CURVE",
"435 817 LINE",
"450 786 LINE"
);
}
);
width = 752;
}
);
note = Nacute;
unicode = 0143;
},
{
glyphname = Ncaron;
lastChange = "2015-10-27 10:06:31 +0000";
layers = (
{
layerId = "097E1CCD-D4DB-46B5-97AF-AA821C3DB512";
name = "Bold Italic";
paths = (
{
closed = 1;
nodes = (
"201 0 LINE",
"204 15 LINE",
"180 24 OFFCURVE",
"156 30 OFFCURVE",
"132 35 CURVE",
"252 630 LINE",
"537 0 LINE",
"605 0 LINE",
"740 664 LINE",
"766 669 OFFCURVE",
"792 675 OFFCURVE",
"821 684 CURVE",
"824 700 LINE",
"616 700 LINE",
"613 684 LINE",
"638 675 OFFCURVE",
"662 669 OFFCURVE",
"685 664 CURVE",
"584 165 LINE",
"346 700 LINE",
"135 700 LINE",
"132 684 LINE",
"156 674 OFFCURVE",
"181 668 OFFCURVE",
"204 663 CURVE",
"77 35 LINE",
"52 30 OFFCURVE",
"25 24 OFFCURVE",
"-3 15 CURVE",
"-6 0 LINE"
);
},
{
closed = 1;
nodes = (
"525 786 LINE",
"558 824 OFFCURVE",
"647 894 OFFCURVE",
"694 922 CURVE",
"650 963 LINE",
"606 932 OFFCURVE",
"540 877 OFFCURVE",
"508 841 CURVE",
"504 841 LINE",
"489 877 OFFCURVE",
"444 932 OFFCURVE",
"412 963 CURVE",
"353 922 LINE",
"388 894 OFFCURVE",
"448 824 OFFCURVE",
"466 786 CURVE"
);
}
);
width = 752;
}
);
note = Ncaron;
unicode = 0147;
},
{
glyphname = Ncommaaccent;
lastChange = "2015-10-27 10:06:33 +0000";
layers = (
{
layerId = "097E1CCD-D4DB-46B5-97AF-AA821C3DB512";
name = "Bold Italic";
paths = (
{
closed = 1;
nodes = (
"201 0 LINE",
"204 15 LINE",
"180 24 OFFCURVE",
"156 30 OFFCURVE",
"132 35 CURVE",
"252 630 LINE",
"537 0 LINE",
"605 0 LINE",
"740 664 LINE",
"766 669 OFFCURVE",
"792 675 OFFCURVE",
"821 684 CURVE",
"824 700 LINE",
"616 700 LINE",
"613 684 LINE",
"638 675 OFFCURVE",
"662 669 OFFCURVE",
"685 664 CURVE",
"584 165 LINE",
"346 700 LINE",
"135 700 LINE",
"132 684 LINE",
"156 674 OFFCURVE",
"181 668 OFFCURVE",
"204 663 CURVE",
"77 35 LINE",
"52 30 OFFCURVE",
"25 24 OFFCURVE",
"-3 15 CURVE",
"-6 0 LINE"
);
},
{
closed = 1;
nodes = (
"311 -300 OFFCURVE",
"365 -220 OFFCURVE",
"378 -151 CURVE SMOOTH",
"387 -111 OFFCURVE",
"373 -77 OFFCURVE",
"324 -77 CURVE SMOOTH",
"291 -77 OFFCURVE",
"255 -99 OFFCURVE",
"248 -138 CURVE SMOOTH",
"240 -177 OFFCURVE",
"261 -199 OFFCURVE",
"300 -200 CURVE",
"285 -243 OFFCURVE",
"247 -287 OFFCURVE",
"218 -314 CURVE",
"252 -346 LINE"
);
}
);
width = 752;
}
);
note = Ncommaaccent;
unicode = 0145;
},
{
glyphname = Ndotaccent;
lastChange = "2015-10-27 10:06:31 +0000";
layers = (
{
layerId = "097E1CCD-D4DB-46B5-97AF-AA821C3DB512";
name = "Bold Italic";
paths = (
{
closed = 1;
nodes = (
"201 0 LINE",
"204 15 LINE",
"180 24 OFFCURVE",
"156 30 OFFCURVE",
"132 35 CURVE",
"252 630 LINE",
"537 0 LINE",
"605 0 LINE",
"740 664 LINE",
"766 669 OFFCURVE",
"792 675 OFFCURVE",
"821 684 CURVE",
"824 700 LINE",
"616 700 LINE",
"613 684 LINE",
"638 675 OFFCURVE",
"662 669 OFFCURVE",
"685 664 CURVE",
"584 165 LINE",
"346 700 LINE",
"135 700 LINE",
"132 684 LINE",
"156 674 OFFCURVE",
"181 668 OFFCURVE",
"204 663 CURVE",
"77 35 LINE",
"52 30 OFFCURVE",
"25 24 OFFCURVE",
"-3 15 CURVE",
"-6 0 LINE"
);
},
{
closed = 1;
nodes = (
"529 785 OFFCURVE",
"556 809 OFFCURVE",
"562 841 CURVE SMOOTH",
"568 874 OFFCURVE",
"552 898 OFFCURVE",
"520 898 CURVE SMOOTH",
"487 898 OFFCURVE",
"462 874 OFFCURVE",
"455 841 CURVE SMOOTH",
"449 809 OFFCURVE",
"464 785 OFFCURVE",
"497 785 CURVE SMOOTH"
);
}
);
width = 752;
}
);
note = Ndotaccent;
unicode = 1E44;
},
{
glyphname = Ndotbelow;
lastChange = "2015-10-27 10:06:32 +0000";
layers = (
{
layerId = "097E1CCD-D4DB-46B5-97AF-AA821C3DB512";
name = "Bold Italic";
paths = (
{
closed = 1;
nodes = (
"201 0 LINE",
"204 15 LINE",
"180 24 OFFCURVE",
"156 30 OFFCURVE",
"132 35 CURVE",
"252 630 LINE",
"537 0 LINE",
"605 0 LINE",
"740 664 LINE",
"766 669 OFFCURVE",
"792 675 OFFCURVE",
"821 684 CURVE",
"824 700 LINE",
"616 700 LINE",
"613 684 LINE",
"638 675 OFFCURVE",
"662 669 OFFCURVE",
"685 664 CURVE",
"584 165 LINE",
"346 700 LINE",
"135 700 LINE",
"132 684 LINE",
"156 674 OFFCURVE",
"181 668 OFFCURVE",
"204 663 CURVE",
"77 35 LINE",
"52 30 OFFCURVE",
"25 24 OFFCURVE",
"-3 15 CURVE",
"-6 0 LINE"
);
},
{
closed = 1;
nodes = (
"330 -169 OFFCURVE",
"356 -145 OFFCURVE",
"362 -113 CURVE SMOOTH",
"369 -80 OFFCURVE",
"353 -56 OFFCURVE",
"321 -56 CURVE SMOOTH",
"288 -56 OFFCURVE",
"261 -80 OFFCURVE",
"254 -113 CURVE SMOOTH",
"249 -145 OFFCURVE",
"265 -169 OFFCURVE",
"298 -169 CURVE SMOOTH"
);
}
);
width = 752;
}
);
note = uni1E46;
unicode = 1E46;
},
{
glyphname = Eng;
lastChange = "2015-10-27 10:06:32 +0000";
layers = (
{
layerId = "097E1CCD-D4DB-46B5-97AF-AA821C3DB512";
name = "Bold Italic";
paths = (
{
closed = 1;
nodes = (
"493 -250 OFFCURVE",
"563 -205 OFFCURVE",
"583 -105 CURVE SMOOTH",
"740 664 LINE",
"766 669 OFFCURVE",
"792 675 OFFCURVE",
"821 684 CURVE",
"824 700 LINE",
"616 700 LINE",
"613 684 LINE",
"638 675 OFFCURVE",
"662 669 OFFCURVE",
"685 664 CURVE",
"584 165 LINE",
"346 700 LINE",
"135 700 LINE",
"132 684 LINE",
"156 674 OFFCURVE",
"181 668 OFFCURVE",
"204 663 CURVE",
"77 35 LINE",
"52 30 OFFCURVE",
"25 24 OFFCURVE",
"-3 15 CURVE",
"-6 0 LINE",
"201 0 LINE",
"204 15 LINE",
"180 24 OFFCURVE",
"156 30 OFFCURVE",
"132 35 CURVE",
"252 630 LINE",
"549 -6 LINE",
"529 -106 LINE SMOOTH",
"515 -176 OFFCURVE",
"456 -201 OFFCURVE",
"396 -201 CURVE SMOOTH",
"361 -201 OFFCURVE",
"331 -195 OFFCURVE",
"309 -185 CURVE",
"294 -220 LINE",
"325 -238 OFFCURVE",
"362 -250 OFFCURVE",
"407 -250 CURVE SMOOTH"
);
}
);
width = 752;
}
);
note = Eng;
unicode = 014A;
},
{
glyphname = Nlinebelow;
lastChange = "2015-10-27 10:06:30 +0000";
layers = (
{
layerId = "097E1CCD-D4DB-46B5-97AF-AA821C3DB512";
name = "Bold Italic";
paths = (
{
closed = 1;
nodes = (
"201 0 LINE",
"204 15 LINE",
"180 24 OFFCURVE",
"156 30 OFFCURVE",
"132 35 CURVE",
"252 630 LINE",
"537 0 LINE",
"605 0 LINE",
"740 664 LINE",
"766 669 OFFCURVE",
"792 675 OFFCURVE",
"821 684 CURVE",
"824 700 LINE",
"616 700 LINE",
"613 684 LINE",
"638 675 OFFCURVE",
"662 669 OFFCURVE",
"685 664 CURVE",
"584 165 LINE",
"346 700 LINE",
"135 700 LINE",
"132 684 LINE",
"156 674 OFFCURVE",
"181 668 OFFCURVE",
"204 663 CURVE",
"77 35 LINE",
"52 30 OFFCURVE",
"25 24 OFFCURVE",
"-3 15 CURVE",
"-6 0 LINE"
);
},
{
closed = 1;
nodes = (
"494 -107 LINE",
"503 -64 LINE",
"148 -64 LINE",
"139 -107 LINE"
);
}
);
width = 752;
}
);
note = Nlinebelow;
unicode = 1E48;
},
{
glyphname = Ntilde;
lastChange = "2015-10-27 10:06:30 +0000";
layers = (
{
layerId = "097E1CCD-D4DB-46B5-97AF-AA821C3DB512";
name = "Bold Italic";
paths = (
{
closed = 1;
nodes = (
"201 0 LINE",
"204 15 LINE",
"180 24 OFFCURVE",
"156 30 OFFCURVE",
"132 35 CURVE",
"252 630 LINE",
"537 0 LINE",
"605 0 LINE",
"740 664 LINE",
"766 669 OFFCURVE",
"792 675 OFFCURVE",
"821 684 CURVE",
"824 700 LINE",
"616 700 LINE",
"613 684 LINE",
"638 675 OFFCURVE",
"662 669 OFFCURVE",
"685 664 CURVE",
"584 165 LINE",
"346 700 LINE",
"135 700 LINE",
"132 684 LINE",
"156 674 OFFCURVE",
"181 668 OFFCURVE",
"204 663 CURVE",
"77 35 LINE",
"52 30 OFFCURVE",
"25 24 OFFCURVE",
"-3 15 CURVE",
"-6 0 LINE"
);
},
{
closed = 1;
nodes = (
"372 786 LINE",
"385 819 OFFCURVE",
"411 840 OFFCURVE",
"440 840 CURVE SMOOTH",
"476 840 OFFCURVE",
"524 786 OFFCURVE",
"578 786 CURVE SMOOTH",
"646 786 OFFCURVE",
"687 832 OFFCURVE",
"709 900 CURVE",
"660 900 LINE",
"641 855 OFFCURVE",
"613 844 OFFCURVE",
"588 844 CURVE SMOOTH",
"548 844 OFFCURVE",
"516 897 OFFCURVE",
"452 897 CURVE SMOOTH",
"392 897 OFFCURVE",
"345 860 OFFCURVE",
"321 786 CURVE"
);
}
);
width = 752;
}
);
note = Ntilde;
unicode = 00D1;
},
{
glyphname = O;
lastChange = "2015-10-27 10:06:31 +0000";
layers = (
{
layerId = "097E1CCD-D4DB-46B5-97AF-AA821C3DB512";
name = "Bold Italic";
paths = (
{
closed = 1;
nodes = (
"529 -10 OFFCURVE",
"672 127 OFFCURVE",
"718 350 CURVE SMOOTH",
"763 572 OFFCURVE",
"676 710 OFFCURVE",
"465 710 CURVE SMOOTH",
"252 710 OFFCURVE",
"111 572 OFFCURVE",
"66 350 CURVE SMOOTH",
"20 127 OFFCURVE",
"106 -10 OFFCURVE",
"318 -10 CURVE SMOOTH"
);
},
{
closed = 1;
nodes = (
"194 37 OFFCURVE",
"160 168 OFFCURVE",
"198 350 CURVE SMOOTH",
"234 531 OFFCURVE",
"322 663 OFFCURVE",
"455 663 CURVE SMOOTH",
"588 663 OFFCURVE",
"623 531 OFFCURVE",
"587 350 CURVE SMOOTH",
"549 168 OFFCURVE",
"461 37 OFFCURVE",
"327 37 CURVE SMOOTH"
);
}
);
width = 719;
}
);
leftKerningGroup = O;
note = O;
rightKerningGroup = O;
unicode = 004F;
},
{
glyphname = Oacute;
lastChange = "2015-10-27 10:06:32 +0000";
layers = (
{
layerId = "097E1CCD-D4DB-46B5-97AF-AA821C3DB512";
name = "Bold Italic";
paths = (
{
closed = 1;
nodes = (
"529 -10 OFFCURVE",
"672 127 OFFCURVE",
"718 350 CURVE SMOOTH",
"763 572 OFFCURVE",
"676 710 OFFCURVE",
"465 710 CURVE SMOOTH",
"252 710 OFFCURVE",
"111 572 OFFCURVE",
"66 350 CURVE SMOOTH",
"20 127 OFFCURVE",
"106 -10 OFFCURVE",
"318 -10 CURVE SMOOTH"
);
},
{
closed = 1;
nodes = (
"194 37 OFFCURVE",
"160 168 OFFCURVE",
"198 350 CURVE SMOOTH",
"234 531 OFFCURVE",
"322 663 OFFCURVE",
"455 663 CURVE SMOOTH",
"588 663 OFFCURVE",
"623 531 OFFCURVE",
"587 350 CURVE SMOOTH",
"549 168 OFFCURVE",
"461 37 OFFCURVE",
"327 37 CURVE SMOOTH"
);
},
{
closed = 1;
nodes = (
"567 875 LINE SMOOTH",
"598 892 OFFCURVE",
"616 909 OFFCURVE",
"620 930 CURVE",
"624 947 OFFCURVE",
"617 967 OFFCURVE",
"588 967 CURVE SMOOTH",
"560 967 OFFCURVE",
"533 943 OFFCURVE",
"526 936 CURVE",
"386 817 LINE",
"401 786 LINE"
);
}
);
width = 719;
}
);
leftKerningGroup = O;
note = Oacute;
rightKerningGroup = O;
unicode = 00D3;
},
{
glyphname = Obreve;
lastChange = "2015-10-27 10:06:33 +0000";
layers = (
{
layerId = "097E1CCD-D4DB-46B5-97AF-AA821C3DB512";
name = "Bold Italic";
paths = (
{
closed = 1;
nodes = (
"529 -10 OFFCURVE",
"672 127 OFFCURVE",
"718 350 CURVE SMOOTH",
"763 572 OFFCURVE",
"676 710 OFFCURVE",
"465 710 CURVE SMOOTH",
"252 710 OFFCURVE",
"111 572 OFFCURVE",
"66 350 CURVE SMOOTH",
"20 127 OFFCURVE",
"106 -10 OFFCURVE",
"318 -10 CURVE SMOOTH"
);
},
{
closed = 1;
nodes = (
"194 37 OFFCURVE",
"160 168 OFFCURVE",
"198 350 CURVE SMOOTH",
"234 531 OFFCURVE",
"322 663 OFFCURVE",
"455 663 CURVE SMOOTH",
"588 663 OFFCURVE",
"623 531 OFFCURVE",
"587 350 CURVE SMOOTH",
"549 168 OFFCURVE",
"461 37 OFFCURVE",
"327 37 CURVE SMOOTH"
);
},
{
closed = 1;
nodes = (
"567 779 OFFCURVE",
"639 821 OFFCURVE",
"670 910 CURVE",
"597 910 LINE",
"574 836 OFFCURVE",
"527 826 OFFCURVE",
"488 826 CURVE SMOOTH",
"448 826 OFFCURVE",
"404 836 OFFCURVE",
"412 910 CURVE",
"340 910 LINE",
"335 821 OFFCURVE",
"388 779 OFFCURVE",
"478 779 CURVE SMOOTH"
);
}
);
width = 719;
}
);
leftKerningGroup = O;
note = Obreve;
rightKerningGroup = O;
unicode = 014E;
},
{
glyphname = Ocaron;
lastChange = "2015-10-27 10:06:30 +0000";
layers = (
{
layerId = "097E1CCD-D4DB-46B5-97AF-AA821C3DB512";
name = "Bold Italic";
paths = (
{
closed = 1;
nodes = (
"529 -10 OFFCURVE",
"672 127 OFFCURVE",
"718 350 CURVE SMOOTH",
"763 572 OFFCURVE",
"676 710 OFFCURVE",
"465 710 CURVE SMOOTH",
"252 710 OFFCURVE",
"111 572 OFFCURVE",
"66 350 CURVE SMOOTH",
"20 127 OFFCURVE",
"106 -10 OFFCURVE",
"318 -10 CURVE SMOOTH"
);
},
{
closed = 1;
nodes = (
"194 37 OFFCURVE",
"160 168 OFFCURVE",
"198 350 CURVE SMOOTH",
"234 531 OFFCURVE",
"322 663 OFFCURVE",
"455 663 CURVE SMOOTH",
"588 663 OFFCURVE",
"623 531 OFFCURVE",
"587 350 CURVE SMOOTH",
"549 168 OFFCURVE",
"461 37 OFFCURVE",
"327 37 CURVE SMOOTH"
);
},
{
closed = 1;
nodes = (
"510 786 LINE",
"542 824 OFFCURVE",
"632 894 OFFCURVE",
"679 922 CURVE",
"635 963 LINE",
"590 932 OFFCURVE",
"524 877 OFFCURVE",
"492 841 CURVE",
"489 841 LINE",
"473 877 OFFCURVE",
"429 932 OFFCURVE",
"396 963 CURVE",
"338 922 LINE",
"372 894 OFFCURVE",
"433 824 OFFCURVE",
"450 786 CURVE"
);
}
);
width = 719;
}
);
leftKerningGroup = O;
note = Ocaron;
rightKerningGroup = O;
unicode = 01D1;
},
{
glyphname = Ocircumflex;
lastChange = "2015-10-27 10:06:32 +0000";
layers = (
{
layerId = "097E1CCD-D4DB-46B5-97AF-AA821C3DB512";
name = "Bold Italic";
paths = (
{
closed = 1;
nodes = (
"529 -10 OFFCURVE",
"672 127 OFFCURVE",
"718 350 CURVE SMOOTH",
"763 572 OFFCURVE",
"676 710 OFFCURVE",
"465 710 CURVE SMOOTH",
"252 710 OFFCURVE",
"111 572 OFFCURVE",
"66 350 CURVE SMOOTH",
"20 127 OFFCURVE",
"106 -10 OFFCURVE",
"318 -10 CURVE SMOOTH"
);
},
{
closed = 1;
nodes = (
"194 37 OFFCURVE",
"160 168 OFFCURVE",
"198 350 CURVE SMOOTH",
"234 531 OFFCURVE",
"322 663 OFFCURVE",
"455 663 CURVE SMOOTH",
"588 663 OFFCURVE",
"623 531 OFFCURVE",
"587 350 CURVE SMOOTH",
"549 168 OFFCURVE",
"461 37 OFFCURVE",
"327 37 CURVE SMOOTH"
);
},
{
closed = 1;
nodes = (
"403 813 OFFCURVE",
"470 868 OFFCURVE",
"501 904 CURVE",
"505 904 LINE",
"521 868 OFFCURVE",
"564 813 OFFCURVE",
"597 782 CURVE",
"657 823 LINE",
"621 851 OFFCURVE",
"562 922 OFFCURVE",
"543 959 CURVE",
"484 959 LINE",
"452 922 OFFCURVE",
"362 851 OFFCURVE",
"316 823 CURVE",
"360 782 LINE"
);
}
);
width = 719;
}
);
leftKerningGroup = O;
note = Ocircumflex;
rightKerningGroup = O;
unicode = 00D4;
},
{
glyphname = Ocircumflexacute;
lastChange = "2015-10-27 10:06:31 +0000";
layers = (
{
layerId = "097E1CCD-D4DB-46B5-97AF-AA821C3DB512";
name = "Bold Italic";
paths = (
{
closed = 1;
nodes = (
"529 -10 OFFCURVE",
"672 127 OFFCURVE",
"718 350 CURVE SMOOTH",
"763 572 OFFCURVE",
"676 710 OFFCURVE",
"465 710 CURVE SMOOTH",
"252 710 OFFCURVE",
"111 572 OFFCURVE",
"66 350 CURVE SMOOTH",
"20 127 OFFCURVE",
"106 -10 OFFCURVE",
"318 -10 CURVE SMOOTH"
);
},
{
closed = 1;
nodes = (
"194 37 OFFCURVE",
"160 168 OFFCURVE",
"198 350 CURVE SMOOTH",
"234 531 OFFCURVE",
"322 663 OFFCURVE",
"455 663 CURVE SMOOTH",
"588 663 OFFCURVE",
"623 531 OFFCURVE",
"587 350 CURVE SMOOTH",
"549 168 OFFCURVE",
"461 37 OFFCURVE",
"327 37 CURVE SMOOTH"
);
},
{
closed = 1;
nodes = (
"405 813 OFFCURVE",
"470 868 OFFCURVE",
"502 904 CURVE",
"506 904 LINE",
"522 868 OFFCURVE",
"565 813 OFFCURVE",
"598 782 CURVE",
"657 823 LINE",
"623 851 OFFCURVE",
"563 922 OFFCURVE",
"544 959 CURVE",
"485 959 LINE",
"453 922 OFFCURVE",
"363 851 OFFCURVE",
"316 823 CURVE",
"361 782 LINE"
);
},
{
closed = 1;
nodes = (
"744 967 LINE SMOOTH",
"786 987 OFFCURVE",
"809 1012 OFFCURVE",
"813 1033 CURVE",
"817 1050 OFFCURVE",
"807 1066 OFFCURVE",
"784 1066 CURVE SMOOTH",
"763 1066 OFFCURVE",
"736 1051 OFFCURVE",
"708 1024 CURVE SMOOTH",
"621 942 LINE",
"635 915 LINE"
);
}
);
width = 719;
}
);
leftKerningGroup = O;
note = Ocircumflexacute;
rightKerningGroup = O;
unicode = 1ED0;
},
{
glyphname = Ocircumflexdotbelow;
lastChange = "2015-10-27 10:06:31 +0000";
layers = (
{
layerId = "097E1CCD-D4DB-46B5-97AF-AA821C3DB512";
name = "Bold Italic";
paths = (
{
closed = 1;
nodes = (
"529 -10 OFFCURVE",
"672 127 OFFCURVE",
"718 350 CURVE SMOOTH",
"763 572 OFFCURVE",
"676 710 OFFCURVE",
"465 710 CURVE SMOOTH",
"252 710 OFFCURVE",
"111 572 OFFCURVE",
"66 350 CURVE SMOOTH",
"20 127 OFFCURVE",
"106 -10 OFFCURVE",
"318 -10 CURVE SMOOTH"
);
},
{
closed = 1;
nodes = (
"319 -169 OFFCURVE",
"345 -145 OFFCURVE",
"350 -113 CURVE SMOOTH",
"357 -80 OFFCURVE",
"342 -56 OFFCURVE",
"309 -56 CURVE SMOOTH",
"276 -56 OFFCURVE",
"250 -80 OFFCURVE",
"243 -113 CURVE SMOOTH",
"237 -145 OFFCURVE",
"253 -169 OFFCURVE",
"286 -169 CURVE SMOOTH"
);
},
{
closed = 1;
nodes = (
"194 37 OFFCURVE",
"160 168 OFFCURVE",
"198 350 CURVE SMOOTH",
"234 531 OFFCURVE",
"322 663 OFFCURVE",
"455 663 CURVE SMOOTH",
"588 663 OFFCURVE",
"623 531 OFFCURVE",
"587 350 CURVE SMOOTH",
"549 168 OFFCURVE",
"461 37 OFFCURVE",
"327 37 CURVE SMOOTH"
);
},
{
closed = 1;
nodes = (
"403 813 OFFCURVE",
"470 868 OFFCURVE",
"501 904 CURVE",
"505 904 LINE",
"521 868 OFFCURVE",
"564 813 OFFCURVE",
"597 782 CURVE",
"657 823 LINE",
"621 851 OFFCURVE",
"562 922 OFFCURVE",
"543 959 CURVE",
"484 959 LINE",
"452 922 OFFCURVE",
"362 851 OFFCURVE",
"316 823 CURVE",
"360 782 LINE"
);
}
);
width = 719;
}
);
leftKerningGroup = O;
note = Ocircumflexdotbelow;
rightKerningGroup = O;
unicode = 1ED8;
},
{
glyphname = Ocircumflexgrave;
lastChange = "2015-10-27 10:06:32 +0000";
layers = (
{
layerId = "097E1CCD-D4DB-46B5-97AF-AA821C3DB512";
name = "Bold Italic";
paths = (
{
closed = 1;
nodes = (
"529 -10 OFFCURVE",
"672 127 OFFCURVE",
"718 350 CURVE SMOOTH",
"763 572 OFFCURVE",
"676 710 OFFCURVE",
"465 710 CURVE SMOOTH",
"252 710 OFFCURVE",
"111 572 OFFCURVE",
"66 350 CURVE SMOOTH",
"20 127 OFFCURVE",
"106 -10 OFFCURVE",
"318 -10 CURVE SMOOTH"
);
},
{
closed = 1;
nodes = (
"194 37 OFFCURVE",
"160 168 OFFCURVE",
"198 350 CURVE SMOOTH",
"234 531 OFFCURVE",
"322 663 OFFCURVE",
"455 663 CURVE SMOOTH",
"588 663 OFFCURVE",
"623 531 OFFCURVE",
"587 350 CURVE SMOOTH",
"549 168 OFFCURVE",
"461 37 OFFCURVE",
"327 37 CURVE SMOOTH"
);
},
{
closed = 1;
nodes = (
"405 942 LINE",
"351 1024 LINE SMOOTH",
"333 1051 OFFCURVE",
"312 1066 OFFCURVE",
"291 1066 CURVE SMOOTH",
"268 1066 OFFCURVE",
"252 1050 OFFCURVE",
"249 1033 CURVE",
"245 1012 OFFCURVE",
"258 988 OFFCURVE",
"292 967 CURVE SMOOTH",
"379 915 LINE"
);
},
{
closed = 1;
nodes = (
"405 813 OFFCURVE",
"470 868 OFFCURVE",
"502 904 CURVE",
"506 904 LINE",
"522 868 OFFCURVE",
"565 813 OFFCURVE",
"598 782 CURVE",
"657 823 LINE",
"623 851 OFFCURVE",
"563 922 OFFCURVE",
"544 959 CURVE",
"485 959 LINE",
"453 922 OFFCURVE",
"363 851 OFFCURVE",
"316 823 CURVE",
"361 782 LINE"
);
}
);
width = 719;
}
);
leftKerningGroup = O;
note = Ocircumflexgrave;
rightKerningGroup = O;
unicode = 1ED2;
},
{
glyphname = Ocircumflexhookabove;
lastChange = "2015-10-27 10:06:32 +0000";
layers = (
{
layerId = "097E1CCD-D4DB-46B5-97AF-AA821C3DB512";
name = "Bold Italic";
paths = (
{
closed = 1;
nodes = (
"529 -10 OFFCURVE",
"672 127 OFFCURVE",
"718 350 CURVE SMOOTH",
"763 572 OFFCURVE",
"676 710 OFFCURVE",
"465 710 CURVE SMOOTH",
"252 710 OFFCURVE",
"111 572 OFFCURVE",
"66 350 CURVE SMOOTH",
"20 127 OFFCURVE",
"106 -10 OFFCURVE",
"318 -10 CURVE SMOOTH"
);
},
{
closed = 1;
nodes = (
"194 37 OFFCURVE",
"160 168 OFFCURVE",
"198 350 CURVE SMOOTH",
"234 531 OFFCURVE",
"322 663 OFFCURVE",
"455 663 CURVE SMOOTH",
"588 663 OFFCURVE",
"623 531 OFFCURVE",
"587 350 CURVE SMOOTH",
"549 168 OFFCURVE",
"461 37 OFFCURVE",
"327 37 CURVE SMOOTH"
);
},
{
closed = 1;
nodes = (
"406 816 OFFCURVE",
"471 871 OFFCURVE",
"503 907 CURVE",
"507 907 LINE",
"523 871 OFFCURVE",
"566 816 OFFCURVE",
"599 785 CURVE",
"658 826 LINE",
"624 854 OFFCURVE",
"564 925 OFFCURVE",
"545 962 CURVE",
"486 962 LINE",
"454 925 OFFCURVE",
"364 854 OFFCURVE",
"317 826 CURVE",
"362 785 LINE"
);
},
{
closed = 1;
nodes = (
"662 921 LINE",
"682 972 LINE",
"726 976 OFFCURVE",
"762 995 OFFCURVE",
"773 1043 CURVE SMOOTH",
"783 1096 OFFCURVE",
"739 1117 OFFCURVE",
"691 1117 CURVE SMOOTH",
"664 1117 OFFCURVE",
"637 1110 OFFCURVE",
"620 1103 CURVE",
"619 1070 LINE",
"636 1078 OFFCURVE",
"657 1082 OFFCURVE",
"672 1082 CURVE SMOOTH",
"706 1082 OFFCURVE",
"719 1065 OFFCURVE",
"715 1044 CURVE SMOOTH",
"708 1013 OFFCURVE",
"683 1000 OFFCURVE",
"656 1000 CURVE SMOOTH",
"628 1000 LINE",
"617 921 LINE"
);
}
);
width = 719;
}
);
leftKerningGroup = O;
note = Ocircumflexhookabove;
rightKerningGroup = O;
unicode = 1ED4;
},
{
glyphname = Ocircumflextilde;
lastChange = "2015-10-27 10:06:33 +0000";
layers = (
{
layerId = "097E1CCD-D4DB-46B5-97AF-AA821C3DB512";
name = "Bold Italic";
paths = (
{
closed = 1;
nodes = (
"529 -10 OFFCURVE",
"672 127 OFFCURVE",
"718 350 CURVE SMOOTH",
"763 572 OFFCURVE",
"676 710 OFFCURVE",
"465 710 CURVE SMOOTH",
"252 710 OFFCURVE",
"111 572 OFFCURVE",
"66 350 CURVE SMOOTH",
"20 127 OFFCURVE",
"106 -10 OFFCURVE",
"318 -10 CURVE SMOOTH"
);
},
{
closed = 1;
nodes = (
"194 37 OFFCURVE",
"160 168 OFFCURVE",
"198 350 CURVE SMOOTH",
"234 531 OFFCURVE",
"322 663 OFFCURVE",
"455 663 CURVE SMOOTH",
"588 663 OFFCURVE",
"623 531 OFFCURVE",
"587 350 CURVE SMOOTH",
"549 168 OFFCURVE",
"461 37 OFFCURVE",
"327 37 CURVE SMOOTH"
);
},
{
closed = 1;
nodes = (
"405 813 OFFCURVE",
"470 868 OFFCURVE",
"502 904 CURVE",
"506 904 LINE",
"522 868 OFFCURVE",
"565 813 OFFCURVE",
"598 782 CURVE",
"657 823 LINE",
"623 851 OFFCURVE",
"563 922 OFFCURVE",
"544 959 CURVE",
"485 959 LINE",
"453 922 OFFCURVE",
"363 851 OFFCURVE",
"316 823 CURVE",
"361 782 LINE"
);
},
{
closed = 1;
nodes = (
"394 988 LINE",
"407 1021 OFFCURVE",
"435 1042 OFFCURVE",
"465 1042 CURVE SMOOTH",
"505 1042 OFFCURVE",
"542 989 OFFCURVE",
"596 989 CURVE SMOOTH",
"662 989 OFFCURVE",
"705 1033 OFFCURVE",
"727 1101 CURVE",
"684 1101 LINE",
"664 1057 OFFCURVE",
"632 1045 OFFCURVE",
"608 1045 CURVE SMOOTH",
"568 1045 OFFCURVE",
"543 1098 OFFCURVE",
"480 1098 CURVE SMOOTH",
"420 1098 OFFCURVE",
"373 1062 OFFCURVE",
"349 988 CURVE"
);
}
);
width = 719;
}
);
leftKerningGroup = O;
note = Ocircumflextilde;
rightKerningGroup = O;
unicode = 1ED6;
},
{
glyphname = Odieresis;
lastChange = "2015-10-27 10:06:32 +0000";
layers = (
{
layerId = "097E1CCD-D4DB-46B5-97AF-AA821C3DB512";
name = "Bold Italic";
paths = (
{
closed = 1;
nodes = (
"529 -10 OFFCURVE",
"672 127 OFFCURVE",
"718 350 CURVE SMOOTH",
"763 572 OFFCURVE",
"676 710 OFFCURVE",
"465 710 CURVE SMOOTH",
"252 710 OFFCURVE",
"111 572 OFFCURVE",
"66 350 CURVE SMOOTH",
"20 127 OFFCURVE",
"106 -10 OFFCURVE",
"318 -10 CURVE SMOOTH"
);
},
{
closed = 1;
nodes = (
"194 37 OFFCURVE",
"160 168 OFFCURVE",
"198 350 CURVE SMOOTH",
"234 531 OFFCURVE",
"322 663 OFFCURVE",
"455 663 CURVE SMOOTH",
"588 663 OFFCURVE",
"623 531 OFFCURVE",
"587 350 CURVE SMOOTH",
"549 168 OFFCURVE",
"461 37 OFFCURVE",
"327 37 CURVE SMOOTH"
);
},
{
closed = 1;
nodes = (
"399 785 OFFCURVE",
"426 809 OFFCURVE",
"432 841 CURVE SMOOTH",
"439 874 OFFCURVE",
"422 898 OFFCURVE",
"389 898 CURVE SMOOTH",
"358 898 OFFCURVE",
"332 874 OFFCURVE",
"325 841 CURVE SMOOTH",
"320 809 OFFCURVE",
"335 785 OFFCURVE",
"366 785 CURVE SMOOTH"
);
},
{
closed = 1;
nodes = (
"623 785 OFFCURVE",
"650 809 OFFCURVE",
"656 841 CURVE SMOOTH",
"662 874 OFFCURVE",
"646 898 OFFCURVE",
"613 898 CURVE SMOOTH",
"580 898 OFFCURVE",
"555 874 OFFCURVE",
"548 841 CURVE SMOOTH",
"542 809 OFFCURVE",
"557 785 OFFCURVE",
"590 785 CURVE SMOOTH"
);
}
);
width = 719;
}
);
leftKerningGroup = O;
note = Odieresis;
rightKerningGroup = O;
unicode = 00D6;
},
{
glyphname = Odotbelow;
lastChange = "2015-10-27 10:06:33 +0000";
layers = (
{
layerId = "097E1CCD-D4DB-46B5-97AF-AA821C3DB512";
name = "Bold Italic";
paths = (
{
closed = 1;
nodes = (
"529 -10 OFFCURVE",
"672 127 OFFCURVE",
"718 350 CURVE SMOOTH",
"763 572 OFFCURVE",
"676 710 OFFCURVE",
"465 710 CURVE SMOOTH",
"252 710 OFFCURVE",
"111 572 OFFCURVE",
"66 350 CURVE SMOOTH",
"20 127 OFFCURVE",
"106 -10 OFFCURVE",
"318 -10 CURVE SMOOTH"
);
},
{
closed = 1;
nodes = (
"319 -169 OFFCURVE",
"345 -145 OFFCURVE",
"350 -113 CURVE SMOOTH",
"357 -80 OFFCURVE",
"342 -56 OFFCURVE",
"309 -56 CURVE SMOOTH",
"276 -56 OFFCURVE",
"250 -80 OFFCURVE",
"243 -113 CURVE SMOOTH",
"237 -145 OFFCURVE",
"253 -169 OFFCURVE",
"286 -169 CURVE SMOOTH"
);
},
{
closed = 1;
nodes = (
"194 37 OFFCURVE",
"160 168 OFFCURVE",
"198 350 CURVE SMOOTH",
"234 531 OFFCURVE",
"322 663 OFFCURVE",
"455 663 CURVE SMOOTH",
"588 663 OFFCURVE",
"623 531 OFFCURVE",
"587 350 CURVE SMOOTH",
"549 168 OFFCURVE",
"461 37 OFFCURVE",
"327 37 CURVE SMOOTH"
);
}
);
width = 719;
}
);
leftKerningGroup = O;
note = Odotbelow;
rightKerningGroup = O;
unicode = 1ECC;
},
{
glyphname = Ograve;
lastChange = "2015-10-27 10:06:30 +0000";
layers = (
{
layerId = "097E1CCD-D4DB-46B5-97AF-AA821C3DB512";
name = "Bold Italic";
paths = (
{
closed = 1;
nodes = (
"529 -10 OFFCURVE",
"672 127 OFFCURVE",
"718 350 CURVE SMOOTH",
"763 572 OFFCURVE",
"676 710 OFFCURVE",
"465 710 CURVE SMOOTH",
"252 710 OFFCURVE",
"111 572 OFFCURVE",
"66 350 CURVE SMOOTH",
"20 127 OFFCURVE",
"106 -10 OFFCURVE",
"318 -10 CURVE SMOOTH"
);
},
{
closed = 1;
nodes = (
"194 37 OFFCURVE",
"160 168 OFFCURVE",
"198 350 CURVE SMOOTH",
"234 531 OFFCURVE",
"322 663 OFFCURVE",
"455 663 CURVE SMOOTH",
"588 663 OFFCURVE",
"623 531 OFFCURVE",
"587 350 CURVE SMOOTH",
"549 168 OFFCURVE",
"461 37 OFFCURVE",
"327 37 CURVE SMOOTH"
);
},
{
closed = 1;
nodes = (
"586 817 LINE",
"494 937 LINE SMOOTH",
"489 945 OFFCURVE",
"468 967 OFFCURVE",
"442 967 CURVE SMOOTH",
"417 967 OFFCURVE",
"400 946 OFFCURVE",
"396 929 CURVE",
"393 908 OFFCURVE",
"404 892 OFFCURVE",
"429 875 CURVE SMOOTH",
"559 786 LINE"
);
}
);
width = 719;
}
);
leftKerningGroup = O;
note = Ograve;
rightKerningGroup = O;
unicode = 00D2;
},
{
glyphname = Ohookabove;
lastChange = "2015-10-27 10:06:32 +0000";
layers = (
{
layerId = "097E1CCD-D4DB-46B5-97AF-AA821C3DB512";
name = "Bold Italic";
paths = (
{
closed = 1;
nodes = (
"529 -10 OFFCURVE",
"672 127 OFFCURVE",
"718 350 CURVE SMOOTH",
"763 572 OFFCURVE",
"676 710 OFFCURVE",
"465 710 CURVE SMOOTH",
"252 710 OFFCURVE",
"111 572 OFFCURVE",
"66 350 CURVE SMOOTH",
"20 127 OFFCURVE",
"106 -10 OFFCURVE",
"318 -10 CURVE SMOOTH"
);
},
{
closed = 1;
nodes = (
"194 37 OFFCURVE",
"160 168 OFFCURVE",
"198 350 CURVE SMOOTH",
"234 531 OFFCURVE",
"322 663 OFFCURVE",
"455 663 CURVE SMOOTH",
"588 663 OFFCURVE",
"623 531 OFFCURVE",
"587 350 CURVE SMOOTH",
"549 168 OFFCURVE",
"461 37 OFFCURVE",
"327 37 CURVE SMOOTH"
);
},
{
closed = 1;
nodes = (
"507 781 LINE",
"531 849 LINE",
"584 854 OFFCURVE",
"623 876 OFFCURVE",
"635 931 CURVE SMOOTH",
"647 994 OFFCURVE",
"599 1018 OFFCURVE",
"544 1018 CURVE SMOOTH",
"514 1018 OFFCURVE",
"482 1010 OFFCURVE",
"461 1001 CURVE",
"460 965 LINE",
"483 976 OFFCURVE",
"505 981 OFFCURVE",
"522 981 CURVE SMOOTH",
"561 981 OFFCURVE",
"576 958 OFFCURVE",
"571 933 CURVE SMOOTH",
"564 897 OFFCURVE",
"533 881 OFFCURVE",
"502 881 CURVE SMOOTH",
"470 881 LINE",
"455 781 LINE"
);
}
);
width = 719;
}
);
leftKerningGroup = O;
note = Ohookabove;
rightKerningGroup = O;
unicode = 1ECE;
},
{
glyphname = Ohorn;
lastChange = "2015-10-27 10:06:33 +0000";
layers = (
{
layerId = "097E1CCD-D4DB-46B5-97AF-AA821C3DB512";
name = "Bold Italic";
paths = (
{
closed = 1;
nodes = (
"529 -10 OFFCURVE",
"672 127 OFFCURVE",
"718 350 CURVE SMOOTH",
"763 572 OFFCURVE",
"676 710 OFFCURVE",
"465 710 CURVE SMOOTH",
"252 710 OFFCURVE",
"111 572 OFFCURVE",
"66 350 CURVE SMOOTH",
"20 127 OFFCURVE",
"106 -10 OFFCURVE",
"318 -10 CURVE SMOOTH"
);
},
{
closed = 1;
nodes = (
"194 37 OFFCURVE",
"160 168 OFFCURVE",
"198 350 CURVE SMOOTH",
"234 531 OFFCURVE",
"322 663 OFFCURVE",
"455 663 CURVE SMOOTH",
"588 663 OFFCURVE",
"623 531 OFFCURVE",
"587 350 CURVE SMOOTH",
"549 168 OFFCURVE",
"461 37 OFFCURVE",
"327 37 CURVE SMOOTH"
);
},
{
closed = 1;
nodes = (
"810 545 OFFCURVE",
"859 610 OFFCURVE",
"869 660 CURVE SMOOTH",
"876 691 OFFCURVE",
"878 739 OFFCURVE",
"815 739 CURVE SMOOTH",
"764 739 OFFCURVE",
"744 705 OFFCURVE",
"738 678 CURVE SMOOTH",
"732 642 OFFCURVE",
"749 620 OFFCURVE",
"780 620 CURVE SMOOTH",
"786 620 OFFCURVE",
"791 621 OFFCURVE",
"798 624 CURVE",
"778 576 OFFCURVE",
"715 530 OFFCURVE",
"688 513 CURVE",
"706 480 LINE"
);
}
);
width = 756;
}
);
leftKerningGroup = O;
note = Ohorn;
rightKerningGroup = O;
unicode = 01A0;
},
{
glyphname = Ohornacute;
lastChange = "2015-10-27 10:06:33 +0000";
layers = (
{
layerId = "097E1CCD-D4DB-46B5-97AF-AA821C3DB512";
name = "Bold Italic";
paths = (
{
closed = 1;
nodes = (
"529 -10 OFFCURVE",
"672 127 OFFCURVE",
"718 350 CURVE SMOOTH",
"763 572 OFFCURVE",
"676 710 OFFCURVE",
"465 710 CURVE SMOOTH",
"252 710 OFFCURVE",
"111 572 OFFCURVE",
"66 350 CURVE SMOOTH",
"20 127 OFFCURVE",
"106 -10 OFFCURVE",
"318 -10 CURVE SMOOTH"
);
},
{
closed = 1;
nodes = (
"194 37 OFFCURVE",
"160 168 OFFCURVE",
"198 350 CURVE SMOOTH",
"234 531 OFFCURVE",
"322 663 OFFCURVE",
"455 663 CURVE SMOOTH",
"588 663 OFFCURVE",
"623 531 OFFCURVE",
"587 350 CURVE SMOOTH",
"549 168 OFFCURVE",
"461 37 OFFCURVE",
"327 37 CURVE SMOOTH"
);
},
{
closed = 1;
nodes = (
"568 874 LINE SMOOTH",
"599 891 OFFCURVE",
"617 908 OFFCURVE",
"621 929 CURVE",
"625 946 OFFCURVE",
"618 966 OFFCURVE",
"589 966 CURVE SMOOTH",
"561 966 OFFCURVE",
"534 942 OFFCURVE",
"527 935 CURVE",
"387 816 LINE",
"402 785 LINE"
);
},
{
closed = 1;
nodes = (
"810 545 OFFCURVE",
"859 610 OFFCURVE",
"869 660 CURVE SMOOTH",
"876 691 OFFCURVE",
"878 739 OFFCURVE",
"815 739 CURVE SMOOTH",
"764 739 OFFCURVE",
"744 705 OFFCURVE",
"738 678 CURVE SMOOTH",
"732 642 OFFCURVE",
"749 620 OFFCURVE",
"780 620 CURVE SMOOTH",
"786 620 OFFCURVE",
"791 621 OFFCURVE",
"798 624 CURVE",
"778 576 OFFCURVE",
"715 530 OFFCURVE",
"688 513 CURVE",
"706 480 LINE"
);
}
);
width = 756;
}
);
leftKerningGroup = O;
note = Ohornacute;
rightKerningGroup = O;
unicode = 1EDA;
},
{
glyphname = Ohorndotbelow;
lastChange = "2015-10-27 10:06:31 +0000";
layers = (
{
layerId = "097E1CCD-D4DB-46B5-97AF-AA821C3DB512";
name = "Bold Italic";
paths = (
{
closed = 1;
nodes = (
"529 -10 OFFCURVE",
"672 127 OFFCURVE",
"718 350 CURVE SMOOTH",
"763 572 OFFCURVE",
"676 710 OFFCURVE",
"465 710 CURVE SMOOTH",
"252 710 OFFCURVE",
"111 572 OFFCURVE",
"66 350 CURVE SMOOTH",
"20 127 OFFCURVE",
"106 -10 OFFCURVE",
"318 -10 CURVE SMOOTH"
);
},
{
closed = 1;
nodes = (
"319 -169 OFFCURVE",
"345 -145 OFFCURVE",
"350 -113 CURVE SMOOTH",
"357 -80 OFFCURVE",
"342 -56 OFFCURVE",
"309 -56 CURVE SMOOTH",
"276 -56 OFFCURVE",
"250 -80 OFFCURVE",
"243 -113 CURVE SMOOTH",
"237 -145 OFFCURVE",
"253 -169 OFFCURVE",
"286 -169 CURVE SMOOTH"
);
},
{
closed = 1;
nodes = (
"194 37 OFFCURVE",
"160 168 OFFCURVE",
"198 350 CURVE SMOOTH",
"234 531 OFFCURVE",
"322 663 OFFCURVE",
"455 663 CURVE SMOOTH",
"588 663 OFFCURVE",
"623 531 OFFCURVE",
"587 350 CURVE SMOOTH",
"549 168 OFFCURVE",
"461 37 OFFCURVE",
"327 37 CURVE SMOOTH"
);
},
{
closed = 1;
nodes = (
"810 545 OFFCURVE",
"859 610 OFFCURVE",
"869 660 CURVE SMOOTH",
"876 691 OFFCURVE",
"878 739 OFFCURVE",
"815 739 CURVE SMOOTH",
"764 739 OFFCURVE",
"744 705 OFFCURVE",
"738 678 CURVE SMOOTH",
"732 642 OFFCURVE",
"749 620 OFFCURVE",
"780 620 CURVE SMOOTH",
"786 620 OFFCURVE",
"791 621 OFFCURVE",
"798 624 CURVE",
"778 576 OFFCURVE",
"715 530 OFFCURVE",
"688 513 CURVE",
"706 480 LINE"
);
}
);
width = 756;
}
);
leftKerningGroup = O;
note = Ohorndotbelow;
rightKerningGroup = O;
unicode = 1EE2;
},
{
glyphname = Ohorngrave;
lastChange = "2015-10-27 10:06:31 +0000";
layers = (
{
layerId = "097E1CCD-D4DB-46B5-97AF-AA821C3DB512";
name = "Bold Italic";
paths = (
{
closed = 1;
nodes = (
"529 -10 OFFCURVE",
"672 127 OFFCURVE",
"718 350 CURVE SMOOTH",
"763 572 OFFCURVE",
"676 710 OFFCURVE",
"465 710 CURVE SMOOTH",
"252 710 OFFCURVE",
"111 572 OFFCURVE",
"66 350 CURVE SMOOTH",
"20 127 OFFCURVE",
"106 -10 OFFCURVE",
"318 -10 CURVE SMOOTH"
);
},
{
closed = 1;
nodes = (
"194 37 OFFCURVE",
"160 168 OFFCURVE",
"198 350 CURVE SMOOTH",
"234 531 OFFCURVE",
"322 663 OFFCURVE",
"455 663 CURVE SMOOTH",
"588 663 OFFCURVE",
"623 531 OFFCURVE",
"587 350 CURVE SMOOTH",
"549 168 OFFCURVE",
"461 37 OFFCURVE",
"327 37 CURVE SMOOTH"
);
},
{
closed = 1;
nodes = (
"587 816 LINE",
"495 936 LINE SMOOTH",
"490 944 OFFCURVE",
"469 966 OFFCURVE",
"443 966 CURVE SMOOTH",
"418 966 OFFCURVE",
"401 945 OFFCURVE",
"397 928 CURVE",
"394 907 OFFCURVE",
"405 891 OFFCURVE",
"430 874 CURVE SMOOTH",
"560 785 LINE"
);
},
{
closed = 1;
nodes = (
"810 545 OFFCURVE",
"859 610 OFFCURVE",
"869 660 CURVE SMOOTH",
"876 691 OFFCURVE",
"878 739 OFFCURVE",
"815 739 CURVE SMOOTH",
"764 739 OFFCURVE",
"744 705 OFFCURVE",
"738 678 CURVE SMOOTH",
"732 642 OFFCURVE",
"749 620 OFFCURVE",
"780 620 CURVE SMOOTH",
"786 620 OFFCURVE",
"791 621 OFFCURVE",
"798 624 CURVE",
"778 576 OFFCURVE",
"715 530 OFFCURVE",
"688 513 CURVE",
"706 480 LINE"
);
}
);
width = 756;
}
);
leftKerningGroup = O;
note = Ohorngrave;
rightKerningGroup = O;
unicode = 1EDC;
},
{
glyphname = Ohornhookabove;
lastChange = "2015-10-27 10:06:33 +0000";
layers = (
{
layerId = "097E1CCD-D4DB-46B5-97AF-AA821C3DB512";
name = "Bold Italic";
paths = (
{
closed = 1;
nodes = (
"529 -10 OFFCURVE",
"672 127 OFFCURVE",
"718 350 CURVE SMOOTH",
"763 572 OFFCURVE",
"676 710 OFFCURVE",
"465 710 CURVE SMOOTH",
"252 710 OFFCURVE",
"111 572 OFFCURVE",
"66 350 CURVE SMOOTH",
"20 127 OFFCURVE",
"106 -10 OFFCURVE",
"318 -10 CURVE SMOOTH"
);
},
{
closed = 1;
nodes = (
"194 37 OFFCURVE",
"160 168 OFFCURVE",
"198 350 CURVE SMOOTH",
"234 531 OFFCURVE",
"322 663 OFFCURVE",
"455 663 CURVE SMOOTH",
"588 663 OFFCURVE",
"623 531 OFFCURVE",
"587 350 CURVE SMOOTH",
"549 168 OFFCURVE",
"461 37 OFFCURVE",
"327 37 CURVE SMOOTH"
);
},
{
closed = 1;
nodes = (
"810 545 OFFCURVE",
"859 610 OFFCURVE",
"869 660 CURVE SMOOTH",
"876 691 OFFCURVE",
"878 739 OFFCURVE",
"815 739 CURVE SMOOTH",
"764 739 OFFCURVE",
"744 705 OFFCURVE",
"738 678 CURVE SMOOTH",
"732 642 OFFCURVE",
"749 620 OFFCURVE",
"780 620 CURVE SMOOTH",
"786 620 OFFCURVE",
"791 621 OFFCURVE",
"798 624 CURVE",
"778 576 OFFCURVE",
"715 530 OFFCURVE",
"688 513 CURVE",
"706 480 LINE"
);
},
{
closed = 1;
nodes = (
"501 779 LINE",
"525 847 LINE",
"578 852 OFFCURVE",
"617 874 OFFCURVE",
"629 929 CURVE SMOOTH",
"641 992 OFFCURVE",
"593 1016 OFFCURVE",
"539 1016 CURVE SMOOTH",
"508 1016 OFFCURVE",
"476 1008 OFFCURVE",
"455 999 CURVE",
"454 963 LINE",
"477 974 OFFCURVE",
"499 979 OFFCURVE",
"516 979 CURVE SMOOTH",
"555 979 OFFCURVE",
"570 956 OFFCURVE",
"565 931 CURVE SMOOTH",
"558 895 OFFCURVE",
"527 879 OFFCURVE",
"496 879 CURVE SMOOTH",
"465 879 LINE",
"449 779 LINE"
);
}
);
width = 756;
}
);
leftKerningGroup = O;
note = Ohornhookabove;
rightKerningGroup = O;
unicode = 1EDE;
},
{
glyphname = Ohorntilde;
lastChange = "2015-10-27 10:06:33 +0000";
layers = (
{
layerId = "097E1CCD-D4DB-46B5-97AF-AA821C3DB512";
name = "Bold Italic";
paths = (
{
closed = 1;
nodes = (
"529 -10 OFFCURVE",
"672 127 OFFCURVE",
"718 350 CURVE SMOOTH",
"763 572 OFFCURVE",
"676 710 OFFCURVE",
"465 710 CURVE SMOOTH",
"252 710 OFFCURVE",
"111 572 OFFCURVE",
"66 350 CURVE SMOOTH",
"20 127 OFFCURVE",
"106 -10 OFFCURVE",
"318 -10 CURVE SMOOTH"
);
},
{
closed = 1;
nodes = (
"194 37 OFFCURVE",
"160 168 OFFCURVE",
"198 350 CURVE SMOOTH",
"234 531 OFFCURVE",
"322 663 OFFCURVE",
"455 663 CURVE SMOOTH",
"588 663 OFFCURVE",
"623 531 OFFCURVE",
"587 350 CURVE SMOOTH",
"549 168 OFFCURVE",
"461 37 OFFCURVE",
"327 37 CURVE SMOOTH"
);
},
{
closed = 1;
nodes = (
"349 786 LINE",
"363 819 OFFCURVE",
"389 840 OFFCURVE",
"418 840 CURVE SMOOTH",
"454 840 OFFCURVE",
"502 786 OFFCURVE",
"556 786 CURVE SMOOTH",
"624 786 OFFCURVE",
"665 832 OFFCURVE",
"687 900 CURVE",
"638 900 LINE",
"619 855 OFFCURVE",
"591 844 OFFCURVE",
"565 844 CURVE SMOOTH",
"526 844 OFFCURVE",
"494 897 OFFCURVE",
"430 897 CURVE SMOOTH",
"370 897 OFFCURVE",
"323 860 OFFCURVE",
"299 786 CURVE"
);
},
{
closed = 1;
nodes = (
"810 545 OFFCURVE",
"859 610 OFFCURVE",
"869 660 CURVE SMOOTH",
"876 691 OFFCURVE",
"878 739 OFFCURVE",
"815 739 CURVE SMOOTH",
"764 739 OFFCURVE",
"744 705 OFFCURVE",
"738 678 CURVE SMOOTH",
"732 642 OFFCURVE",
"749 620 OFFCURVE",
"780 620 CURVE SMOOTH",
"786 620 OFFCURVE",
"791 621 OFFCURVE",
"798 624 CURVE",
"778 576 OFFCURVE",
"715 530 OFFCURVE",
"688 513 CURVE",
"706 480 LINE"
);
}
);
width = 756;
}
);
leftKerningGroup = O;
note = Ohorntilde;
rightKerningGroup = O;
unicode = 1EE0;
},
{
glyphname = Ohungarumlaut;
lastChange = "2015-10-27 10:06:33 +0000";
layers = (
{
layerId = "097E1CCD-D4DB-46B5-97AF-AA821C3DB512";
name = "Bold Italic";
paths = (
{
closed = 1;
nodes = (
"529 -10 OFFCURVE",
"672 127 OFFCURVE",
"718 350 CURVE SMOOTH",
"763 572 OFFCURVE",
"676 710 OFFCURVE",
"465 710 CURVE SMOOTH",
"252 710 OFFCURVE",
"111 572 OFFCURVE",
"66 350 CURVE SMOOTH",
"20 127 OFFCURVE",
"106 -10 OFFCURVE",
"318 -10 CURVE SMOOTH"
);
},
{
closed = 1;
nodes = (
"194 37 OFFCURVE",
"160 168 OFFCURVE",
"198 350 CURVE SMOOTH",
"234 531 OFFCURVE",
"322 663 OFFCURVE",
"455 663 CURVE SMOOTH",
"588 663 OFFCURVE",
"623 531 OFFCURVE",
"587 350 CURVE SMOOTH",
"549 168 OFFCURVE",
"461 37 OFFCURVE",
"327 37 CURVE SMOOTH"
);
},
{
closed = 1;
nodes = (
"504 874 LINE SMOOTH",
"535 891 OFFCURVE",
"554 908 OFFCURVE",
"558 929 CURVE",
"562 946 OFFCURVE",
"553 966 OFFCURVE",
"523 966 CURVE SMOOTH",
"495 966 OFFCURVE",
"469 942 OFFCURVE",
"462 935 CURVE SMOOTH",
"324 816 LINE",
"339 784 LINE"
);
},
{
closed = 1;
nodes = (
"708 874 LINE SMOOTH",
"738 891 OFFCURVE",
"757 908 OFFCURVE",
"761 929 CURVE",
"765 946 OFFCURVE",
"756 966 OFFCURVE",
"728 966 CURVE SMOOTH",
"700 966 OFFCURVE",
"673 942 OFFCURVE",
"665 935 CURVE SMOOTH",
"527 816 LINE",
"541 784 LINE"
);
}
);
width = 719;
}
);
leftKerningGroup = O;
note = Ohungarumlaut;
rightKerningGroup = O;
unicode = 0150;
},
{
glyphname = Omacron;
lastChange = "2015-10-27 10:06:32 +0000";
layers = (
{
layerId = "097E1CCD-D4DB-46B5-97AF-AA821C3DB512";
name = "Bold Italic";
paths = (
{
closed = 1;
nodes = (
"529 -10 OFFCURVE",
"672 127 OFFCURVE",
"718 350 CURVE SMOOTH",
"763 572 OFFCURVE",
"676 710 OFFCURVE",
"465 710 CURVE SMOOTH",
"252 710 OFFCURVE",
"111 572 OFFCURVE",
"66 350 CURVE SMOOTH",
"20 127 OFFCURVE",
"106 -10 OFFCURVE",
"318 -10 CURVE SMOOTH"
);
},
{
closed = 1;
nodes = (
"194 37 OFFCURVE",
"160 168 OFFCURVE",
"198 350 CURVE SMOOTH",
"234 531 OFFCURVE",
"322 663 OFFCURVE",
"455 663 CURVE SMOOTH",
"588 663 OFFCURVE",
"623 531 OFFCURVE",
"587 350 CURVE SMOOTH",
"549 168 OFFCURVE",
"461 37 OFFCURVE",
"327 37 CURVE SMOOTH"
);
},
{
closed = 1;
nodes = (
"659 792 LINE",
"667 836 LINE",
"312 836 LINE",
"303 792 LINE"
);
}
);
width = 719;
}
);
leftKerningGroup = O;
note = Omacron;
rightKerningGroup = O;
unicode = 014C;
},
{
glyphname = Oslash;
lastChange = "2015-10-27 10:06:32 +0000";
layers = (
{
layerId = "097E1CCD-D4DB-46B5-97AF-AA821C3DB512";
name = "Bold Italic";
paths = (
{
closed = 1;
nodes = (
"741 694 LINE",
"708 723 LINE",
"22 -5 LINE",
"52 -34 LINE"
);
},
{
closed = 1;
nodes = (
"529 -10 OFFCURVE",
"672 127 OFFCURVE",
"718 350 CURVE SMOOTH",
"763 572 OFFCURVE",
"676 710 OFFCURVE",
"465 710 CURVE SMOOTH",
"252 710 OFFCURVE",
"111 572 OFFCURVE",
"66 350 CURVE SMOOTH",
"20 127 OFFCURVE",
"106 -10 OFFCURVE",
"318 -10 CURVE SMOOTH"
);
},
{
closed = 1;
nodes = (
"194 37 OFFCURVE",
"160 168 OFFCURVE",
"198 350 CURVE SMOOTH",
"234 531 OFFCURVE",
"322 663 OFFCURVE",
"455 663 CURVE SMOOTH",
"588 663 OFFCURVE",
"623 531 OFFCURVE",
"587 350 CURVE SMOOTH",
"549 168 OFFCURVE",
"461 37 OFFCURVE",
"327 37 CURVE SMOOTH"
);
}
);
width = 719;
}
);
leftKerningGroup = O;
note = Oslash;
rightKerningGroup = O;
unicode = 00D8;
},
{
glyphname = Oslashacute;
lastChange = "2015-10-27 10:06:32 +0000";
layers = (
{
layerId = "097E1CCD-D4DB-46B5-97AF-AA821C3DB512";
name = "Bold Italic";
paths = (
{
closed = 1;
nodes = (
"741 694 LINE",
"708 723 LINE",
"22 -5 LINE",
"52 -34 LINE"
);
},
{
closed = 1;
nodes = (
"529 -10 OFFCURVE",
"672 127 OFFCURVE",
"718 350 CURVE SMOOTH",
"763 572 OFFCURVE",
"676 710 OFFCURVE",
"465 710 CURVE SMOOTH",
"252 710 OFFCURVE",
"111 572 OFFCURVE",
"66 350 CURVE SMOOTH",
"20 127 OFFCURVE",
"106 -10 OFFCURVE",
"318 -10 CURVE SMOOTH"
);
},
{
closed = 1;
nodes = (
"194 37 OFFCURVE",
"160 168 OFFCURVE",
"198 350 CURVE SMOOTH",
"234 531 OFFCURVE",
"322 663 OFFCURVE",
"455 663 CURVE SMOOTH",
"588 663 OFFCURVE",
"623 531 OFFCURVE",
"587 350 CURVE SMOOTH",
"549 168 OFFCURVE",
"461 37 OFFCURVE",
"327 37 CURVE SMOOTH"
);
},
{
closed = 1;
nodes = (
"574 875 LINE SMOOTH",
"605 892 OFFCURVE",
"623 909 OFFCURVE",
"627 930 CURVE",
"631 947 OFFCURVE",
"624 967 OFFCURVE",
"595 967 CURVE SMOOTH",
"566 967 OFFCURVE",
"540 943 OFFCURVE",
"533 936 CURVE",
"393 817 LINE",
"408 786 LINE"
);
}
);
width = 719;
}
);
leftKerningGroup = O;
note = Oslashacute;
rightKerningGroup = O;
unicode = 01FE;
},
{
glyphname = Otilde;
lastChange = "2015-10-27 10:06:30 +0000";
layers = (
{
layerId = "097E1CCD-D4DB-46B5-97AF-AA821C3DB512";
name = "Bold Italic";
paths = (
{
closed = 1;
nodes = (
"529 -10 OFFCURVE",
"672 127 OFFCURVE",
"718 350 CURVE SMOOTH",
"763 572 OFFCURVE",
"676 710 OFFCURVE",
"465 710 CURVE SMOOTH",
"252 710 OFFCURVE",
"111 572 OFFCURVE",
"66 350 CURVE SMOOTH",
"20 127 OFFCURVE",
"106 -10 OFFCURVE",
"318 -10 CURVE SMOOTH"
);
},
{
closed = 1;
nodes = (
"194 37 OFFCURVE",
"160 168 OFFCURVE",
"198 350 CURVE SMOOTH",
"234 531 OFFCURVE",
"322 663 OFFCURVE",
"455 663 CURVE SMOOTH",
"588 663 OFFCURVE",
"623 531 OFFCURVE",
"587 350 CURVE SMOOTH",
"549 168 OFFCURVE",
"461 37 OFFCURVE",
"327 37 CURVE SMOOTH"
);
},
{
closed = 1;
nodes = (
"348 786 LINE",
"362 819 OFFCURVE",
"388 840 OFFCURVE",
"417 840 CURVE SMOOTH",
"453 840 OFFCURVE",
"501 786 OFFCURVE",
"555 786 CURVE SMOOTH",
"623 786 OFFCURVE",
"664 832 OFFCURVE",
"686 900 CURVE",
"637 900 LINE",
"618 855 OFFCURVE",
"590 844 OFFCURVE",
"564 844 CURVE SMOOTH",
"525 844 OFFCURVE",
"493 897 OFFCURVE",
"429 897 CURVE SMOOTH",
"369 897 OFFCURVE",
"322 860 OFFCURVE",
"298 786 CURVE"
);
}
);
width = 719;
}
);
leftKerningGroup = O;
note = Otilde;
rightKerningGroup = O;
unicode = 00D5;
},
{
glyphname = OE;
lastChange = "2015-10-27 10:06:31 +0000";
layers = (
{
layerId = "097E1CCD-D4DB-46B5-97AF-AA821C3DB512";
name = "Bold Italic";
paths = (
{
closed = 1;
nodes = (
"368 -10 OFFCURVE",
"421 7 OFFCURVE",
"473 50 CURVE",
"464 0 LINE",
"912 0 LINE",
"962 165 LINE",
"933 165 LINE",
"913 144 OFFCURVE",
"874 78 OFFCURVE",
"864 44 CURVE",
"603 44 LINE",
"662 336 LINE",
"840 336 LINE",
"838 319 OFFCURVE",
"837 280 OFFCURVE",
"841 251 CURVE",
"862 251 LINE",
"906 467 LINE",
"885 467 LINE",
"870 440 OFFCURVE",
"855 400 OFFCURVE",
"850 382 CURVE",
"672 382 LINE",
"728 654 LINE",
"984 654 LINE",
"979 625 OFFCURVE",
"984 555 OFFCURVE",
"993 533 CURVE",
"1021 533 LINE",
"1055 700 LINE",
"606 700 LINE",
"595 646 LINE",
"565 686 OFFCURVE",
"515 710 OFFCURVE",
"444 710 CURVE SMOOTH",
"230 710 OFFCURVE",
"105 539 OFFCURVE",
"66 350 CURVE SMOOTH",
"27 159 OFFCURVE",
"84 -10 OFFCURVE",
"297 -10 CURVE SMOOTH"
);
},
{
closed = 1;
nodes = (
"195 37 OFFCURVE",
"161 168 OFFCURVE",
"199 350 CURVE SMOOTH",
"235 531 OFFCURVE",
"323 663 OFFCURVE",
"455 663 CURVE SMOOTH",
"519 663 OFFCURVE",
"564 624 OFFCURVE",
"581 577 CURVE",
"488 121 LINE",
"446 70 OFFCURVE",
"392 37 OFFCURVE",
"327 37 CURVE SMOOTH"
);
}
);
width = 1007;
}
);
note = OE;
unicode = 0152;
},
{
glyphname = P;
lastChange = "2015-10-27 10:06:31 +0000";
layers = (
{
layerId = "097E1CCD-D4DB-46B5-97AF-AA821C3DB512";
name = "Bold Italic";
paths = (
{
closed = 1;
nodes = (
"273 0 LINE",
"276 16 LINE",
"252 24 OFFCURVE",
"225 32 OFFCURVE",
"202 36 CURVE",
"251 273 LINE",
"384 273 LINE SMOOTH",
"533 273 OFFCURVE",
"622 373 OFFCURVE",
"646 493 CURVE SMOOTH",
"672 617 OFFCURVE",
"629 700 OFFCURVE",
"445 700 CURVE SMOOTH",
"132 700 LINE",
"129 683 LINE",
"154 674 OFFCURVE",
"177 668 OFFCURVE",
"200 663 CURVE",
"72 37 LINE",
"61 35 OFFCURVE",
"18 25 OFFCURVE",
"-10 17 CURVE",
"-12 0 LINE"
);
},
{
closed = 1;
nodes = (
"328 654 LINE",
"429 654 LINE SMOOTH",
"514 654 OFFCURVE",
"538 592 OFFCURVE",
"518 495 CURVE SMOOTH",
"498 399 OFFCURVE",
"448 317 OFFCURVE",
"360 317 CURVE SMOOTH",
"259 317 LINE"
);
}
);
width = 608;
}
);
note = P;
unicode = 0050;
},
{
glyphname = Thorn;
lastChange = "2015-10-27 10:06:31 +0000";
layers = (
{
layerId = "097E1CCD-D4DB-46B5-97AF-AA821C3DB512";
name = "Bold Italic";
paths = (
{
closed = 1;
nodes = (
"273 0 LINE",
"276 16 LINE",
"252 24 OFFCURVE",
"225 32 OFFCURVE",
"202 36 CURVE",
"224 145 LINE",
"358 145 LINE SMOOTH",
"506 145 OFFCURVE",
"596 245 OFFCURVE",
"620 366 CURVE SMOOTH",
"644 480 OFFCURVE",
"608 571 OFFCURVE",
"444 571 CURVE SMOOTH",
"311 571 LINE",
"337 700 LINE",
"132 700 LINE",
"129 683 LINE",
"154 674 OFFCURVE",
"177 668 OFFCURVE",
"200 663 CURVE",
"72 37 LINE",
"61 35 OFFCURVE",
"19 25 OFFCURVE",
"-10 17 CURVE",
"-12 0 LINE"
);
},
{
closed = 1;
nodes = (
"302 527 LINE",
"403 527 LINE SMOOTH",
"489 527 OFFCURVE",
"512 464 OFFCURVE",
"492 367 CURVE SMOOTH",
"472 271 OFFCURVE",
"422 190 OFFCURVE",
"334 190 CURVE SMOOTH",
"233 190 LINE"
);
}
);
width = 607;
}
);
note = Thorn;
unicode = 00DE;
},
{
glyphname = Q;
lastChange = "2015-10-27 10:06:33 +0000";
layers = (
{
layerId = "097E1CCD-D4DB-46B5-97AF-AA821C3DB512";
name = "Bold Italic";
paths = (
{
closed = 1;
nodes = (
"529 -10 OFFCURVE",
"672 127 OFFCURVE",
"718 350 CURVE SMOOTH",
"763 572 OFFCURVE",
"676 710 OFFCURVE",
"465 710 CURVE SMOOTH",
"252 710 OFFCURVE",
"111 572 OFFCURVE",
"66 350 CURVE SMOOTH",
"20 127 OFFCURVE",
"106 -10 OFFCURVE",
"318 -10 CURVE SMOOTH"
);
},
{
closed = 1;
nodes = (
"536 -117 LINE",
"439 -109 OFFCURVE",
"389 -57 OFFCURVE",
"397 19 CURVE",
"271 19 LINE",
"263 -77 OFFCURVE",
"346 -143 OFFCURVE",
"527 -159 CURVE"
);
},
{
closed = 1;
nodes = (
"195 37 OFFCURVE",
"160 168 OFFCURVE",
"198 350 CURVE SMOOTH",
"234 531 OFFCURVE",
"323 663 OFFCURVE",
"455 663 CURVE SMOOTH",
"588 663 OFFCURVE",
"623 531 OFFCURVE",
"587 350 CURVE SMOOTH",
"549 168 OFFCURVE",
"460 37 OFFCURVE",
"327 37 CURVE SMOOTH"
);
}
);
width = 719;
}
);
leftKerningGroup = O;
note = Q;
rightKerningGroup = O;
unicode = 0051;
},
{
glyphname = R;
lastChange = "2015-10-27 10:06:33 +0000";
layers = (
{
layerId = "097E1CCD-D4DB-46B5-97AF-AA821C3DB512";
name = "Bold Italic";
paths = (
{
closed = 1;
nodes = (
"278 0 LINE",
"281 16 LINE",
"258 24 OFFCURVE",
"230 32 OFFCURVE",
"208 36 CURVE",
"262 299 LINE",
"405 299 LINE SMOOTH",
"540 299 OFFCURVE",
"635 378 OFFCURVE",
"660 503 CURVE SMOOTH",
"684 618 OFFCURVE",
"651 700 OFFCURVE",
"486 700 CURVE SMOOTH",
"137 700 LINE",
"134 683 LINE",
"159 674 OFFCURVE",
"182 668 OFFCURVE",
"205 663 CURVE",
"78 37 LINE",
"67 35 OFFCURVE",
"24 25 OFFCURVE",
"-4 17 CURVE",
"-7 0 LINE"
);
},
{
closed = 1;
nodes = (
"617 0 LINE",
"620 16 LINE",
"599 25 OFFCURVE",
"572 32 OFFCURVE",
"551 36 CURVE",
"461 313 LINE",
"348 313 LINE",
"441 0 LINE"
);
},
{
closed = 1;
nodes = (
"335 654 LINE",
"435 654 LINE SMOOTH",
"524 654 OFFCURVE",
"551 602 OFFCURVE",
"532 505 CURVE SMOOTH",
"512 409 OFFCURVE",
"464 344 OFFCURVE",
"372 344 CURVE SMOOTH",
"272 344 LINE"
);
}
);
width = 675;
}
);
note = R;
rightKerningGroup = R;
unicode = 0052;
},
{
glyphname = Racute;
lastChange = "2015-10-27 10:06:31 +0000";
layers = (
{
layerId = "097E1CCD-D4DB-46B5-97AF-AA821C3DB512";
name = "Bold Italic";
paths = (
{
closed = 1;
nodes = (
"278 0 LINE",
"281 16 LINE",
"258 24 OFFCURVE",
"230 32 OFFCURVE",
"208 36 CURVE",
"262 299 LINE",
"405 299 LINE SMOOTH",
"540 299 OFFCURVE",
"635 378 OFFCURVE",
"660 503 CURVE SMOOTH",
"684 618 OFFCURVE",
"651 700 OFFCURVE",
"486 700 CURVE SMOOTH",
"137 700 LINE",
"134 683 LINE",
"159 674 OFFCURVE",
"182 668 OFFCURVE",
"205 663 CURVE",
"78 37 LINE",
"67 35 OFFCURVE",
"24 25 OFFCURVE",
"-4 17 CURVE",
"-7 0 LINE"
);
},
{
closed = 1;
nodes = (
"617 0 LINE",
"620 16 LINE",
"599 25 OFFCURVE",
"572 32 OFFCURVE",
"551 36 CURVE",
"461 313 LINE",
"348 313 LINE",
"441 0 LINE"
);
},
{
closed = 1;
nodes = (
"335 654 LINE",
"435 654 LINE SMOOTH",
"524 654 OFFCURVE",
"551 602 OFFCURVE",
"532 505 CURVE SMOOTH",
"512 409 OFFCURVE",
"464 344 OFFCURVE",
"372 344 CURVE SMOOTH",
"272 344 LINE"
);
},
{
closed = 1;
nodes = (
"542 875 LINE SMOOTH",
"573 892 OFFCURVE",
"591 909 OFFCURVE",
"595 930 CURVE",
"599 947 OFFCURVE",
"592 967 OFFCURVE",
"564 967 CURVE SMOOTH",
"535 967 OFFCURVE",
"508 943 OFFCURVE",
"501 936 CURVE",
"361 817 LINE",
"376 786 LINE"
);
}
);
width = 675;
}
);
note = Racute;
rightKerningGroup = R;
unicode = 0154;
},
{
glyphname = Rcaron;
lastChange = "2015-10-27 10:06:31 +0000";
layers = (
{
layerId = "097E1CCD-D4DB-46B5-97AF-AA821C3DB512";
name = "Bold Italic";
paths = (
{
closed = 1;
nodes = (
"278 0 LINE",
"281 16 LINE",
"258 24 OFFCURVE",
"230 32 OFFCURVE",
"208 36 CURVE",
"262 299 LINE",
"405 299 LINE SMOOTH",
"540 299 OFFCURVE",
"635 378 OFFCURVE",
"660 503 CURVE SMOOTH",
"684 618 OFFCURVE",
"651 700 OFFCURVE",
"486 700 CURVE SMOOTH",
"137 700 LINE",
"134 683 LINE",
"159 674 OFFCURVE",
"182 668 OFFCURVE",
"205 663 CURVE",
"78 37 LINE",
"67 35 OFFCURVE",
"24 25 OFFCURVE",
"-4 17 CURVE",
"-7 0 LINE"
);
},
{
closed = 1;
nodes = (
"617 0 LINE",
"620 16 LINE",
"599 25 OFFCURVE",
"572 32 OFFCURVE",
"551 36 CURVE",
"461 313 LINE",
"348 313 LINE",
"441 0 LINE"
);
},
{
closed = 1;
nodes = (
"335 654 LINE",
"435 654 LINE SMOOTH",
"524 654 OFFCURVE",
"551 602 OFFCURVE",
"532 505 CURVE SMOOTH",
"512 409 OFFCURVE",
"464 344 OFFCURVE",
"372 344 CURVE SMOOTH",
"272 344 LINE"
);
},
{
closed = 1;
nodes = (
"484 786 LINE",
"516 824 OFFCURVE",
"606 894 OFFCURVE",
"653 922 CURVE",
"609 963 LINE",
"564 932 OFFCURVE",
"498 877 OFFCURVE",
"467 841 CURVE",
"463 841 LINE",
"447 877 OFFCURVE",
"403 932 OFFCURVE",
"371 963 CURVE",
"312 922 LINE",
"347 894 OFFCURVE",
"407 824 OFFCURVE",
"424 786 CURVE"
);
}
);
width = 675;
}
);
note = Rcaron;
rightKerningGroup = R;
unicode = 0158;
},
{
glyphname = Rcommaaccent;
lastChange = "2015-10-27 10:06:32 +0000";
layers = (
{
layerId = "097E1CCD-D4DB-46B5-97AF-AA821C3DB512";
name = "Bold Italic";
paths = (
{
closed = 1;
nodes = (
"278 0 LINE",
"281 16 LINE",
"258 24 OFFCURVE",
"230 32 OFFCURVE",
"208 36 CURVE",
"262 299 LINE",
"405 299 LINE SMOOTH",
"540 299 OFFCURVE",
"635 378 OFFCURVE",
"660 503 CURVE SMOOTH",
"684 618 OFFCURVE",
"651 700 OFFCURVE",
"486 700 CURVE SMOOTH",
"137 700 LINE",
"134 683 LINE",
"159 674 OFFCURVE",
"182 668 OFFCURVE",
"205 663 CURVE",
"78 37 LINE",
"67 35 OFFCURVE",
"24 25 OFFCURVE",
"-4 17 CURVE",
"-7 0 LINE"
);
},
{
closed = 1;
nodes = (
"286 -300 OFFCURVE",
"340 -220 OFFCURVE",
"353 -151 CURVE SMOOTH",
"362 -111 OFFCURVE",
"348 -77 OFFCURVE",
"300 -77 CURVE SMOOTH",
"266 -77 OFFCURVE",
"230 -99 OFFCURVE",
"223 -138 CURVE SMOOTH",
"215 -177 OFFCURVE",
"236 -199 OFFCURVE",
"275 -200 CURVE",
"260 -243 OFFCURVE",
"222 -287 OFFCURVE",
"193 -314 CURVE",
"228 -346 LINE"
);
},
{
closed = 1;
nodes = (
"617 0 LINE",
"620 16 LINE",
"599 25 OFFCURVE",
"572 32 OFFCURVE",
"551 36 CURVE",
"461 313 LINE",
"348 313 LINE",
"441 0 LINE"
);
},
{
closed = 1;
nodes = (
"335 654 LINE",
"435 654 LINE SMOOTH",
"524 654 OFFCURVE",
"551 602 OFFCURVE",
"532 505 CURVE SMOOTH",
"512 409 OFFCURVE",
"464 344 OFFCURVE",
"372 344 CURVE SMOOTH",
"272 344 LINE"
);
}
);
width = 675;
}
);
note = Rcommaaccent;
rightKerningGroup = R;
unicode = 0156;
},
{
glyphname = Rdotbelow;
lastChange = "2015-10-27 10:06:31 +0000";
layers = (
{
layerId = "097E1CCD-D4DB-46B5-97AF-AA821C3DB512";
name = "Bold Italic";
paths = (
{
closed = 1;
nodes = (
"278 0 LINE",
"281 16 LINE",
"258 24 OFFCURVE",
"230 32 OFFCURVE",
"208 36 CURVE",
"262 299 LINE",
"405 299 LINE SMOOTH",
"540 299 OFFCURVE",
"635 378 OFFCURVE",
"660 503 CURVE SMOOTH",
"684 618 OFFCURVE",
"651 700 OFFCURVE",
"486 700 CURVE SMOOTH",
"137 700 LINE",
"134 683 LINE",
"159 674 OFFCURVE",
"182 668 OFFCURVE",
"205 663 CURVE",
"78 37 LINE",
"67 35 OFFCURVE",
"24 25 OFFCURVE",
"-4 17 CURVE",
"-7 0 LINE"
);
},
{
closed = 1;
nodes = (
"304 -169 OFFCURVE",
"330 -145 OFFCURVE",
"336 -113 CURVE SMOOTH",
"343 -80 OFFCURVE",
"327 -56 OFFCURVE",
"295 -56 CURVE SMOOTH",
"262 -56 OFFCURVE",
"235 -80 OFFCURVE",
"228 -113 CURVE SMOOTH",
"223 -145 OFFCURVE",
"239 -169 OFFCURVE",
"272 -169 CURVE SMOOTH"
);
},
{
closed = 1;
nodes = (
"617 0 LINE",
"620 16 LINE",
"599 25 OFFCURVE",
"572 32 OFFCURVE",
"551 36 CURVE",
"461 313 LINE",
"348 313 LINE",
"441 0 LINE"
);
},
{
closed = 1;
nodes = (
"335 654 LINE",
"435 654 LINE SMOOTH",
"524 654 OFFCURVE",
"551 602 OFFCURVE",
"532 505 CURVE SMOOTH",
"512 409 OFFCURVE",
"464 344 OFFCURVE",
"372 344 CURVE SMOOTH",
"272 344 LINE"
);
}
);
width = 675;
}
);
note = Rdotbelow;
rightKerningGroup = R;
unicode = 1E5A;
},
{
glyphname = Rdotbelowmacron;
lastChange = "2015-10-27 10:06:30 +0000";
layers = (
{
layerId = "097E1CCD-D4DB-46B5-97AF-AA821C3DB512";
name = "Bold Italic";
paths = (
{
closed = 1;
nodes = (
"278 0 LINE",
"281 16 LINE",
"258 24 OFFCURVE",
"230 32 OFFCURVE",
"208 36 CURVE",
"262 299 LINE",
"405 299 LINE SMOOTH",
"540 299 OFFCURVE",
"635 378 OFFCURVE",
"660 503 CURVE SMOOTH",
"684 618 OFFCURVE",
"651 700 OFFCURVE",
"486 700 CURVE SMOOTH",
"137 700 LINE",
"134 683 LINE",
"159 674 OFFCURVE",
"182 668 OFFCURVE",
"205 663 CURVE",
"78 37 LINE",
"67 35 OFFCURVE",
"24 25 OFFCURVE",
"-4 17 CURVE",
"-7 0 LINE"
);
},
{
closed = 1;
nodes = (
"304 -169 OFFCURVE",
"330 -145 OFFCURVE",
"336 -113 CURVE SMOOTH",
"343 -80 OFFCURVE",
"327 -56 OFFCURVE",
"294 -56 CURVE SMOOTH",
"261 -56 OFFCURVE",
"235 -80 OFFCURVE",
"228 -113 CURVE SMOOTH",
"223 -145 OFFCURVE",
"238 -169 OFFCURVE",
"271 -169 CURVE SMOOTH"
);
},
{
closed = 1;
nodes = (
"617 0 LINE",
"620 16 LINE",
"599 25 OFFCURVE",
"572 32 OFFCURVE",
"551 36 CURVE",
"461 313 LINE",
"348 313 LINE",
"441 0 LINE"
);
},
{
closed = 1;
nodes = (
"335 654 LINE",
"435 654 LINE SMOOTH",
"524 654 OFFCURVE",
"551 602 OFFCURVE",
"532 505 CURVE SMOOTH",
"512 409 OFFCURVE",
"464 344 OFFCURVE",
"372 344 CURVE SMOOTH",
"272 344 LINE"
);
},
{
closed = 1;
nodes = (
"614 785 LINE",
"624 829 LINE",
"237 829 LINE",
"228 785 LINE"
);
}
);
width = 675;
}
);
note = Rdotbelowmacron;
rightKerningGroup = R;
unicode = 1E5C;
},
{
glyphname = Rlinebelow;
lastChange = "2015-10-27 10:06:30 +0000";
layers = (
{
layerId = "097E1CCD-D4DB-46B5-97AF-AA821C3DB512";
name = "Bold Italic";
paths = (
{
closed = 1;
nodes = (
"278 0 LINE",
"281 16 LINE",
"258 24 OFFCURVE",
"230 32 OFFCURVE",
"208 36 CURVE",
"262 299 LINE",
"405 299 LINE SMOOTH",
"540 299 OFFCURVE",
"635 378 OFFCURVE",
"660 503 CURVE SMOOTH",
"684 618 OFFCURVE",
"651 700 OFFCURVE",
"486 700 CURVE SMOOTH",
"137 700 LINE",
"134 683 LINE",
"159 674 OFFCURVE",
"182 668 OFFCURVE",
"205 663 CURVE",
"78 37 LINE",
"67 35 OFFCURVE",
"24 25 OFFCURVE",
"-4 17 CURVE",
"-7 0 LINE"
);
},
{
closed = 1;
nodes = (
"441 -107 LINE",
"449 -64 LINE",
"94 -64 LINE",
"85 -107 LINE"
);
},
{
closed = 1;
nodes = (
"617 0 LINE",
"620 16 LINE",
"599 25 OFFCURVE",
"572 32 OFFCURVE",
"551 36 CURVE",
"461 313 LINE",
"348 313 LINE",
"441 0 LINE"
);
},
{
closed = 1;
nodes = (
"335 654 LINE",
"435 654 LINE SMOOTH",
"524 654 OFFCURVE",
"551 602 OFFCURVE",
"532 505 CURVE SMOOTH",
"512 409 OFFCURVE",
"464 344 OFFCURVE",
"372 344 CURVE SMOOTH",
"272 344 LINE"
);
}
);
width = 675;
}
);
note = Rlinebelow;
rightKerningGroup = R;
unicode = 1E5E;
},
{
glyphname = S;
lastChange = "2015-10-27 10:06:31 +0000";
layers = (
{
layerId = "097E1CCD-D4DB-46B5-97AF-AA821C3DB512";
name = "Bold Italic";
paths = (
{
closed = 1;
nodes = (
"373 -10 OFFCURVE",
"499 63 OFFCURVE",
"525 191 CURVE SMOOTH",
"579 452 OFFCURVE",
"219 406 OFFCURVE",
"249 555 CURVE SMOOTH",
"264 629 OFFCURVE",
"325 663 OFFCURVE",
"411 663 CURVE SMOOTH",
"461 663 OFFCURVE",
"502 649 OFFCURVE",
"526 624 CURVE",
"520 581 OFFCURVE",
"519 539 OFFCURVE",
"522 507 CURVE",
"554 507 LINE",
"592 637 LINE",
"554 687 OFFCURVE",
"491 710 OFFCURVE",
"392 710 CURVE SMOOTH",
"247 710 OFFCURVE",
"136 652 OFFCURVE",
"112 534 CURVE SMOOTH",
"63 293 OFFCURVE",
"427 361 OFFCURVE",
"389 173 CURVE SMOOTH",
"371 80 OFFCURVE",
"286 37 OFFCURVE",
"206 37 CURVE SMOOTH",
"146 37 OFFCURVE",
"100 62 OFFCURVE",
"76 97 CURVE",
"82 138 OFFCURVE",
"87 194 OFFCURVE",
"84 227 CURVE",
"53 227 LINE",
"11 84 LINE",
"42 29 OFFCURVE",
"123 -10 OFFCURVE",
"230 -10 CURVE SMOOTH"
);
}
);
width = 559;
}
);
leftKerningGroup = S;
note = S;
rightKerningGroup = S;
unicode = 0053;
},
{
glyphname = Sacute;
lastChange = "2015-10-27 10:06:31 +0000";
layers = (
{
layerId = "097E1CCD-D4DB-46B5-97AF-AA821C3DB512";
name = "Bold Italic";
paths = (
{
closed = 1;
nodes = (
"373 -10 OFFCURVE",
"499 63 OFFCURVE",
"525 191 CURVE SMOOTH",
"579 452 OFFCURVE",
"219 406 OFFCURVE",
"249 555 CURVE SMOOTH",
"264 629 OFFCURVE",
"325 663 OFFCURVE",
"411 663 CURVE SMOOTH",
"461 663 OFFCURVE",
"502 649 OFFCURVE",
"526 624 CURVE",
"520 581 OFFCURVE",
"519 539 OFFCURVE",
"522 507 CURVE",
"554 507 LINE",
"592 637 LINE",
"554 687 OFFCURVE",
"491 710 OFFCURVE",
"392 710 CURVE SMOOTH",
"247 710 OFFCURVE",
"136 652 OFFCURVE",
"112 534 CURVE SMOOTH",
"63 293 OFFCURVE",
"427 361 OFFCURVE",
"389 173 CURVE SMOOTH",
"371 80 OFFCURVE",
"286 37 OFFCURVE",
"206 37 CURVE SMOOTH",
"146 37 OFFCURVE",
"100 62 OFFCURVE",
"76 97 CURVE",
"82 138 OFFCURVE",
"87 194 OFFCURVE",
"84 227 CURVE",
"53 227 LINE",
"11 84 LINE",
"42 29 OFFCURVE",
"123 -10 OFFCURVE",
"230 -10 CURVE SMOOTH"
);
},
{
closed = 1;
nodes = (
"494 875 LINE SMOOTH",
"525 892 OFFCURVE",
"543 909 OFFCURVE",
"547 930 CURVE",
"551 947 OFFCURVE",
"544 967 OFFCURVE",
"516 967 CURVE SMOOTH",
"487 967 OFFCURVE",
"460 943 OFFCURVE",
"453 936 CURVE",
"313 817 LINE",
"328 786 LINE"
);
}
);
width = 559;
}
);
leftKerningGroup = S;
note = Sacute;
rightKerningGroup = S;
unicode = 015A;
},
{
glyphname = Scaron;
lastChange = "2015-10-27 10:06:31 +0000";
layers = (
{
layerId = "097E1CCD-D4DB-46B5-97AF-AA821C3DB512";
name = "Bold Italic";
paths = (
{
closed = 1;
nodes = (
"373 -10 OFFCURVE",
"499 63 OFFCURVE",
"525 191 CURVE SMOOTH",
"579 452 OFFCURVE",
"219 406 OFFCURVE",
"249 555 CURVE SMOOTH",
"264 629 OFFCURVE",
"325 663 OFFCURVE",
"411 663 CURVE SMOOTH",
"461 663 OFFCURVE",
"502 649 OFFCURVE",
"526 624 CURVE",
"520 581 OFFCURVE",
"519 539 OFFCURVE",
"522 507 CURVE",
"554 507 LINE",
"592 637 LINE",
"554 687 OFFCURVE",
"491 710 OFFCURVE",
"392 710 CURVE SMOOTH",
"247 710 OFFCURVE",
"136 652 OFFCURVE",
"112 534 CURVE SMOOTH",
"63 293 OFFCURVE",
"427 361 OFFCURVE",
"389 173 CURVE SMOOTH",
"371 80 OFFCURVE",
"286 37 OFFCURVE",
"206 37 CURVE SMOOTH",
"146 37 OFFCURVE",
"100 62 OFFCURVE",
"76 97 CURVE",
"82 138 OFFCURVE",
"87 194 OFFCURVE",
"84 227 CURVE",
"53 227 LINE",
"11 84 LINE",
"42 29 OFFCURVE",
"123 -10 OFFCURVE",
"230 -10 CURVE SMOOTH"
);
},
{
closed = 1;
nodes = (
"429 786 LINE",
"462 824 OFFCURVE",
"551 894 OFFCURVE",
"598 922 CURVE",
"554 963 LINE",
"510 932 OFFCURVE",
"444 877 OFFCURVE",
"412 841 CURVE",
"408 841 LINE",
"393 877 OFFCURVE",
"348 932 OFFCURVE",
"316 963 CURVE",
"257 922 LINE",
"292 894 OFFCURVE",
"352 824 OFFCURVE",
"370 786 CURVE"
);
}
);
width = 559;
}
);
leftKerningGroup = S;
note = Scaron;
rightKerningGroup = S;
unicode = 0160;
},
{
glyphname = Scedilla;
lastChange = "2015-10-27 10:06:31 +0000";
layers = (
{
layerId = "097E1CCD-D4DB-46B5-97AF-AA821C3DB512";
name = "Bold Italic";
paths = (
{
closed = 1;
nodes = (
"373 -10 OFFCURVE",
"499 63 OFFCURVE",
"525 191 CURVE SMOOTH",
"579 452 OFFCURVE",
"219 406 OFFCURVE",
"249 555 CURVE SMOOTH",
"264 629 OFFCURVE",
"325 663 OFFCURVE",
"411 663 CURVE SMOOTH",
"461 663 OFFCURVE",
"502 649 OFFCURVE",
"526 624 CURVE",
"520 581 OFFCURVE",
"519 539 OFFCURVE",
"522 507 CURVE",
"554 507 LINE",
"592 637 LINE",
"554 687 OFFCURVE",
"491 710 OFFCURVE",
"392 710 CURVE SMOOTH",
"247 710 OFFCURVE",
"136 652 OFFCURVE",
"112 534 CURVE SMOOTH",
"63 293 OFFCURVE",
"427 361 OFFCURVE",
"389 173 CURVE SMOOTH",
"371 80 OFFCURVE",
"286 37 OFFCURVE",
"206 37 CURVE SMOOTH",
"146 37 OFFCURVE",
"100 62 OFFCURVE",
"76 97 CURVE",
"82 138 OFFCURVE",
"87 194 OFFCURVE",
"84 227 CURVE",
"53 227 LINE",
"11 84 LINE",
"42 29 OFFCURVE",
"123 -10 OFFCURVE",
"230 -10 CURVE SMOOTH"
);
},
{
closed = 1;
nodes = (
"248 -241 OFFCURVE",
"313 -208 OFFCURVE",
"327 -141 CURVE SMOOTH",
"336 -97 OFFCURVE",
"307 -62 OFFCURVE",
"232 -62 CURVE",
"287 20 LINE",
"230 20 LINE",
"170 -70 LINE",
"186 -102 LINE",
"193 -101 OFFCURVE",
"202 -100 OFFCURVE",
"209 -100 CURVE SMOOTH",
"237 -100 OFFCURVE",
"269 -109 OFFCURVE",
"263 -141 CURVE",
"254 -181 OFFCURVE",
"218 -195 OFFCURVE",
"176 -195 CURVE SMOOTH",
"152 -195 OFFCURVE",
"126 -189 OFFCURVE",
"108 -179 CURVE",
"82 -214 LINE",
"105 -232 OFFCURVE",
"142 -241 OFFCURVE",
"176 -241 CURVE SMOOTH"
);
}
);
width = 559;
}
);
leftKerningGroup = S;
note = Scedilla;
rightKerningGroup = S;
unicode = 015E;
},
{
glyphname = Scircumflex;
lastChange = "2015-10-27 10:06:31 +0000";
layers = (
{
layerId = "097E1CCD-D4DB-46B5-97AF-AA821C3DB512";
name = "Bold Italic";
paths = (
{
closed = 1;
nodes = (
"373 -10 OFFCURVE",
"499 63 OFFCURVE",
"525 191 CURVE SMOOTH",
"579 452 OFFCURVE",
"219 406 OFFCURVE",
"249 555 CURVE SMOOTH",
"264 629 OFFCURVE",
"325 663 OFFCURVE",
"411 663 CURVE SMOOTH",
"461 663 OFFCURVE",
"502 649 OFFCURVE",
"526 624 CURVE",
"520 581 OFFCURVE",
"519 539 OFFCURVE",
"522 507 CURVE",
"554 507 LINE",
"592 637 LINE",
"554 687 OFFCURVE",
"491 710 OFFCURVE",
"392 710 CURVE SMOOTH",
"247 710 OFFCURVE",
"136 652 OFFCURVE",
"112 534 CURVE SMOOTH",
"63 293 OFFCURVE",
"427 361 OFFCURVE",
"389 173 CURVE SMOOTH",
"371 80 OFFCURVE",
"286 37 OFFCURVE",
"206 37 CURVE SMOOTH",
"146 37 OFFCURVE",
"100 62 OFFCURVE",
"76 97 CURVE",
"82 138 OFFCURVE",
"87 194 OFFCURVE",
"84 227 CURVE",
"53 227 LINE",
"11 84 LINE",
"42 29 OFFCURVE",
"123 -10 OFFCURVE",
"230 -10 CURVE SMOOTH"
);
},
{
closed = 1;
nodes = (
"324 813 OFFCURVE",
"391 868 OFFCURVE",
"421 904 CURVE",
"425 904 LINE",
"442 868 OFFCURVE",
"485 813 OFFCURVE",
"517 782 CURVE",
"577 823 LINE",
"541 851 OFFCURVE",
"482 922 OFFCURVE",
"464 959 CURVE",
"404 959 LINE",
"372 922 OFFCURVE",
"282 851 OFFCURVE",
"236 823 CURVE",
"280 782 LINE"
);
}
);
width = 559;
}
);
leftKerningGroup = S;
note = Scircumflex;
rightKerningGroup = S;
unicode = 015C;
},
{
glyphname = Scommaaccent;
lastChange = "2015-10-27 10:06:32 +0000";
layers = (
{
layerId = "097E1CCD-D4DB-46B5-97AF-AA821C3DB512";
name = "Bold Italic";
paths = (
{
closed = 1;
nodes = (
"373 -10 OFFCURVE",
"499 63 OFFCURVE",
"525 191 CURVE SMOOTH",
"579 452 OFFCURVE",
"219 406 OFFCURVE",
"249 555 CURVE SMOOTH",
"264 629 OFFCURVE",
"325 663 OFFCURVE",
"411 663 CURVE SMOOTH",
"461 663 OFFCURVE",
"502 649 OFFCURVE",
"526 624 CURVE",
"520 581 OFFCURVE",
"519 539 OFFCURVE",
"522 507 CURVE",
"554 507 LINE",
"592 637 LINE",
"554 687 OFFCURVE",
"491 710 OFFCURVE",
"392 710 CURVE SMOOTH",
"247 710 OFFCURVE",
"136 652 OFFCURVE",
"112 534 CURVE SMOOTH",
"63 293 OFFCURVE",
"427 361 OFFCURVE",
"389 173 CURVE SMOOTH",
"371 80 OFFCURVE",
"286 37 OFFCURVE",
"206 37 CURVE SMOOTH",
"146 37 OFFCURVE",
"100 62 OFFCURVE",
"76 97 CURVE",
"82 138 OFFCURVE",
"87 194 OFFCURVE",
"84 227 CURVE",
"53 227 LINE",
"11 84 LINE",
"42 29 OFFCURVE",
"123 -10 OFFCURVE",
"230 -10 CURVE SMOOTH"
);
},
{
closed = 1;
nodes = (
"215 -281 OFFCURVE",
"271 -197 OFFCURVE",
"284 -128 CURVE SMOOTH",
"293 -88 OFFCURVE",
"276 -53 OFFCURVE",
"228 -53 CURVE SMOOTH",
"193 -53 OFFCURVE",
"158 -77 OFFCURVE",
"151 -116 CURVE SMOOTH",
"143 -155 OFFCURVE",
"172 -178 OFFCURVE",
"204 -178 CURVE",
"189 -222 OFFCURVE",
"151 -268 OFFCURVE",
"121 -294 CURVE",
"156 -327 LINE"
);
}
);
width = 559;
}
);
leftKerningGroup = S;
note = Scommaaccent;
rightKerningGroup = S;
unicode = 0218;
},
{
glyphname = Sdotaccent;
lastChange = "2015-10-27 10:06:32 +0000";
layers = (
{
layerId = "097E1CCD-D4DB-46B5-97AF-AA821C3DB512";
name = "Bold Italic";
paths = (
{
closed = 1;
nodes = (
"373 -10 OFFCURVE",
"499 63 OFFCURVE",
"525 191 CURVE SMOOTH",
"579 452 OFFCURVE",
"219 406 OFFCURVE",
"249 555 CURVE SMOOTH",
"264 629 OFFCURVE",
"325 663 OFFCURVE",
"411 663 CURVE SMOOTH",
"461 663 OFFCURVE",
"502 649 OFFCURVE",
"526 624 CURVE",
"520 581 OFFCURVE",
"519 539 OFFCURVE",
"522 507 CURVE",
"554 507 LINE",
"592 637 LINE",
"554 687 OFFCURVE",
"491 710 OFFCURVE",
"392 710 CURVE SMOOTH",
"247 710 OFFCURVE",
"136 652 OFFCURVE",
"112 534 CURVE SMOOTH",
"63 293 OFFCURVE",
"427 361 OFFCURVE",
"389 173 CURVE SMOOTH",
"371 80 OFFCURVE",
"286 37 OFFCURVE",
"206 37 CURVE SMOOTH",
"146 37 OFFCURVE",
"100 62 OFFCURVE",
"76 97 CURVE",
"82 138 OFFCURVE",
"87 194 OFFCURVE",
"84 227 CURVE",
"53 227 LINE",
"11 84 LINE",
"42 29 OFFCURVE",
"123 -10 OFFCURVE",
"230 -10 CURVE SMOOTH"
);
},
{
closed = 1;
nodes = (
"444 785 OFFCURVE",
"471 809 OFFCURVE",
"477 841 CURVE SMOOTH",
"484 874 OFFCURVE",
"468 898 OFFCURVE",
"436 898 CURVE SMOOTH",
"402 898 OFFCURVE",
"377 874 OFFCURVE",
"371 841 CURVE SMOOTH",
"365 809 OFFCURVE",
"379 785 OFFCURVE",
"413 785 CURVE SMOOTH"
);
}
);
width = 559;
}
);
leftKerningGroup = S;
note = Sdotaccent;
rightKerningGroup = S;
unicode = 1E60;
},
{
glyphname = Sdotbelow;
lastChange = "2015-10-27 10:06:31 +0000";
layers = (
{
layerId = "097E1CCD-D4DB-46B5-97AF-AA821C3DB512";
name = "Bold Italic";
paths = (
{
closed = 1;
nodes = (
"373 -10 OFFCURVE",
"499 63 OFFCURVE",
"525 191 CURVE SMOOTH",
"579 452 OFFCURVE",
"219 406 OFFCURVE",
"249 555 CURVE SMOOTH",
"264 629 OFFCURVE",
"325 663 OFFCURVE",
"411 663 CURVE SMOOTH",
"461 663 OFFCURVE",
"502 649 OFFCURVE",
"526 624 CURVE",
"520 581 OFFCURVE",
"519 539 OFFCURVE",
"522 507 CURVE",
"554 507 LINE",
"592 637 LINE",
"554 687 OFFCURVE",
"491 710 OFFCURVE",
"392 710 CURVE SMOOTH",
"247 710 OFFCURVE",
"136 652 OFFCURVE",
"112 534 CURVE SMOOTH",
"63 293 OFFCURVE",
"427 361 OFFCURVE",
"389 173 CURVE SMOOTH",
"371 80 OFFCURVE",
"286 37 OFFCURVE",
"206 37 CURVE SMOOTH",
"146 37 OFFCURVE",
"100 62 OFFCURVE",
"76 97 CURVE",
"82 138 OFFCURVE",
"87 194 OFFCURVE",
"84 227 CURVE",
"53 227 LINE",
"11 84 LINE",
"42 29 OFFCURVE",
"123 -10 OFFCURVE",
"230 -10 CURVE SMOOTH"
);
},
{
closed = 1;
nodes = (
"243 -169 OFFCURVE",
"269 -145 OFFCURVE",
"275 -113 CURVE SMOOTH",
"281 -80 OFFCURVE",
"266 -56 OFFCURVE",
"233 -56 CURVE SMOOTH",
"201 -56 OFFCURVE",
"174 -80 OFFCURVE",
"167 -113 CURVE SMOOTH",
"161 -145 OFFCURVE",
"178 -169 OFFCURVE",
"210 -169 CURVE SMOOTH"
);
}
);
width = 559;
}
);
leftKerningGroup = S;
note = Sdotbelow;
rightKerningGroup = S;
unicode = 1E62;
},
{
glyphname = Germandbls;
lastChange = "2015-10-27 10:06:30 +0000";
layers = (
{
layerId = "097E1CCD-D4DB-46B5-97AF-AA821C3DB512";
name = "Bold Italic";
paths = (
{
closed = 1;
nodes = (
"569 -10 OFFCURVE",
"667 89 OFFCURVE",
"691 205 CURVE SMOOTH",
"713 311 OFFCURVE",
"644 384 OFFCURVE",
"509 400 CURVE",
"682 553 LINE",
"674 627 OFFCURVE",
"605 710 OFFCURVE",
"462 710 CURVE SMOOTH",
"279 710 OFFCURVE",
"179 622 OFFCURVE",
"149 479 CURVE SMOOTH",
"59 37 LINE",
"31 31 OFFCURVE",
"3 24 OFFCURVE",
"-23 17 CURVE",
"-26 0 LINE",
"231 0 LINE",
"235 20 LINE",
"226 26 OFFCURVE",
"198 34 OFFCURVE",
"186 37 CURVE",
"284 515 LINE SMOOTH",
"303 608 OFFCURVE",
"362 663 OFFCURVE",
"447 663 CURVE SMOOTH",
"525 663 OFFCURVE",
"571 622 OFFCURVE",
"584 572 CURVE",
"372 384 LINE",
"368 358 LINE",
"446 358 LINE SMOOTH",
"544 358 OFFCURVE",
"581 295 OFFCURVE",
"563 205 CURVE SMOOTH",
"542 104 OFFCURVE",
"479 34 OFFCURVE",
"393 34 CURVE SMOOTH",
"354 34 OFFCURVE",
"314 41 OFFCURVE",
"277 55 CURVE",
"268 8 LINE",
"300 -4 OFFCURVE",
"340 -10 OFFCURVE",
"387 -10 CURVE SMOOTH"
);
}
);
width = 717;
}
);
note = uni1E9E;
unicode = 1E9E;
},
{
glyphname = Schwa;
lastChange = "2015-10-27 10:06:30 +0000";
layers = (
{
layerId = "097E1CCD-D4DB-46B5-97AF-AA821C3DB512";
name = "Bold Italic";
paths = (
{
closed = 1;
nodes = (
"504 -10 OFFCURVE",
"664 111 OFFCURVE",
"712 344 CURVE SMOOTH",
"756 559 OFFCURVE",
"649 710 OFFCURVE",
"420 710 CURVE SMOOTH",
"282 710 OFFCURVE",
"193 665 OFFCURVE",
"142 631 CURVE",
"149 588 LINE",
"241 643 OFFCURVE",
"315 661 OFFCURVE",
"396 661 CURVE SMOOTH",
"564 661 OFFCURVE",
"617 498 OFFCURVE",
"583 329 CURVE SMOOTH",
"552 176 OFFCURVE",
"455 34 OFFCURVE",
"300 34 CURVE SMOOTH",
"176 34 OFFCURVE",
"154 173 OFFCURVE",
"179 296 CURVE",
"586 296 LINE",
"595 343 LINE",
"62 343 LINE",
"57 312 LINE SMOOTH",
"21 138 OFFCURVE",
"82 -10 OFFCURVE",
"295 -10 CURVE SMOOTH"
);
}
);
width = 713;
}
);
note = uni018F;
unicode = 018F;
},
{
glyphname = T;
lastChange = "2015-10-27 10:06:31 +0000";
layers = (
{
layerId = "097E1CCD-D4DB-46B5-97AF-AA821C3DB512";
name = "Bold Italic";
paths = (
{
closed = 1;
nodes = (
"429 0 LINE",
"432 16 LINE",
"408 24 OFFCURVE",
"374 32 OFFCURVE",
"352 36 CURVE",
"479 654 LINE",
"638 654 LINE",
"634 625 OFFCURVE",
"635 536 OFFCURVE",
"643 515 CURVE",
"672 515 LINE",
"709 700 LINE",
"135 700 LINE",
"98 515 LINE",
"127 515 LINE",
"143 536 OFFCURVE",
"180 625 OFFCURVE",
"189 654 CURVE",
"348 654 LINE",
"222 37 LINE",
"192 30 OFFCURVE",
"162 24 OFFCURVE",
"135 17 CURVE",
"132 0 LINE"
);
}
);
width = 638;
}
);
leftKerningGroup = T;
note = T;
rightKerningGroup = T;
unicode = 0054;
},
{
glyphname = Tbar;
lastChange = "2015-10-27 10:06:31 +0000";
layers = (
{
layerId = "097E1CCD-D4DB-46B5-97AF-AA821C3DB512";
name = "Bold Italic";
paths = (
{
closed = 1;
nodes = (
"429 0 LINE",
"432 16 LINE",
"408 24 OFFCURVE",
"374 32 OFFCURVE",
"352 36 CURVE",
"479 654 LINE",
"638 654 LINE",
"634 625 OFFCURVE",
"635 536 OFFCURVE",
"643 515 CURVE",
"672 515 LINE",
"709 700 LINE",
"135 700 LINE",
"98 515 LINE",
"127 515 LINE",
"143 536 OFFCURVE",
"180 625 OFFCURVE",
"189 654 CURVE",
"348 654 LINE",
"222 37 LINE",
"192 30 OFFCURVE",
"162 24 OFFCURVE",
"135 17 CURVE",
"132 0 LINE"
);
},
{
closed = 1;
nodes = (
"552 306 LINE",
"561 350 LINE",
"151 350 LINE",
"142 306 LINE"
);
}
);
width = 638;
}
);
leftKerningGroup = T;
note = Tbar;
rightKerningGroup = T;
unicode = 0166;
},
{
glyphname = Tcaron;
lastChange = "2015-10-27 10:06:31 +0000";
layers = (
{
layerId = "097E1CCD-D4DB-46B5-97AF-AA821C3DB512";
name = "Bold Italic";
paths = (
{
closed = 1;
nodes = (
"429 0 LINE",
"432 16 LINE",
"408 24 OFFCURVE",
"374 32 OFFCURVE",
"352 36 CURVE",
"479 654 LINE",
"638 654 LINE",
"634 625 OFFCURVE",
"635 536 OFFCURVE",
"643 515 CURVE",
"672 515 LINE",
"709 700 LINE",
"135 700 LINE",
"98 515 LINE",
"127 515 LINE",
"143 536 OFFCURVE",
"180 625 OFFCURVE",
"189 654 CURVE",
"348 654 LINE",
"222 37 LINE",
"192 30 OFFCURVE",
"162 24 OFFCURVE",
"135 17 CURVE",
"132 0 LINE"
);
},
{
closed = 1;
nodes = (
"468 786 LINE",
"500 824 OFFCURVE",
"589 894 OFFCURVE",
"636 922 CURVE",
"592 963 LINE",
"548 932 OFFCURVE",
"482 877 OFFCURVE",
"450 841 CURVE",
"446 841 LINE",
"431 877 OFFCURVE",
"387 932 OFFCURVE",
"354 963 CURVE",
"296 922 LINE",
"330 894 OFFCURVE",
"391 824 OFFCURVE",
"408 786 CURVE"
);
}
);
width = 638;
}
);
leftKerningGroup = T;
note = Tcaron;
rightKerningGroup = T;
unicode = 0164;
},
{
glyphname = Tcedilla;
lastChange = "2015-10-27 10:06:30 +0000";
layers = (
{
layerId = "097E1CCD-D4DB-46B5-97AF-AA821C3DB512";
name = "Bold Italic";
paths = (
{
closed = 1;
nodes = (
"429 0 LINE",
"432 16 LINE",
"408 24 OFFCURVE",
"374 32 OFFCURVE",
"352 36 CURVE",
"479 654 LINE",
"638 654 LINE",
"634 625 OFFCURVE",
"635 536 OFFCURVE",
"643 515 CURVE",
"672 515 LINE",
"709 700 LINE",
"135 700 LINE",
"98 515 LINE",
"127 515 LINE",
"143 536 OFFCURVE",
"180 625 OFFCURVE",
"189 654 CURVE",
"348 654 LINE",
"222 37 LINE",
"192 30 OFFCURVE",
"162 24 OFFCURVE",
"135 17 CURVE",
"132 0 LINE"
);
},
{
closed = 1;
nodes = (
"273 -241 OFFCURVE",
"339 -208 OFFCURVE",
"353 -141 CURVE SMOOTH",
"361 -99 OFFCURVE",
"337 -64 OFFCURVE",
"267 -62 CURVE SMOOTH",
"264 -62 OFFCURVE",
"259 -62 OFFCURVE",
"257 -62 CURVE",
"312 20 LINE",
"255 20 LINE",
"194 -70 LINE",
"211 -102 LINE",
"218 -101 OFFCURVE",
"226 -100 OFFCURVE",
"233 -100 CURVE SMOOTH",
"262 -100 OFFCURVE",
"294 -109 OFFCURVE",
"288 -141 CURVE",
"279 -181 OFFCURVE",
"242 -195 OFFCURVE",
"201 -195 CURVE SMOOTH",
"176 -195 OFFCURVE",
"150 -189 OFFCURVE",
"132 -179 CURVE",
"106 -214 LINE",
"130 -232 OFFCURVE",
"167 -241 OFFCURVE",
"201 -241 CURVE SMOOTH"
);
}
);
width = 638;
}
);
leftKerningGroup = T;
note = Tcedilla;
rightKerningGroup = T;
unicode = 0162;
},
{
glyphname = Tcommaaccent;
lastChange = "2015-10-27 10:06:31 +0000";
layers = (
{
layerId = "097E1CCD-D4DB-46B5-97AF-AA821C3DB512";
name = "Bold Italic";
paths = (
{
closed = 1;
nodes = (
"429 0 LINE",
"432 16 LINE",
"408 24 OFFCURVE",
"374 32 OFFCURVE",
"352 36 CURVE",
"479 654 LINE",
"638 654 LINE",
"634 625 OFFCURVE",
"635 536 OFFCURVE",
"643 515 CURVE",
"672 515 LINE",
"709 700 LINE",
"135 700 LINE",
"98 515 LINE",
"127 515 LINE",
"143 536 OFFCURVE",
"180 625 OFFCURVE",
"189 654 CURVE",
"348 654 LINE",
"222 37 LINE",
"192 30 OFFCURVE",
"162 24 OFFCURVE",
"135 17 CURVE",
"132 0 LINE"
);
},
{
closed = 1;
nodes = (
"249 -300 OFFCURVE",
"302 -220 OFFCURVE",
"316 -151 CURVE SMOOTH",
"324 -111 OFFCURVE",
"311 -77 OFFCURVE",
"262 -77 CURVE SMOOTH",
"228 -77 OFFCURVE",
"193 -99 OFFCURVE",
"185 -138 CURVE SMOOTH",
"178 -177 OFFCURVE",
"199 -199 OFFCURVE",
"237 -200 CURVE",
"223 -243 OFFCURVE",
"184 -287 OFFCURVE",
"156 -314 CURVE",
"190 -346 LINE"
);
}
);
width = 638;
}
);
leftKerningGroup = T;
note = Tcommaaccent;
rightKerningGroup = T;
unicode = 021A;
},
{
glyphname = Tdotbelow;
lastChange = "2015-10-27 10:06:30 +0000";
layers = (
{
layerId = "097E1CCD-D4DB-46B5-97AF-AA821C3DB512";
name = "Bold Italic";
paths = (
{
closed = 1;
nodes = (
"429 0 LINE",
"432 16 LINE",
"408 24 OFFCURVE",
"374 32 OFFCURVE",
"352 36 CURVE",
"479 654 LINE",
"638 654 LINE",
"634 625 OFFCURVE",
"635 536 OFFCURVE",
"643 515 CURVE",
"672 515 LINE",
"709 700 LINE",
"135 700 LINE",
"98 515 LINE",
"127 515 LINE",
"143 536 OFFCURVE",
"180 625 OFFCURVE",
"189 654 CURVE",
"348 654 LINE",
"222 37 LINE",
"192 30 OFFCURVE",
"162 24 OFFCURVE",
"135 17 CURVE",
"132 0 LINE"
);
},
{
closed = 1;
nodes = (
"278 -169 OFFCURVE",
"304 -145 OFFCURVE",
"310 -113 CURVE SMOOTH",
"317 -80 OFFCURVE",
"301 -56 OFFCURVE",
"269 -56 CURVE SMOOTH",
"236 -56 OFFCURVE",
"209 -80 OFFCURVE",
"203 -113 CURVE SMOOTH",
"197 -145 OFFCURVE",
"213 -169 OFFCURVE",
"246 -169 CURVE SMOOTH"
);
}
);
width = 638;
}
);
leftKerningGroup = T;
note = Tdotbelow;
rightKerningGroup = T;
unicode = 1E6C;
},
{
glyphname = Tlinebelow;
lastChange = "2015-10-27 10:06:33 +0000";
layers = (
{
layerId = "097E1CCD-D4DB-46B5-97AF-AA821C3DB512";
name = "Bold Italic";
paths = (
{
closed = 1;
nodes = (
"429 0 LINE",
"432 16 LINE",
"408 24 OFFCURVE",
"374 32 OFFCURVE",
"352 36 CURVE",
"479 654 LINE",
"638 654 LINE",
"634 625 OFFCURVE",
"635 536 OFFCURVE",
"643 515 CURVE",
"672 515 LINE",
"709 700 LINE",
"135 700 LINE",
"98 515 LINE",
"127 515 LINE",
"143 536 OFFCURVE",
"180 625 OFFCURVE",
"189 654 CURVE",
"348 654 LINE",
"222 37 LINE",
"192 30 OFFCURVE",
"162 24 OFFCURVE",
"135 17 CURVE",
"132 0 LINE"
);
},
{
closed = 1;
nodes = (
"435 -107 LINE",
"444 -64 LINE",
"88 -64 LINE",
"80 -107 LINE"
);
}
);
width = 638;
}
);
leftKerningGroup = T;
note = Tlinebelow;
rightKerningGroup = T;
unicode = 1E6E;
},
{
glyphname = U;
lastChange = "2015-10-27 10:06:30 +0000";
layers = (
{
layerId = "097E1CCD-D4DB-46B5-97AF-AA821C3DB512";
name = "Bold Italic";
paths = (
{
closed = 1;
nodes = (
"520 -10 OFFCURVE",
"628 66 OFFCURVE",
"659 218 CURVE SMOOTH",
"749 662 LINE",
"765 664 OFFCURVE",
"795 672 OFFCURVE",
"831 684 CURVE",
"834 700 LINE",
"625 700 LINE",
"622 684 LINE",
"647 674 OFFCURVE",
"670 668 OFFCURVE",
"696 664 CURVE",
"602 205 LINE SMOOTH",
"576 79 OFFCURVE",
"481 37 OFFCURVE",
"386 37 CURVE SMOOTH",
"289 37 OFFCURVE",
"212 75 OFFCURVE",
"239 205 CURVE SMOOTH",
"332 662 LINE",
"360 668 OFFCURVE",
"389 674 OFFCURVE",
"413 682 CURVE",
"417 700 LINE",
"132 700 LINE",
"130 684 LINE",
"154 674 OFFCURVE",
"179 668 OFFCURVE",
"202 663 CURVE",
"111 218 LINE SMOOTH",
"79 58 OFFCURVE",
"167 -10 OFFCURVE",
"344 -10 CURVE SMOOTH"
);
}
);
width = 759;
}
);
leftKerningGroup = U;
note = U;
rightKerningGroup = U;
unicode = 0055;
},
{
glyphname = Uacute;
lastChange = "2015-10-27 10:06:33 +0000";
layers = (
{
layerId = "097E1CCD-D4DB-46B5-97AF-AA821C3DB512";
name = "Bold Italic";
paths = (
{
closed = 1;
nodes = (
"520 -10 OFFCURVE",
"628 66 OFFCURVE",
"659 218 CURVE SMOOTH",
"749 662 LINE",
"765 664 OFFCURVE",
"795 672 OFFCURVE",
"831 684 CURVE",
"834 700 LINE",
"625 700 LINE",
"622 684 LINE",
"647 674 OFFCURVE",
"670 668 OFFCURVE",
"696 664 CURVE",
"602 205 LINE SMOOTH",
"576 79 OFFCURVE",
"481 37 OFFCURVE",
"386 37 CURVE SMOOTH",
"289 37 OFFCURVE",
"212 75 OFFCURVE",
"239 205 CURVE SMOOTH",
"332 662 LINE",
"360 668 OFFCURVE",
"389 674 OFFCURVE",
"413 682 CURVE",
"417 700 LINE",
"132 700 LINE",
"130 684 LINE",
"154 674 OFFCURVE",
"179 668 OFFCURVE",
"202 663 CURVE",
"111 218 LINE SMOOTH",
"79 58 OFFCURVE",
"167 -10 OFFCURVE",
"344 -10 CURVE SMOOTH"
);
},
{
closed = 1;
nodes = (
"620 875 LINE SMOOTH",
"651 892 OFFCURVE",
"669 909 OFFCURVE",
"673 930 CURVE",
"677 947 OFFCURVE",
"670 967 OFFCURVE",
"641 967 CURVE SMOOTH",
"612 967 OFFCURVE",
"586 943 OFFCURVE",
"579 936 CURVE",
"439 817 LINE",
"454 786 LINE"
);
}
);
width = 759;
}
);
leftKerningGroup = U;
note = Uacute;
rightKerningGroup = U;
unicode = 00DA;
},
{
glyphname = Ubreve;
lastChange = "2015-10-27 10:06:32 +0000";
layers = (
{
layerId = "097E1CCD-D4DB-46B5-97AF-AA821C3DB512";
name = "Bold Italic";
paths = (
{
closed = 1;
nodes = (
"520 -10 OFFCURVE",
"628 66 OFFCURVE",
"659 218 CURVE SMOOTH",
"749 662 LINE",
"765 664 OFFCURVE",
"795 672 OFFCURVE",
"831 684 CURVE",
"834 700 LINE",
"625 700 LINE",
"622 684 LINE",
"647 674 OFFCURVE",
"670 668 OFFCURVE",
"696 664 CURVE",
"602 205 LINE SMOOTH",
"576 79 OFFCURVE",
"481 37 OFFCURVE",
"386 37 CURVE SMOOTH",
"289 37 OFFCURVE",
"212 75 OFFCURVE",
"239 205 CURVE SMOOTH",
"332 662 LINE",
"360 668 OFFCURVE",
"389 674 OFFCURVE",
"413 682 CURVE",
"417 700 LINE",
"132 700 LINE",
"130 684 LINE",
"154 674 OFFCURVE",
"179 668 OFFCURVE",
"202 663 CURVE",
"111 218 LINE SMOOTH",
"79 58 OFFCURVE",
"167 -10 OFFCURVE",
"344 -10 CURVE SMOOTH"
);
},
{
closed = 1;
nodes = (
"596 779 OFFCURVE",
"668 821 OFFCURVE",
"699 910 CURVE",
"626 910 LINE",
"603 836 OFFCURVE",
"556 826 OFFCURVE",
"516 826 CURVE SMOOTH",
"477 826 OFFCURVE",
"433 836 OFFCURVE",
"441 910 CURVE",
"369 910 LINE",
"364 821 OFFCURVE",
"417 779 OFFCURVE",
"507 779 CURVE SMOOTH"
);
}
);
width = 759;
}
);
leftKerningGroup = U;
note = Ubreve;
rightKerningGroup = U;
unicode = 016C;
},
{
glyphname = Ucaron;
lastChange = "2015-10-27 10:06:33 +0000";
layers = (
{
layerId = "097E1CCD-D4DB-46B5-97AF-AA821C3DB512";
name = "Bold Italic";
paths = (
{
closed = 1;
nodes = (
"520 -10 OFFCURVE",
"628 66 OFFCURVE",
"659 218 CURVE SMOOTH",
"749 662 LINE",
"765 664 OFFCURVE",
"795 672 OFFCURVE",
"831 684 CURVE",
"834 700 LINE",
"625 700 LINE",
"622 684 LINE",
"647 674 OFFCURVE",
"670 668 OFFCURVE",
"696 664 CURVE",
"602 205 LINE SMOOTH",
"576 79 OFFCURVE",
"481 37 OFFCURVE",
"386 37 CURVE SMOOTH",
"289 37 OFFCURVE",
"212 75 OFFCURVE",
"239 205 CURVE SMOOTH",
"332 662 LINE",
"360 668 OFFCURVE",
"389 674 OFFCURVE",
"413 682 CURVE",
"417 700 LINE",
"132 700 LINE",
"130 684 LINE",
"154 674 OFFCURVE",
"179 668 OFFCURVE",
"202 663 CURVE",
"111 218 LINE SMOOTH",
"79 58 OFFCURVE",
"167 -10 OFFCURVE",
"344 -10 CURVE SMOOTH"
);
},
{
closed = 1;
nodes = (
"528 786 LINE",
"561 824 OFFCURVE",
"650 894 OFFCURVE",
"697 922 CURVE",
"653 963 LINE",
"609 932 OFFCURVE",
"542 877 OFFCURVE",
"511 841 CURVE",
"507 841 LINE",
"492 877 OFFCURVE",
"447 932 OFFCURVE",
"415 963 CURVE",
"356 922 LINE",
"391 894 OFFCURVE",
"451 824 OFFCURVE",
"468 786 CURVE"
);
}
);
width = 759;
}
);
leftKerningGroup = U;
note = Ucaron;
rightKerningGroup = U;
unicode = 01D3;
},
{
glyphname = Ucircumflex;
lastChange = "2015-10-27 10:06:30 +0000";
layers = (
{
layerId = "097E1CCD-D4DB-46B5-97AF-AA821C3DB512";
name = "Bold Italic";
paths = (
{
closed = 1;
nodes = (
"520 -10 OFFCURVE",
"628 66 OFFCURVE",
"659 218 CURVE SMOOTH",
"749 662 LINE",
"765 664 OFFCURVE",
"795 672 OFFCURVE",
"831 684 CURVE",
"834 700 LINE",
"625 700 LINE",
"622 684 LINE",
"647 674 OFFCURVE",
"670 668 OFFCURVE",
"696 664 CURVE",
"602 205 LINE SMOOTH",
"576 79 OFFCURVE",
"481 37 OFFCURVE",
"386 37 CURVE SMOOTH",
"289 37 OFFCURVE",
"212 75 OFFCURVE",
"239 205 CURVE SMOOTH",
"332 662 LINE",
"360 668 OFFCURVE",
"389 674 OFFCURVE",
"413 682 CURVE",
"417 700 LINE",
"132 700 LINE",
"130 684 LINE",
"154 674 OFFCURVE",
"179 668 OFFCURVE",
"202 663 CURVE",
"111 218 LINE SMOOTH",
"79 58 OFFCURVE",
"167 -10 OFFCURVE",
"344 -10 CURVE SMOOTH"
);
},
{
closed = 1;
nodes = (
"424 813 OFFCURVE",
"492 868 OFFCURVE",
"522 904 CURVE",
"526 904 LINE",
"542 868 OFFCURVE",
"586 813 OFFCURVE",
"618 782 CURVE",
"678 823 LINE",
"642 851 OFFCURVE",
"583 922 OFFCURVE",
"564 959 CURVE",
"505 959 LINE",
"473 922 OFFCURVE",
"383 851 OFFCURVE",
"337 823 CURVE",
"381 782 LINE"
);
}
);
width = 759;
}
);
leftKerningGroup = U;
note = Ucircumflex;
rightKerningGroup = U;
unicode = 00DB;
},
{
glyphname = Udieresis;
lastChange = "2015-10-27 10:06:31 +0000";
layers = (
{
layerId = "097E1CCD-D4DB-46B5-97AF-AA821C3DB512";
name = "Bold Italic";
paths = (
{
closed = 1;
nodes = (
"520 -10 OFFCURVE",
"628 66 OFFCURVE",
"659 218 CURVE SMOOTH",
"749 662 LINE",
"765 664 OFFCURVE",
"795 672 OFFCURVE",
"831 684 CURVE",
"834 700 LINE",
"625 700 LINE",
"622 684 LINE",
"647 674 OFFCURVE",
"670 668 OFFCURVE",
"696 664 CURVE",
"602 205 LINE SMOOTH",
"576 79 OFFCURVE",
"481 37 OFFCURVE",
"386 37 CURVE SMOOTH",
"289 37 OFFCURVE",
"212 75 OFFCURVE",
"239 205 CURVE SMOOTH",
"332 662 LINE",
"360 668 OFFCURVE",
"389 674 OFFCURVE",
"413 682 CURVE",
"417 700 LINE",
"132 700 LINE",
"130 684 LINE",
"154 674 OFFCURVE",
"179 668 OFFCURVE",
"202 663 CURVE",
"111 218 LINE SMOOTH",
"79 58 OFFCURVE",
"167 -10 OFFCURVE",
"344 -10 CURVE SMOOTH"
);
},
{
closed = 1;
nodes = (
"439 785 OFFCURVE",
"466 809 OFFCURVE",
"471 841 CURVE SMOOTH",
"478 874 OFFCURVE",
"462 898 OFFCURVE",
"428 898 CURVE SMOOTH",
"397 898 OFFCURVE",
"372 874 OFFCURVE",
"365 841 CURVE SMOOTH",
"359 809 OFFCURVE",
"374 785 OFFCURVE",
"405 785 CURVE SMOOTH"
);
},
{
closed = 1;
nodes = (
"662 785 OFFCURVE",
"689 809 OFFCURVE",
"695 841 CURVE SMOOTH",
"702 874 OFFCURVE",
"685 898 OFFCURVE",
"653 898 CURVE SMOOTH",
"619 898 OFFCURVE",
"594 874 OFFCURVE",
"588 841 CURVE SMOOTH",
"582 809 OFFCURVE",
"596 785 OFFCURVE",
"630 785 CURVE SMOOTH"
);
}
);
width = 759;
}
);
leftKerningGroup = U;
note = Udieresis;
rightKerningGroup = U;
unicode = 00DC;
},
{
glyphname = Udieresisacute;
lastChange = "2015-10-27 10:06:32 +0000";
layers = (
{
layerId = "097E1CCD-D4DB-46B5-97AF-AA821C3DB512";
name = "Bold Italic";
paths = (
{
closed = 1;
nodes = (
"520 -10 OFFCURVE",
"628 66 OFFCURVE",
"659 218 CURVE SMOOTH",
"749 662 LINE",
"765 664 OFFCURVE",
"795 672 OFFCURVE",
"831 684 CURVE",
"834 700 LINE",
"625 700 LINE",
"622 684 LINE",
"647 674 OFFCURVE",
"670 668 OFFCURVE",
"696 664 CURVE",
"602 205 LINE SMOOTH",
"576 79 OFFCURVE",
"481 37 OFFCURVE",
"386 37 CURVE SMOOTH",
"289 37 OFFCURVE",
"212 75 OFFCURVE",
"239 205 CURVE SMOOTH",
"332 662 LINE",
"360 668 OFFCURVE",
"389 674 OFFCURVE",
"413 682 CURVE",
"417 700 LINE",
"132 700 LINE",
"130 684 LINE",
"154 674 OFFCURVE",
"179 668 OFFCURVE",
"202 663 CURVE",
"111 218 LINE SMOOTH",
"79 58 OFFCURVE",
"167 -10 OFFCURVE",
"344 -10 CURVE SMOOTH"
);
},
{
closed = 1;
nodes = (
"442 785 OFFCURVE",
"468 809 OFFCURVE",
"474 841 CURVE SMOOTH",
"481 873 OFFCURVE",
"465 898 OFFCURVE",
"432 898 CURVE SMOOTH",
"398 898 OFFCURVE",
"373 873 OFFCURVE",
"367 841 CURVE SMOOTH",
"360 809 OFFCURVE",
"375 785 OFFCURVE",
"409 785 CURVE SMOOTH"
);
},
{
closed = 1;
nodes = (
"665 785 OFFCURVE",
"691 809 OFFCURVE",
"698 841 CURVE SMOOTH",
"705 873 OFFCURVE",
"688 898 OFFCURVE",
"656 898 CURVE SMOOTH",
"623 898 OFFCURVE",
"597 873 OFFCURVE",
"590 841 CURVE SMOOTH",
"584 809 OFFCURVE",
"600 785 OFFCURVE",
"633 785 CURVE SMOOTH"
);
},
{
closed = 1;
nodes = (
"671 1008 LINE SMOOTH",
"702 1025 OFFCURVE",
"720 1042 OFFCURVE",
"724 1063 CURVE",
"728 1080 OFFCURVE",
"719 1102 OFFCURVE",
"690 1102 CURVE SMOOTH",
"661 1102 OFFCURVE",
"636 1076 OFFCURVE",
"630 1070 CURVE",
"505 960 LINE",
"519 929 LINE"
);
}
);
width = 759;
}
);
leftKerningGroup = U;
note = Udieresisacute;
rightKerningGroup = U;
unicode = 01D7;
},
{
glyphname = Udieresiscaron;
lastChange = "2015-10-27 10:06:31 +0000";
layers = (
{
layerId = "097E1CCD-D4DB-46B5-97AF-AA821C3DB512";
name = "Bold Italic";
paths = (
{
closed = 1;
nodes = (
"520 -10 OFFCURVE",
"628 66 OFFCURVE",
"659 218 CURVE SMOOTH",
"749 662 LINE",
"765 664 OFFCURVE",
"795 672 OFFCURVE",
"831 684 CURVE",
"834 700 LINE",
"625 700 LINE",
"622 684 LINE",
"647 674 OFFCURVE",
"670 668 OFFCURVE",
"696 664 CURVE",
"602 205 LINE SMOOTH",
"576 79 OFFCURVE",
"481 37 OFFCURVE",
"386 37 CURVE SMOOTH",
"289 37 OFFCURVE",
"212 75 OFFCURVE",
"239 205 CURVE SMOOTH",
"332 662 LINE",
"360 668 OFFCURVE",
"389 674 OFFCURVE",
"413 682 CURVE",
"417 700 LINE",
"132 700 LINE",
"130 684 LINE",
"154 674 OFFCURVE",
"179 668 OFFCURVE",
"202 663 CURVE",
"111 218 LINE SMOOTH",
"79 58 OFFCURVE",
"167 -10 OFFCURVE",
"344 -10 CURVE SMOOTH"
);
},
{
closed = 1;
nodes = (
"441 785 OFFCURVE",
"467 808 OFFCURVE",
"473 841 CURVE SMOOTH",
"479 873 OFFCURVE",
"463 897 OFFCURVE",
"430 897 CURVE SMOOTH",
"397 897 OFFCURVE",
"372 873 OFFCURVE",
"367 841 CURVE SMOOTH",
"360 808 OFFCURVE",
"375 785 OFFCURVE",
"408 785 CURVE SMOOTH"
);
},
{
closed = 1;
nodes = (
"665 785 OFFCURVE",
"691 808 OFFCURVE",
"698 841 CURVE SMOOTH",
"704 873 OFFCURVE",
"687 897 OFFCURVE",
"654 897 CURVE SMOOTH",
"621 897 OFFCURVE",
"596 873 OFFCURVE",
"590 841 CURVE SMOOTH",
"584 808 OFFCURVE",
"599 785 OFFCURVE",
"632 785 CURVE SMOOTH"
);
},
{
closed = 1;
nodes = (
"575 911 LINE",
"609 949 OFFCURVE",
"697 1019 OFFCURVE",
"744 1047 CURVE",
"700 1088 LINE",
"655 1057 OFFCURVE",
"590 1002 OFFCURVE",
"559 966 CURVE",
"555 966 LINE",
"539 1002 OFFCURVE",
"494 1057 OFFCURVE",
"463 1088 CURVE",
"402 1047 LINE",
"437 1019 OFFCURVE",
"499 949 OFFCURVE",
"516 911 CURVE"
);
}
);
width = 759;
}
);
leftKerningGroup = U;
note = Udieresiscaron;
rightKerningGroup = U;
unicode = 01D9;
},
